<svg xmlns="http://www.w3.org/2000/svg" viewBox="0 0 648 173.21"><defs><style>.cls-1{fill:#ffd400;}.cls-2{fill:#fff200;}.cls-3{fill:#febc11;}.cls-4{fill:#ffe600;}.cls-5{fill:#fff680;}.cls-6{fill:#e39a17;}.cls-7{fill:#f3b80f;}.cls-8,.cls-9{fill:none;stroke-linejoin:round;}.cls-8{stroke:#fffac4;stroke-width:7px;}.cls-9{stroke:#f5c604;stroke-width:5px;}.cls-10,.cls-11{fill:#fffac4;}.cls-10{opacity:0.3;}.cls-11{opacity:0.6;}.cls-12{fill:#fff79b;}.cls-13{fill:#fffabe;}</style></defs><title>Asset 2</title><g id="Layer_2" data-name="Layer 2"><g id="Layer_1-2" data-name="Layer 1"><polygon class="cls-1" points="636.85 87.9 557.42 0 83.61 0 13.94 87.9 0 173.21 648 173.21 636.85 87.9"/><polygon class="cls-2" points="636.85 87.9 13.94 87.9 83.61 0 557.42 0 636.85 87.9"/><polygon class="cls-1" points="648 173.21 0 173.21 13.94 87.9 636.85 87.9 648 173.21"/><path class="cls-3" d="M13.94,87.9,0,173.21H412.67C249.89,153.12,170.32,115,132.83,87.9Z"/><path class="cls-4" d="M135.29,0H83.61L13.94,87.9H636.85L613.69,62.27C399.28,85.56,210.69,27.8,135.29,0Z"/><path class="cls-5" d="M598.41,45.37,557.42,0H363.22C394.64,18.78,465.65,48.33,598.41,45.37Z"/><path class="cls-6" d="M21.54,87.9h-7.6L0,173.21H118.65C33.58,146.36,21.75,107.07,21.54,87.9Z"/><path class="cls-7" d="M492.55,97.57c21.31,4.15,42.79,6.69,63,15.13,12.34,5.16,25.33,11.82,34.63,21.66,2.47,2.61,19.48,35,16.7,35h33.45l-9.06-75.95H567.06q-23.62,0-47.25,0c-5.69,0-12.88-1.18-18.45,0C497.91,94.05,494.81,95.14,492.55,97.57Z"/><polygon class="cls-8" points="101.28 8.36 47.38 73.86 610.37 73.86 548.49 8.36 101.28 8.36"/><polygon class="cls-9" points="97.1 9.75 43.2 75.25 606.19 75.25 544.3 9.75 97.1 9.75"/><path class="cls-10" d="M9.75,162.12l7.44-56.68s0-13,21.83-12.07,50.63,0,50.63,0S29.73,99.87,9.75,162.12Z"/><path class="cls-11" d="M107.3,19.05l-33,40.87S70.14,64.57,79,65h61.31S84.08,58.06,107.3,19.05Z"/><path class="cls-4" d="M206.33,93.37H416s30,11.84,73.16,17.42,65.49,51.33,65.49,51.33v7.2H434.79S363,137.68,324,127.72,214.78,112.88,206.33,93.37Z"/><circle class="cls-12" cx="453.04" cy="134.72" r="17.98"/><circle class="cls-12" cx="140.28" cy="31.46" r="12.41" transform="translate(77.44 160.76) rotate(-76.72)"/><path class="cls-12" d="M167.62,48.09c-5.17,1.27-6.2,2.29-7.46,7.47-1.27-5.18-2.29-6.2-7.47-7.47,5.18-1.27,6.2-2.29,7.47-7.46C161.42,45.8,162.45,46.82,167.62,48.09Z"/><path class="cls-12" d="M182.55,35c-5.17,1.27-6.2,2.29-7.47,7.46-1.26-5.17-2.29-6.19-7.46-7.46,5.17-1.27,6.2-2.29,7.46-7.47C176.35,32.75,177.38,33.77,182.55,35Z"/><circle class="cls-12" cx="489.14" cy="147.51" r="8.19" transform="translate(38.96 389.08) rotate(-45)"/><path class="cls-13" d="M479.21,155.69c-5.68,1.39-6.8,2.52-8.19,8.19-1.39-5.67-2.52-6.8-8.19-8.19,5.67-1.38,6.8-2.51,8.19-8.18C472.41,153.18,473.53,154.31,479.21,155.69Z"/><path class="cls-13" d="M86.84,113.47c-3.41.83-4.08,1.5-4.91,4.91-.84-3.41-1.51-4.08-4.91-4.91,3.4-.84,4.07-1.51,4.91-4.91C82.76,112,83.43,112.63,86.84,113.47Z"/><path class="cls-13" d="M94.56,127.72c-3.4.83-4.08,1.51-4.91,4.91-.83-3.4-1.51-4.08-4.91-4.91,3.4-.83,4.08-1.51,4.91-4.91C90.48,126.21,91.16,126.89,94.56,127.72Z"/><path class="cls-13" d="M78.22,127.72c-6.79,1.66-8.14,3-9.8,9.79-1.66-6.78-3-8.13-9.79-9.79,6.79-1.66,8.13-3,9.79-9.8C70.08,124.71,71.43,126.06,78.22,127.72Z"/></g></g></svg>