<svg xmlns="http://www.w3.org/2000/svg" viewBox="0 0 1944 412.12"><defs><style>.cls-1{fill:#ffd400;}.cls-2{fill:#fff200;}.cls-3{fill:#febc11;}.cls-4{fill:#ffe600;}.cls-5{fill:#fff680;}.cls-6{fill:#e39a17;}.cls-7{fill:#f3b80f;}.cls-8,.cls-9{fill:none;stroke-linejoin:round;}.cls-8{stroke:#fffac4;stroke-width:7px;}.cls-9{stroke:#f5c604;stroke-width:5px;}.cls-10,.cls-11{fill:#fffac4;}.cls-10{opacity:0.3;}.cls-11{opacity:0.6;}.cls-12{fill:#fff79b;}.cls-13{fill:#fffabe;}</style></defs><title>Asset 1</title><g id="Layer_2" data-name="Layer 2"><g id="Layer_1-2" data-name="Layer 1"><polygon class="cls-1" points="636.85 326.81 557.42 238.91 83.61 238.91 13.94 326.81 0 412.12 648 412.12 636.85 326.81"/><polygon class="cls-2" points="636.85 326.81 13.94 326.81 83.61 238.91 557.42 238.91 636.85 326.81"/><polygon class="cls-1" points="648 412.12 0 412.12 13.94 326.81 636.85 326.81 648 412.12"/><path class="cls-3" d="M13.94,326.81,0,412.12H412.67C249.89,392,170.32,353.88,132.83,326.81Z"/><path class="cls-4" d="M135.29,238.9H83.61L13.94,326.81H636.85l-23.16-25.63C399.28,324.46,210.69,266.71,135.29,238.9Z"/><path class="cls-5" d="M598.41,284.27l-41-45.37H363.22C394.64,257.69,465.65,287.23,598.41,284.27Z"/><path class="cls-6" d="M21.54,326.81h-7.6L0,412.12H118.65C33.58,385.26,21.75,346,21.54,326.81Z"/><path class="cls-7" d="M492.55,336.48c21.31,4.14,42.79,6.69,63,15.13,12.34,5.15,25.33,11.82,34.63,21.65,2.47,2.61,19.48,35,16.7,35h33.45l-9.06-76H519.8c-5.68,0-12.87-1.17-18.44,0C497.91,333,494.81,334.05,492.55,336.48Z"/><polygon class="cls-8" points="101.28 247.27 47.38 312.76 610.37 312.76 548.49 247.27 101.28 247.27"/><polygon class="cls-9" points="97.1 248.66 43.2 314.16 606.19 314.16 544.3 248.66 97.1 248.66"/><path class="cls-10" d="M9.75,401l7.44-56.67s0-13,21.83-12.08,50.63,0,50.63,0S29.73,338.78,9.75,401Z"/><path class="cls-11" d="M107.3,258l-33,40.88s-4.18,4.64,4.65,5.11h61.31S84.08,297,107.3,258Z"/><path class="cls-4" d="M206.33,332.27H416s30,11.85,73.17,17.42S554.63,401,554.63,401v7.2H434.79S363,376.59,324,366.62,214.78,351.78,206.33,332.27Z"/><circle class="cls-12" cx="453.04" cy="373.63" r="17.98"/><path class="cls-12" d="M152.69,270.36c-8.59,2.11-10.3,3.81-12.41,12.41-2.1-8.6-3.81-10.3-12.41-12.41,8.6-2.11,10.31-3.81,12.41-12.41C142.39,266.55,144.1,268.25,152.69,270.36Z"/><path class="cls-12" d="M167.62,287c-5.17,1.26-6.2,2.29-7.46,7.46-1.27-5.17-2.29-6.2-7.47-7.46,5.18-1.27,6.2-2.3,7.47-7.47C161.42,284.7,162.45,285.73,167.62,287Z"/><path class="cls-12" d="M182.55,273.94c-5.17,1.27-6.2,2.3-7.46,7.47-1.27-5.17-2.3-6.2-7.47-7.47,5.17-1.26,6.2-2.29,7.47-7.46C176.35,271.65,177.38,272.68,182.55,273.94Z"/><path class="cls-12" d="M497.32,386.41c-5.67,1.39-6.8,2.52-8.18,8.19-1.39-5.67-2.52-6.8-8.19-8.19,5.67-1.38,6.8-2.51,8.19-8.18C490.52,383.9,491.65,385,497.32,386.41Z"/><path class="cls-13" d="M479.21,394.6c-5.68,1.39-6.8,2.51-8.19,8.18-1.39-5.67-2.52-6.79-8.19-8.18,5.67-1.39,6.8-2.52,8.19-8.19C472.41,392.08,473.53,393.21,479.21,394.6Z"/><path class="cls-13" d="M86.84,352.37c-3.41.83-4.08,1.51-4.91,4.91-.84-3.4-1.51-4.08-4.91-4.91,3.4-.83,4.07-1.51,4.91-4.91C82.76,350.86,83.43,351.54,86.84,352.37Z"/><path class="cls-13" d="M94.56,366.62c-3.4.84-4.08,1.51-4.91,4.91-.83-3.4-1.51-4.07-4.91-4.91,3.4-.83,4.08-1.51,4.91-4.91C90.48,365.11,91.16,365.79,94.56,366.62Z"/><path class="cls-13" d="M78.22,366.62c-6.79,1.66-8.14,3-9.8,9.8-1.66-6.79-3-8.14-9.79-9.8,6.79-1.66,8.13-3,9.79-9.79C70.08,363.61,71.43,365,78.22,366.62Z"/><polygon class="cls-1" points="1284.85 326.81 1205.42 238.91 731.61 238.91 661.94 326.81 648 412.12 1296 412.12 1284.85 326.81"/><polygon class="cls-2" points="1284.85 326.81 661.94 326.81 731.61 238.91 1205.42 238.91 1284.85 326.81"/><polygon class="cls-1" points="1296 412.12 648 412.12 661.94 326.81 1284.85 326.81 1296 412.12"/><path class="cls-3" d="M661.94,326.81,648,412.12h412.67C897.89,392,818.32,353.88,780.83,326.81Z"/><path class="cls-4" d="M783.29,238.9H731.61l-69.67,87.91h622.91l-23.16-25.63C1047.28,324.46,858.69,266.71,783.29,238.9Z"/><path class="cls-5" d="M1246.41,284.27l-41-45.37h-194.2C1042.64,257.69,1113.65,287.23,1246.41,284.27Z"/><path class="cls-6" d="M669.54,326.81h-7.6L648,412.12H766.65C681.57,385.26,669.75,346,669.54,326.81Z"/><path class="cls-7" d="M1140.55,336.48c21.31,4.14,42.79,6.69,63,15.13,12.34,5.15,25.33,11.82,34.63,21.65,2.47,2.61,19.48,35,16.7,35h33.45l-9.06-76H1167.81c-5.69,0-12.88-1.17-18.45,0C1145.91,333,1142.81,334.05,1140.55,336.48Z"/><polygon class="cls-8" points="749.28 247.27 695.38 312.76 1258.37 312.76 1196.48 247.27 749.28 247.27"/><polygon class="cls-9" points="745.1 248.66 691.2 314.16 1254.19 314.16 1192.31 248.66 745.1 248.66"/><path class="cls-10" d="M657.75,401l7.44-56.67s0-13,21.83-12.08,50.63,0,50.63,0S677.73,338.78,657.75,401Z"/><path class="cls-11" d="M755.3,258l-33,40.88s-4.18,4.64,4.65,5.11h61.31S732.08,297,755.3,258Z"/><path class="cls-4" d="M854.33,332.27H1064s30,11.85,73.16,17.42S1202.63,401,1202.63,401v7.2H1082.79S1011,376.59,972,366.62,862.78,351.78,854.33,332.27Z"/><circle class="cls-12" cx="1101.04" cy="373.63" r="17.98"/><path class="cls-12" d="M800.69,270.36c-8.59,2.11-10.3,3.81-12.41,12.41-2.1-8.6-3.81-10.3-12.41-12.41,8.6-2.11,10.31-3.81,12.41-12.41C790.39,266.55,792.1,268.25,800.69,270.36Z"/><path class="cls-12" d="M815.62,287c-5.17,1.26-6.2,2.29-7.46,7.46-1.27-5.17-2.29-6.2-7.47-7.46,5.18-1.27,6.2-2.3,7.47-7.47C809.42,284.7,810.45,285.73,815.62,287Z"/><path class="cls-12" d="M830.55,273.94c-5.17,1.27-6.2,2.3-7.47,7.47-1.26-5.17-2.29-6.2-7.46-7.47,5.17-1.26,6.2-2.29,7.46-7.46C824.35,271.65,825.38,272.68,830.55,273.94Z"/><path class="cls-12" d="M1145.32,386.41c-5.67,1.39-6.8,2.52-8.18,8.19-1.39-5.67-2.52-6.8-8.19-8.19,5.67-1.38,6.8-2.51,8.19-8.18C1138.52,383.9,1139.65,385,1145.32,386.41Z"/><path class="cls-13" d="M1127.21,394.6c-5.68,1.39-6.8,2.51-8.19,8.18-1.39-5.67-2.52-6.79-8.19-8.18,5.67-1.39,6.8-2.52,8.19-8.19C1120.41,392.08,1121.53,393.21,1127.21,394.6Z"/><path class="cls-13" d="M734.84,352.37c-3.41.83-4.08,1.51-4.91,4.91-.84-3.4-1.51-4.08-4.91-4.91,3.4-.83,4.07-1.51,4.91-4.91C730.76,350.86,731.43,351.54,734.84,352.37Z"/><path class="cls-13" d="M742.56,366.62c-3.4.84-4.08,1.51-4.91,4.91-.83-3.4-1.51-4.07-4.91-4.91,3.4-.83,4.08-1.51,4.91-4.91C738.48,365.11,739.16,365.79,742.56,366.62Z"/><path class="cls-13" d="M726.22,366.62c-6.79,1.66-8.14,3-9.8,9.8-1.66-6.79-3-8.14-9.79-9.8,6.78-1.66,8.13-3,9.79-9.79C718.08,363.61,719.43,365,726.22,366.62Z"/><polygon class="cls-1" points="1932.85 326.81 1853.42 238.91 1379.61 238.91 1309.94 326.81 1296 412.12 1944 412.12 1932.85 326.81"/><polygon class="cls-2" points="1932.85 326.81 1309.94 326.81 1379.61 238.91 1853.42 238.91 1932.85 326.81"/><polygon class="cls-1" points="1944 412.12 1296 412.12 1309.94 326.81 1932.85 326.81 1944 412.12"/><path class="cls-3" d="M1309.94,326.81,1296,412.12h412.67c-162.78-20.1-242.35-58.24-279.84-85.31Z"/><path class="cls-4" d="M1431.29,238.9h-51.68l-69.67,87.91h622.91l-23.16-25.63C1695.28,324.46,1506.69,266.71,1431.29,238.9Z"/><path class="cls-5" d="M1894.41,284.27l-41-45.37h-194.2C1690.64,257.69,1761.65,287.23,1894.41,284.27Z"/><path class="cls-6" d="M1317.54,326.81h-7.6L1296,412.12h118.65C1329.57,385.26,1317.75,346,1317.54,326.81Z"/><path class="cls-7" d="M1788.55,336.48c21.31,4.14,42.79,6.69,63,15.13,12.34,5.15,25.33,11.82,34.63,21.65,2.47,2.61,19.48,35,16.7,35h33.45l-9.06-76H1815.81c-5.69,0-12.88-1.17-18.45,0C1793.91,333,1790.81,334.05,1788.55,336.48Z"/><polygon class="cls-8" points="1397.28 247.27 1343.38 312.76 1906.37 312.76 1844.48 247.27 1397.28 247.27"/><polygon class="cls-9" points="1393.1 248.66 1339.2 314.16 1902.19 314.16 1840.31 248.66 1393.1 248.66"/><path class="cls-10" d="M1305.75,401l7.44-56.67s0-13,21.83-12.08,50.63,0,50.63,0S1325.73,338.78,1305.75,401Z"/><path class="cls-11" d="M1403.3,258l-33,40.88s-4.18,4.64,4.65,5.11h61.31S1380.08,297,1403.3,258Z"/><path class="cls-4" d="M1502.33,332.27H1712s30,11.85,73.16,17.42S1850.63,401,1850.63,401v7.2H1730.79S1659,376.59,1620,366.62,1510.78,351.78,1502.33,332.27Z"/><circle class="cls-12" cx="1749.04" cy="373.63" r="17.98"/><path class="cls-12" d="M1448.69,270.36c-8.59,2.11-10.3,3.81-12.41,12.41-2.1-8.6-3.81-10.3-12.41-12.41,8.6-2.11,10.31-3.81,12.41-12.41C1438.39,266.55,1440.1,268.25,1448.69,270.36Z"/><path class="cls-12" d="M1463.62,287c-5.17,1.26-6.2,2.29-7.46,7.46-1.27-5.17-2.29-6.2-7.47-7.46,5.18-1.27,6.2-2.3,7.47-7.47C1457.42,284.7,1458.45,285.73,1463.62,287Z"/><path class="cls-12" d="M1478.55,273.94c-5.17,1.27-6.2,2.3-7.47,7.47-1.26-5.17-2.29-6.2-7.46-7.47,5.17-1.26,6.2-2.29,7.46-7.46C1472.35,271.65,1473.38,272.68,1478.55,273.94Z"/><path class="cls-12" d="M1793.32,386.41c-5.67,1.39-6.8,2.52-8.18,8.19-1.39-5.67-2.52-6.8-8.19-8.19,5.67-1.38,6.8-2.51,8.19-8.18C1786.52,383.9,1787.65,385,1793.32,386.41Z"/><path class="cls-13" d="M1775.21,394.6c-5.68,1.39-6.8,2.51-8.19,8.18-1.39-5.67-2.52-6.79-8.19-8.18,5.67-1.39,6.8-2.52,8.19-8.19C1768.41,392.08,1769.53,393.21,1775.21,394.6Z"/><path class="cls-13" d="M1382.84,352.37c-3.41.83-4.08,1.51-4.91,4.91-.84-3.4-1.51-4.08-4.92-4.91,3.41-.83,4.08-1.51,4.92-4.91C1378.76,350.86,1379.43,351.54,1382.84,352.37Z"/><path class="cls-13" d="M1390.56,366.62c-3.4.84-4.08,1.51-4.91,4.91-.83-3.4-1.51-4.07-4.91-4.91,3.4-.83,4.08-1.51,4.91-4.91C1386.48,365.11,1387.16,365.79,1390.56,366.62Z"/><path class="cls-13" d="M1374.22,366.62c-6.79,1.66-8.14,3-9.8,9.8-1.66-6.79-3-8.14-9.79-9.8,6.78-1.66,8.13-3,9.79-9.79C1366.08,363.61,1367.43,365,1374.22,366.62Z"/><polygon class="cls-1" points="960.85 204.87 881.42 116.96 407.61 116.96 337.94 204.87 324 290.18 972 290.18 960.85 204.87"/><polygon class="cls-2" points="960.85 204.87 337.94 204.87 407.61 116.96 881.42 116.96 960.85 204.87"/><polygon class="cls-1" points="972 290.18 324 290.18 337.94 204.87 960.85 204.87 972 290.18"/><path class="cls-3" d="M337.94,204.87,324,290.18H736.67c-162.78-20.1-242.35-58.24-279.84-85.31Z"/><path class="cls-4" d="M459.29,117H407.61l-69.67,87.91H960.85l-23.16-25.63C723.28,202.52,534.69,144.77,459.29,117Z"/><path class="cls-5" d="M922.41,162.33l-41-45.37H687.22C718.64,135.75,789.65,165.29,922.41,162.33Z"/><path class="cls-6" d="M345.54,204.87h-7.6L324,290.18H442.65C357.57,263.32,345.75,224,345.54,204.87Z"/><path class="cls-7" d="M816.55,214.54c21.31,4.14,42.79,6.69,63,15.13,12.34,5.15,25.33,11.82,34.63,21.65,2.47,2.61,19.48,35,16.7,35h33.45l-9.06-75.95H843.8c-5.68,0-12.88-1.17-18.44,0C821.91,211,818.81,212.11,816.55,214.54Z"/><polygon class="cls-8" points="425.28 125.33 371.38 190.82 934.37 190.82 872.49 125.33 425.28 125.33"/><polygon class="cls-9" points="421.1 126.72 367.2 192.22 930.19 192.22 868.3 126.72 421.1 126.72"/><path class="cls-10" d="M333.75,279.08l7.44-56.67s0-13,21.83-12.08,50.63,0,50.63,0S353.73,216.84,333.75,279.08Z"/><path class="cls-11" d="M431.3,136l-33,40.88s-4.18,4.64,4.65,5.11h61.31S408.08,175,431.3,136Z"/><path class="cls-4" d="M530.33,210.33H740s30,11.85,73.17,17.42,65.49,51.33,65.49,51.33v7.2H758.79S687,254.65,648,244.68,538.78,229.84,530.33,210.33Z"/><path class="cls-12" d="M795,251.69c-12.46,3.05-14.94,5.52-18,18-3-12.46-5.52-14.93-18-18,12.46-3.05,14.93-5.52,18-18C780.08,246.17,782.56,248.64,795,251.69Z"/><path class="cls-12" d="M476.69,148.42c-8.59,2.11-10.3,3.81-12.41,12.41-2.1-8.6-3.81-10.3-12.41-12.41,8.6-2.11,10.31-3.81,12.41-12.41C466.39,144.61,468.1,146.31,476.69,148.42Z"/><path class="cls-12" d="M491.62,165.06c-5.17,1.26-6.2,2.29-7.46,7.46-1.27-5.17-2.29-6.2-7.47-7.46,5.18-1.27,6.2-2.3,7.47-7.47C485.42,162.76,486.45,163.79,491.62,165.06Z"/><path class="cls-12" d="M506.55,152c-5.17,1.26-6.2,2.29-7.47,7.46-1.26-5.17-2.29-6.2-7.46-7.46,5.17-1.27,6.2-2.3,7.46-7.47C500.35,149.71,501.38,150.74,506.55,152Z"/><path class="cls-12" d="M821.32,264.47c-5.67,1.39-6.8,2.52-8.18,8.19-1.4-5.67-2.52-6.8-8.19-8.19,5.67-1.38,6.79-2.51,8.19-8.18C814.52,262,815.65,263.09,821.32,264.47Z"/><path class="cls-13" d="M803.2,272.66c-5.67,1.39-6.79,2.51-8.18,8.18-1.39-5.67-2.52-6.79-8.19-8.18,5.67-1.39,6.8-2.52,8.19-8.19C796.41,270.14,797.53,271.27,803.2,272.66Z"/><path class="cls-13" d="M410.84,230.43c-3.41.83-4.08,1.51-4.91,4.91-.84-3.4-1.51-4.08-4.92-4.91,3.41-.83,4.08-1.51,4.92-4.91C406.76,228.92,407.43,229.6,410.84,230.43Z"/><path class="cls-13" d="M418.56,244.68c-3.4.84-4.08,1.51-4.91,4.91-.83-3.4-1.51-4.07-4.91-4.91,3.4-.83,4.08-1.5,4.91-4.91C414.48,243.18,415.16,243.85,418.56,244.68Z"/><path class="cls-13" d="M402.22,244.68c-6.79,1.67-8.14,3-9.8,9.8-1.66-6.79-3-8.13-9.79-9.8,6.78-1.66,8.13-3,9.79-9.79C394.08,241.68,395.43,243,402.22,244.68Z"/><polygon class="cls-1" points="1608.85 204.87 1529.42 116.96 1055.61 116.96 985.94 204.87 972 290.18 1620 290.18 1608.85 204.87"/><polygon class="cls-2" points="1608.85 204.87 985.94 204.87 1055.61 116.96 1529.42 116.96 1608.85 204.87"/><polygon class="cls-1" points="1620 290.18 972 290.18 985.94 204.87 1608.85 204.87 1620 290.18"/><path class="cls-3" d="M985.94,204.87,972,290.18h412.67c-162.78-20.1-242.35-58.24-279.84-85.31Z"/><path class="cls-4" d="M1107.29,117h-51.68l-69.67,87.91h622.91l-23.16-25.63C1371.28,202.52,1182.69,144.77,1107.29,117Z"/><path class="cls-5" d="M1570.41,162.33l-41-45.37h-194.2C1366.64,135.75,1437.65,165.29,1570.41,162.33Z"/><path class="cls-6" d="M993.54,204.87h-7.6L972,290.18h118.65C1005.57,263.32,993.75,224,993.54,204.87Z"/><path class="cls-7" d="M1464.55,214.54c21.31,4.14,42.79,6.69,63,15.13,12.34,5.15,25.33,11.82,34.63,21.65,2.47,2.61,19.48,35,16.7,35h33.45l-9.06-75.95H1491.81c-5.69,0-12.88-1.17-18.45,0C1469.91,211,1466.81,212.11,1464.55,214.54Z"/><polygon class="cls-8" points="1073.28 125.33 1019.38 190.82 1582.37 190.82 1520.48 125.33 1073.28 125.33"/><polygon class="cls-9" points="1069.1 126.72 1015.2 192.22 1578.19 192.22 1516.31 126.72 1069.1 126.72"/><path class="cls-10" d="M981.75,279.08l7.44-56.67s0-13,21.83-12.08,50.63,0,50.63,0S1001.73,216.84,981.75,279.08Z"/><path class="cls-11" d="M1079.3,136l-33,40.88s-4.18,4.64,4.65,5.11h61.31S1056.08,175,1079.3,136Z"/><path class="cls-4" d="M1178.33,210.33H1388s30,11.85,73.16,17.42,65.49,51.33,65.49,51.33v7.2H1406.79S1335,254.65,1296,244.68,1186.78,229.84,1178.33,210.33Z"/><circle class="cls-12" cx="1425.04" cy="251.69" r="17.98" transform="translate(239.41 1081.37) rotate(-45)"/><path class="cls-12" d="M1124.69,148.42c-8.59,2.11-10.3,3.81-12.41,12.41-2.1-8.6-3.81-10.3-12.41-12.41,8.6-2.11,10.31-3.81,12.41-12.41C1114.39,144.61,1116.1,146.31,1124.69,148.42Z"/><path class="cls-12" d="M1139.62,165.06c-5.17,1.26-6.2,2.29-7.46,7.46-1.27-5.17-2.29-6.2-7.47-7.46,5.18-1.27,6.2-2.3,7.47-7.47C1133.42,162.76,1134.45,163.79,1139.62,165.06Z"/><path class="cls-12" d="M1154.55,152c-5.17,1.26-6.2,2.29-7.47,7.46-1.26-5.17-2.29-6.2-7.46-7.46,5.17-1.27,6.2-2.3,7.46-7.47C1148.35,149.71,1149.38,150.74,1154.55,152Z"/><circle class="cls-12" cx="1461.14" cy="264.47" r="8.19" transform="translate(868.04 1625.76) rotate(-76.72)"/><path class="cls-13" d="M1451.21,272.66c-5.68,1.39-6.8,2.51-8.19,8.18-1.39-5.67-2.52-6.79-8.19-8.18,5.67-1.39,6.8-2.52,8.19-8.19C1444.41,270.14,1445.53,271.27,1451.21,272.66Z"/><path class="cls-13" d="M1058.84,230.43c-3.41.83-4.08,1.51-4.91,4.91-.84-3.4-1.51-4.08-4.92-4.91,3.41-.83,4.08-1.51,4.92-4.91C1054.76,228.92,1055.43,229.6,1058.84,230.43Z"/><path class="cls-13" d="M1066.56,244.68c-3.4.84-4.08,1.51-4.91,4.91-.83-3.4-1.51-4.07-4.91-4.91,3.4-.83,4.08-1.5,4.91-4.91C1062.48,243.18,1063.16,243.85,1066.56,244.68Z"/><path class="cls-13" d="M1050.22,244.68c-6.79,1.67-8.14,3-9.8,9.8-1.66-6.79-3-8.13-9.79-9.8,6.78-1.66,8.13-3,9.79-9.79C1042.08,241.68,1043.43,243,1050.22,244.68Z"/><polygon class="cls-1" points="1284.85 87.9 1205.42 0 731.61 0 661.93 87.9 648 173.21 1296 173.21 1284.85 87.9"/><polygon class="cls-2" points="1284.85 87.9 661.93 87.9 731.61 0 1205.42 0 1284.85 87.9"/><polygon class="cls-1" points="1296 173.21 648 173.21 661.93 87.9 1284.85 87.9 1296 173.21"/><path class="cls-3" d="M661.94,87.9,648,173.21h412.67C897.89,153.12,818.32,115,780.83,87.9Z"/><path class="cls-4" d="M783.29,0H731.61L661.94,87.9h622.91l-23.16-25.63C1047.28,85.56,858.69,27.8,783.29,0Z"/><path class="cls-5" d="M1246.41,45.37,1205.42,0h-194.2C1042.64,18.78,1113.65,48.33,1246.41,45.37Z"/><path class="cls-6" d="M669.54,87.9h-7.6L648,173.21H766.65C681.58,146.36,669.75,107.07,669.54,87.9Z"/><path class="cls-7" d="M1140.55,97.57c21.31,4.15,42.79,6.69,63,15.13,12.34,5.16,25.33,11.82,34.63,21.66,2.47,2.61,19.48,35,16.7,35h33.45l-9.06-75.95h-64.22q-23.62,0-47.25,0c-5.69,0-12.88-1.18-18.45,0C1145.91,94.05,1142.81,95.14,1140.55,97.57Z"/><polygon class="cls-8" points="749.28 8.36 695.38 73.86 1258.37 73.86 1196.48 8.36 749.28 8.36"/><polygon class="cls-9" points="745.1 9.75 691.2 75.25 1254.19 75.25 1192.31 9.75 745.1 9.75"/><path class="cls-10" d="M657.75,162.12l7.44-56.68s0-13,21.83-12.07,50.63,0,50.63,0S677.73,99.87,657.75,162.12Z"/><path class="cls-11" d="M755.3,19.05l-33,40.87S718.14,64.57,727,65h61.31S732.08,58.06,755.3,19.05Z"/><path class="cls-4" d="M854.33,93.37H1064s30,11.84,73.16,17.42,65.49,51.33,65.49,51.33v7.2H1082.79S1011,137.68,972,127.72,862.78,112.88,854.33,93.37Z"/><circle class="cls-12" cx="1101.04" cy="134.72" r="17.98"/><circle class="cls-12" cx="788.28" cy="31.46" r="12.41" transform="translate(576.56 791.42) rotate(-76.72)"/><path class="cls-12" d="M815.62,48.09c-5.17,1.27-6.2,2.29-7.46,7.47-1.27-5.18-2.29-6.2-7.47-7.47,5.18-1.27,6.2-2.29,7.47-7.46C809.42,45.8,810.45,46.82,815.62,48.09Z"/><path class="cls-12" d="M830.55,35c-5.17,1.27-6.2,2.29-7.47,7.46-1.26-5.17-2.29-6.19-7.46-7.46,5.17-1.27,6.2-2.29,7.46-7.47C824.35,32.75,825.38,33.77,830.55,35Z"/><circle class="cls-12" cx="1137.14" cy="147.51" r="8.19" transform="translate(228.75 847.28) rotate(-45)"/><path class="cls-13" d="M1127.21,155.69c-5.68,1.39-6.8,2.52-8.19,8.19-1.39-5.67-2.52-6.8-8.19-8.19,5.67-1.38,6.8-2.51,8.19-8.18C1120.41,153.18,1121.53,154.31,1127.21,155.69Z"/><path class="cls-13" d="M734.84,113.47c-3.41.83-4.08,1.5-4.91,4.91-.84-3.41-1.51-4.08-4.91-4.91,3.4-.84,4.07-1.51,4.91-4.91C730.76,112,731.43,112.63,734.84,113.47Z"/><path class="cls-13" d="M742.56,127.72c-3.4.83-4.08,1.51-4.91,4.91-.83-3.4-1.51-4.08-4.91-4.91,3.4-.83,4.08-1.51,4.91-4.91C738.48,126.21,739.16,126.89,742.56,127.72Z"/><path class="cls-13" d="M726.22,127.72c-6.79,1.66-8.14,3-9.8,9.79-1.66-6.78-3-8.13-9.79-9.79,6.79-1.66,8.13-3,9.79-9.8C718.08,124.71,719.43,126.06,726.22,127.72Z"/></g></g></svg>