<svg xmlns="http://www.w3.org/2000/svg" xmlns:xlink="http://www.w3.org/1999/xlink" viewBox="0 0 129.62 174.01"><defs><style>.cls-1{fill:none;}.cls-2{isolation:isolate;}.cls-3{fill:#26596b;}.cls-4{fill:#28617f;}.cls-5{fill:#3b79a0;}.cls-6{fill:#316b91;}.cls-7{fill:url(#linear-gradient);}.cls-8{fill:#ceb7a3;opacity:0.8;}.cls-11,.cls-49,.cls-8,.cls-9{mix-blend-mode:multiply;}.cls-9{fill:#b2a497;}.cls-10,.cls-23,.cls-9{opacity:0.5;}.cls-10{fill:#813bff;}.cls-11{fill:#1d646d;}.cls-11,.cls-49{opacity:0.4;}.cls-12{fill:#d4ae42;}.cls-13{fill:#927530;}.cls-14{fill:#a6852f;}.cls-15{fill:#b89739;}.cls-16{fill:url(#linear-gradient-2);}.cls-17{fill:#80632b;}.cls-18{fill:#663528;}.cls-19{fill:#7a3e2b;}.cls-20{fill:#9c573f;}.cls-21{fill:#8c4b34;}.cls-22{fill:url(#linear-gradient-3);}.cls-23{fill:#fccf43;}.cls-24{fill:#542a22;}.cls-25{fill:#1a1a1c;}.cls-26{fill:#202023;}.cls-27{fill:url(#_ÂÁ_Ï_ÌÌ_È_ËÂÌÚ_9);}.cls-28{fill:#28282a;}.cls-29{fill:#363638;}.cls-30{fill:url(#linear-gradient-4);}.cls-31{fill:#518ead;}.cls-32,.cls-34{fill:#e3f0ff;}.cls-32,.cls-33,.cls-40{opacity:0.3;}.cls-35{fill:#372357;}.cls-36{fill:#3f2b5c;}.cls-37{fill:#563d71;}.cls-38{fill:#4d3569;}.cls-39{fill:url(#linear-gradient-5);}.cls-40,.cls-41{fill:#d0a1ff;}.cls-42{fill:#21222b;}.cls-43{fill:#242632;}.cls-44{fill:#393d48;}.cls-45{fill:#30343f;}.cls-46{fill:url(#linear-gradient-6);}.cls-47{fill:#af3838;}.cls-48{clip-path:url(#clip-path);}.cls-50{fill:#fff;opacity:0;}.cls-51{opacity:0.02;fill:url(#_ÂÁ_Ï_ÌÌ_È_ËÂÌÚ_56);}.cls-52{opacity:0.04;fill:url(#_ÂÁ_Ï_ÌÌ_È_ËÂÌÚ_453);}.cls-53{opacity:0.06;fill:url(#_ÂÁ_Ï_ÌÌ_È_ËÂÌÚ_452);}.cls-54{opacity:0.08;fill:url(#_ÂÁ_Ï_ÌÌ_È_ËÂÌÚ_451);}.cls-55{opacity:0.1;fill:url(#_ÂÁ_Ï_ÌÌ_È_ËÂÌÚ_450);}.cls-56{opacity:0.12;fill:url(#_ÂÁ_Ï_ÌÌ_È_ËÂÌÚ_449);}.cls-57{opacity:0.14;fill:url(#_ÂÁ_Ï_ÌÌ_È_ËÂÌÚ_448);}.cls-58{opacity:0.16;fill:url(#_ÂÁ_Ï_ÌÌ_È_ËÂÌÚ_447);}.cls-59{opacity:0.18;fill:url(#_ÂÁ_Ï_ÌÌ_È_ËÂÌÚ_446);}.cls-60{opacity:0.2;fill:url(#_ÂÁ_Ï_ÌÌ_È_ËÂÌÚ_445);}.cls-61{opacity:0.22;fill:url(#_ÂÁ_Ï_ÌÌ_È_ËÂÌÚ_444);}.cls-62{opacity:0.24;fill:url(#_ÂÁ_Ï_ÌÌ_È_ËÂÌÚ_443);}.cls-63{opacity:0.25;fill:url(#_ÂÁ_Ï_ÌÌ_È_ËÂÌÚ_442);}.cls-64{opacity:0.27;fill:url(#_ÂÁ_Ï_ÌÌ_È_ËÂÌÚ_441);}.cls-65{opacity:0.29;fill:url(#_ÂÁ_Ï_ÌÌ_È_ËÂÌÚ_440);}.cls-66{opacity:0.31;fill:url(#_ÂÁ_Ï_ÌÌ_È_ËÂÌÚ_439);}.cls-67{opacity:0.33;fill:url(#_ÂÁ_Ï_ÌÌ_È_ËÂÌÚ_438);}.cls-68{opacity:0.35;fill:url(#_ÂÁ_Ï_ÌÌ_È_ËÂÌÚ_437);}.cls-69{opacity:0.37;fill:url(#_ÂÁ_Ï_ÌÌ_È_ËÂÌÚ_436);}.cls-70{opacity:0.39;fill:url(#_ÂÁ_Ï_ÌÌ_È_ËÂÌÚ_435);}.cls-71{opacity:0.41;fill:url(#_ÂÁ_Ï_ÌÌ_È_ËÂÌÚ_434);}.cls-72{opacity:0.43;fill:url(#_ÂÁ_Ï_ÌÌ_È_ËÂÌÚ_433);}.cls-73{opacity:0.45;fill:url(#_ÂÁ_Ï_ÌÌ_È_ËÂÌÚ_432);}.cls-74{opacity:0.47;fill:url(#_ÂÁ_Ï_ÌÌ_È_ËÂÌÚ_431);}.cls-75{opacity:0.49;fill:url(#_ÂÁ_Ï_ÌÌ_È_ËÂÌÚ_430);}.cls-76{opacity:0.51;fill:url(#_ÂÁ_Ï_ÌÌ_È_ËÂÌÚ_429);}.cls-77{opacity:0.53;fill:url(#_ÂÁ_Ï_ÌÌ_È_ËÂÌÚ_428);}.cls-78{opacity:0.55;fill:url(#_ÂÁ_Ï_ÌÌ_È_ËÂÌÚ_427);}.cls-79{opacity:0.57;fill:url(#_ÂÁ_Ï_ÌÌ_È_ËÂÌÚ_426);}.cls-80{opacity:0.59;fill:url(#_ÂÁ_Ï_ÌÌ_È_ËÂÌÚ_425);}.cls-81{opacity:0.61;fill:url(#_ÂÁ_Ï_ÌÌ_È_ËÂÌÚ_424);}.cls-82{opacity:0.63;fill:url(#_ÂÁ_Ï_ÌÌ_È_ËÂÌÚ_423);}.cls-83{opacity:0.65;fill:url(#_ÂÁ_Ï_ÌÌ_È_ËÂÌÚ_422);}.cls-84{opacity:0.67;fill:url(#_ÂÁ_Ï_ÌÌ_È_ËÂÌÚ_421);}.cls-85{opacity:0.69;fill:url(#_ÂÁ_Ï_ÌÌ_È_ËÂÌÚ_420);}.cls-86{opacity:0.71;fill:url(#_ÂÁ_Ï_ÌÌ_È_ËÂÌÚ_419);}.cls-87{opacity:0.73;fill:url(#_ÂÁ_Ï_ÌÌ_È_ËÂÌÚ_418);}.cls-88{opacity:0.75;fill:url(#_ÂÁ_Ï_ÌÌ_È_ËÂÌÚ_417);}.cls-89{opacity:0.76;fill:url(#_ÂÁ_Ï_ÌÌ_È_ËÂÌÚ_416);}.cls-90{opacity:0.78;fill:url(#_ÂÁ_Ï_ÌÌ_È_ËÂÌÚ_415);}.cls-91{opacity:0.8;fill:url(#_ÂÁ_Ï_ÌÌ_È_ËÂÌÚ_414);}.cls-92{opacity:0.82;fill:url(#_ÂÁ_Ï_ÌÌ_È_ËÂÌÚ_413);}.cls-93{opacity:0.84;fill:url(#_ÂÁ_Ï_ÌÌ_È_ËÂÌÚ_412);}.cls-94{opacity:0.86;fill:url(#_ÂÁ_Ï_ÌÌ_È_ËÂÌÚ_411);}.cls-95{opacity:0.88;fill:url(#_ÂÁ_Ï_ÌÌ_È_ËÂÌÚ_410);}.cls-96{opacity:0.9;fill:url(#_ÂÁ_Ï_ÌÌ_È_ËÂÌÚ_409);}.cls-97{opacity:0.92;fill:url(#_ÂÁ_Ï_ÌÌ_È_ËÂÌÚ_408);}.cls-98{opacity:0.94;fill:url(#_ÂÁ_Ï_ÌÌ_È_ËÂÌÚ_407);}.cls-99{opacity:0.96;fill:url(#_ÂÁ_Ï_ÌÌ_È_ËÂÌÚ_406);}.cls-100{opacity:0.98;fill:url(#_ÂÁ_Ï_ÌÌ_È_ËÂÌÚ_405);}.cls-101{fill:url(#_ÂÁ_Ï_ÌÌ_È_ËÂÌÚ_1231);}.cls-102{fill:url(#_ÂÁ_Ï_ÌÌ_È_ËÂÌÚ_29);}.cls-103{fill:url(#_ÂÁ_Ï_ÌÌ_È_ËÂÌÚ_21);}.cls-104{fill:#f4b638;}.cls-105{fill:url(#_ÂÁ_Ï_ÌÌ_È_ËÂÌÚ_33);}.cls-106{fill:#bf8319;}</style><linearGradient id="linear-gradient" x1="-98.68" y1="59.73" x2="-136.63" y2="75.01" gradientTransform="translate(107.24 239.34) rotate(120)" gradientUnits="userSpaceOnUse"><stop offset="0" stop-color="#edd1b4"/><stop offset="1" stop-color="#ede0d1"/></linearGradient><linearGradient id="linear-gradient-2" x1="-110.04" y1="65.37" x2="-143.53" y2="78.85" xlink:href="#linear-gradient"/><linearGradient id="linear-gradient-3" x1="-120.4" y1="75.08" x2="-153.9" y2="88.56" xlink:href="#linear-gradient"/><linearGradient id="_ÂÁ_Ï_ÌÌ_È_ËÂÌÚ_9" x1="12.84" y1="76.6" x2="127.51" y2="76.6" gradientUnits="userSpaceOnUse"><stop offset="0" stop-color="#363638"/><stop offset="1" stop-color="#3a3a3c"/></linearGradient><linearGradient id="linear-gradient-4" x1="-137.5" y1="81.39" x2="-171.97" y2="95.26" xlink:href="#linear-gradient"/><linearGradient id="linear-gradient-5" x1="-144.05" y1="92.17" x2="-175.45" y2="104.81" xlink:href="#linear-gradient"/><linearGradient id="linear-gradient-6" x1="-153.15" y1="95.28" x2="-182.5" y2="107.09" xlink:href="#linear-gradient"/><clipPath id="clip-path"><path class="cls-1" d="M58.91,24.43,12.88,51a5.42,5.42,0,0,0-2.45,4.27l0,3.7L74.29,95.83l0-3.71a5.4,5.4,0,0,1,2.46-4.27l46-26.57Z"/></clipPath><linearGradient id="_ÂÁ_Ï_ÌÌ_È_ËÂÌÚ_56" x1="116.42" y1="57.57" x2="18.68" y2="57.57" gradientUnits="userSpaceOnUse"><stop offset="0" stop-color="#fbfbfb"/><stop offset="1" stop-color="#fbfbfb"/></linearGradient><linearGradient id="_ÂÁ_Ï_ÌÌ_È_ËÂÌÚ_453" x1="116.17" y1="57.57" x2="18.93" y2="57.57" gradientUnits="userSpaceOnUse"><stop offset="0" stop-color="#f8f8f8"/><stop offset="1" stop-color="#f7f7f7"/></linearGradient><linearGradient id="_ÂÁ_Ï_ÌÌ_È_ËÂÌÚ_452" x1="115.92" y1="57.57" x2="19.19" y2="57.57" gradientUnits="userSpaceOnUse"><stop offset="0" stop-color="#f4f4f4"/><stop offset="1" stop-color="#f2f2f2"/></linearGradient><linearGradient id="_ÂÁ_Ï_ÌÌ_È_ËÂÌÚ_451" x1="115.68" y1="57.57" x2="19.44" y2="57.57" gradientUnits="userSpaceOnUse"><stop offset="0" stop-color="#f0f0f0"/><stop offset="1" stop-color="#eee"/></linearGradient><linearGradient id="_ÂÁ_Ï_ÌÌ_È_ËÂÌÚ_450" x1="115.43" y1="57.57" x2="19.69" y2="57.57" gradientUnits="userSpaceOnUse"><stop offset="0" stop-color="#ececed"/><stop offset="1" stop-color="#eaeaea"/></linearGradient><linearGradient id="_ÂÁ_Ï_ÌÌ_È_ËÂÌÚ_449" x1="115.19" y1="57.57" x2="19.94" y2="57.57" gradientUnits="userSpaceOnUse"><stop offset="0" stop-color="#e9e9e9"/><stop offset="1" stop-color="#e6e6e6"/></linearGradient><linearGradient id="_ÂÁ_Ï_ÌÌ_È_ËÂÌÚ_448" x1="114.94" y1="57.57" x2="20.2" y2="57.57" gradientUnits="userSpaceOnUse"><stop offset="0" stop-color="#e5e5e5"/><stop offset="1" stop-color="#e1e1e2"/></linearGradient><linearGradient id="_ÂÁ_Ï_ÌÌ_È_ËÂÌÚ_447" x1="114.69" y1="57.57" x2="20.45" y2="57.57" gradientUnits="userSpaceOnUse"><stop offset="0" stop-color="#e1e1e2"/><stop offset="1" stop-color="#ddddde"/></linearGradient><linearGradient id="_ÂÁ_Ï_ÌÌ_È_ËÂÌÚ_446" x1="114.45" y1="57.57" x2="20.7" y2="57.57" gradientUnits="userSpaceOnUse"><stop offset="0" stop-color="#dedede"/><stop offset="1" stop-color="#d9d9d9"/></linearGradient><linearGradient id="_ÂÁ_Ï_ÌÌ_È_ËÂÌÚ_445" x1="114.2" y1="57.57" x2="20.95" y2="57.57" gradientUnits="userSpaceOnUse"><stop offset="0" stop-color="#dadadb"/><stop offset="1" stop-color="#d5d5d5"/></linearGradient><linearGradient id="_ÂÁ_Ï_ÌÌ_È_ËÂÌÚ_444" x1="113.95" y1="57.57" x2="21.21" y2="57.57" gradientUnits="userSpaceOnUse"><stop offset="0" stop-color="#d6d6d7"/><stop offset="1" stop-color="#d1d1d1"/></linearGradient><linearGradient id="_ÂÁ_Ï_ÌÌ_È_ËÂÌÚ_443" x1="113.71" y1="57.57" x2="21.46" y2="57.57" gradientUnits="userSpaceOnUse"><stop offset="0" stop-color="#d3d3d3"/><stop offset="1" stop-color="#cccccd"/></linearGradient><linearGradient id="_ÂÁ_Ï_ÌÌ_È_ËÂÌÚ_442" x1="113.46" y1="57.57" x2="21.71" y2="57.57" gradientUnits="userSpaceOnUse"><stop offset="0" stop-color="#cfcfd0"/><stop offset="1" stop-color="#c8c8c9"/></linearGradient><linearGradient id="_ÂÁ_Ï_ÌÌ_È_ËÂÌÚ_441" x1="113.22" y1="57.57" x2="21.96" y2="57.57" gradientUnits="userSpaceOnUse"><stop offset="0" stop-color="#cbcbcc"/><stop offset="1" stop-color="#c4c4c5"/></linearGradient><linearGradient id="_ÂÁ_Ï_ÌÌ_È_ËÂÌÚ_440" x1="112.97" y1="57.57" x2="22.22" y2="57.57" gradientUnits="userSpaceOnUse"><stop offset="0" stop-color="#c7c7c8"/><stop offset="1" stop-color="silver"/></linearGradient><linearGradient id="_ÂÁ_Ï_ÌÌ_È_ËÂÌÚ_439" x1="112.72" y1="57.57" x2="22.47" y2="57.57" gradientUnits="userSpaceOnUse"><stop offset="0" stop-color="#c4c4c5"/><stop offset="1" stop-color="#bcbcbc"/></linearGradient><linearGradient id="_ÂÁ_Ï_ÌÌ_È_ËÂÌÚ_438" x1="112.48" y1="57.57" x2="22.72" y2="57.57" gradientUnits="userSpaceOnUse"><stop offset="0" stop-color="#c0c0c1"/><stop offset="1" stop-color="#b7b7b8"/></linearGradient><linearGradient id="_ÂÁ_Ï_ÌÌ_È_ËÂÌÚ_437" x1="112.23" y1="57.57" x2="22.97" y2="57.57" gradientUnits="userSpaceOnUse"><stop offset="0" stop-color="#bcbcbd"/><stop offset="1" stop-color="#b3b3b4"/></linearGradient><linearGradient id="_ÂÁ_Ï_ÌÌ_È_ËÂÌÚ_436" x1="111.99" y1="57.57" x2="23.22" y2="57.57" gradientUnits="userSpaceOnUse"><stop offset="0" stop-color="#b9b9ba"/><stop offset="1" stop-color="#afafb0"/></linearGradient><linearGradient id="_ÂÁ_Ï_ÌÌ_È_ËÂÌÚ_435" x1="111.74" y1="57.57" x2="23.48" y2="57.57" gradientUnits="userSpaceOnUse"><stop offset="0" stop-color="#b5b5b6"/><stop offset="1" stop-color="#ababab"/></linearGradient><linearGradient id="_ÂÁ_Ï_ÌÌ_È_ËÂÌÚ_434" x1="111.49" y1="57.57" x2="23.73" y2="57.57" gradientUnits="userSpaceOnUse"><stop offset="0" stop-color="#b1b1b2"/><stop offset="1" stop-color="#a6a6a7"/></linearGradient><linearGradient id="_ÂÁ_Ï_ÌÌ_È_ËÂÌÚ_433" x1="111.25" y1="57.57" x2="23.98" y2="57.57" gradientUnits="userSpaceOnUse"><stop offset="0" stop-color="#adadaf"/><stop offset="1" stop-color="#a2a2a3"/></linearGradient><linearGradient id="_ÂÁ_Ï_ÌÌ_È_ËÂÌÚ_432" x1="111" y1="57.57" x2="24.23" y2="57.57" gradientUnits="userSpaceOnUse"><stop offset="0" stop-color="#aaaaab"/><stop offset="1" stop-color="#9e9e9f"/></linearGradient><linearGradient id="_ÂÁ_Ï_ÌÌ_È_ËÂÌÚ_431" x1="110.76" y1="57.57" x2="24.49" y2="57.57" gradientUnits="userSpaceOnUse"><stop offset="0" stop-color="#a6a6a7"/><stop offset="1" stop-color="#9a9a9b"/></linearGradient><linearGradient id="_ÂÁ_Ï_ÌÌ_È_ËÂÌÚ_430" x1="110.51" y1="57.57" x2="24.74" y2="57.57" gradientUnits="userSpaceOnUse"><stop offset="0" stop-color="#a2a2a4"/><stop offset="1" stop-color="#969697"/></linearGradient><linearGradient id="_ÂÁ_Ï_ÌÌ_È_ËÂÌÚ_429" x1="110.26" y1="57.57" x2="24.99" y2="57.57" gradientUnits="userSpaceOnUse"><stop offset="0" stop-color="#9f9fa0"/><stop offset="1" stop-color="#919192"/></linearGradient><linearGradient id="_ÂÁ_Ï_ÌÌ_È_ËÂÌÚ_428" x1="110.02" y1="57.57" x2="25.24" y2="57.57" gradientUnits="userSpaceOnUse"><stop offset="0" stop-color="#9b9b9d"/><stop offset="1" stop-color="#8d8d8e"/></linearGradient><linearGradient id="_ÂÁ_Ï_ÌÌ_È_ËÂÌÚ_427" x1="109.77" y1="57.57" x2="25.5" y2="57.57" gradientUnits="userSpaceOnUse"><stop offset="0" stop-color="#979799"/><stop offset="1" stop-color="#89898a"/></linearGradient><linearGradient id="_ÂÁ_Ï_ÌÌ_È_ËÂÌÚ_426" x1="109.53" y1="57.57" x2="25.75" y2="57.57" gradientUnits="userSpaceOnUse"><stop offset="0" stop-color="#949495"/><stop offset="1" stop-color="#858586"/></linearGradient><linearGradient id="_ÂÁ_Ï_ÌÌ_È_ËÂÌÚ_425" x1="109.28" y1="57.57" x2="26" y2="57.57" gradientUnits="userSpaceOnUse"><stop offset="0" stop-color="#909092"/><stop offset="1" stop-color="#818182"/></linearGradient><linearGradient id="_ÂÁ_Ï_ÌÌ_È_ËÂÌÚ_424" x1="109.03" y1="57.57" x2="26.25" y2="57.57" gradientUnits="userSpaceOnUse"><stop offset="0" stop-color="#8c8c8e"/><stop offset="1" stop-color="#7c7c7e"/></linearGradient><linearGradient id="_ÂÁ_Ï_ÌÌ_È_ËÂÌÚ_423" x1="108.79" y1="57.57" x2="26.51" y2="57.57" gradientUnits="userSpaceOnUse"><stop offset="0" stop-color="#88888a"/><stop offset="1" stop-color="#787879"/></linearGradient><linearGradient id="_ÂÁ_Ï_ÌÌ_È_ËÂÌÚ_422" x1="108.54" y1="57.57" x2="26.76" y2="57.57" gradientUnits="userSpaceOnUse"><stop offset="0" stop-color="#858587"/><stop offset="1" stop-color="#747475"/></linearGradient><linearGradient id="_ÂÁ_Ï_ÌÌ_È_ËÂÌÚ_421" x1="108.3" y1="57.57" x2="27.01" y2="57.57" gradientUnits="userSpaceOnUse"><stop offset="0" stop-color="#818183"/><stop offset="1" stop-color="#707071"/></linearGradient><linearGradient id="_ÂÁ_Ï_ÌÌ_È_ËÂÌÚ_420" x1="108.05" y1="57.57" x2="27.26" y2="57.57" gradientUnits="userSpaceOnUse"><stop offset="0" stop-color="#7d7d7f"/><stop offset="1" stop-color="#6b6b6d"/></linearGradient><linearGradient id="_ÂÁ_Ï_ÌÌ_È_ËÂÌÚ_419" x1="107.8" y1="57.57" x2="27.52" y2="57.57" gradientUnits="userSpaceOnUse"><stop offset="0" stop-color="#7a7a7c"/><stop offset="1" stop-color="#676769"/></linearGradient><linearGradient id="_ÂÁ_Ï_ÌÌ_È_ËÂÌÚ_418" x1="107.56" y1="57.57" x2="27.77" y2="57.57" gradientUnits="userSpaceOnUse"><stop offset="0" stop-color="#767678"/><stop offset="1" stop-color="#636364"/></linearGradient><linearGradient id="_ÂÁ_Ï_ÌÌ_È_ËÂÌÚ_417" x1="107.31" y1="57.57" x2="28.02" y2="57.57" gradientUnits="userSpaceOnUse"><stop offset="0" stop-color="#727274"/><stop offset="1" stop-color="#5f5f60"/></linearGradient><linearGradient id="_ÂÁ_Ï_ÌÌ_È_ËÂÌÚ_416" x1="107.07" y1="57.57" x2="28.27" y2="57.57" gradientUnits="userSpaceOnUse"><stop offset="0" stop-color="#6e6e71"/><stop offset="1" stop-color="#5b5b5c"/></linearGradient><linearGradient id="_ÂÁ_Ï_ÌÌ_È_ËÂÌÚ_415" x1="106.82" y1="57.57" x2="28.53" y2="57.57" gradientUnits="userSpaceOnUse"><stop offset="0" stop-color="#6b6b6d"/><stop offset="1" stop-color="#565658"/></linearGradient><linearGradient id="_ÂÁ_Ï_ÌÌ_È_ËÂÌÚ_414" x1="106.57" y1="57.57" x2="28.78" y2="57.57" gradientUnits="userSpaceOnUse"><stop offset="0" stop-color="#676769"/><stop offset="1" stop-color="#525254"/></linearGradient><linearGradient id="_ÂÁ_Ï_ÌÌ_È_ËÂÌÚ_413" x1="106.33" y1="57.57" x2="29.03" y2="57.57" gradientUnits="userSpaceOnUse"><stop offset="0" stop-color="#636366"/><stop offset="1" stop-color="#4e4e50"/></linearGradient><linearGradient id="_ÂÁ_Ï_ÌÌ_È_ËÂÌÚ_412" x1="106.08" y1="57.57" x2="29.28" y2="57.57" gradientUnits="userSpaceOnUse"><stop offset="0" stop-color="#606062"/><stop offset="1" stop-color="#4a4a4b"/></linearGradient><linearGradient id="_ÂÁ_Ï_ÌÌ_È_ËÂÌÚ_411" x1="105.84" y1="57.57" x2="29.53" y2="57.57" gradientUnits="userSpaceOnUse"><stop offset="0" stop-color="#5c5c5f"/><stop offset="1" stop-color="#464647"/></linearGradient><linearGradient id="_ÂÁ_Ï_ÌÌ_È_ËÂÌÚ_410" x1="105.59" y1="57.57" x2="29.79" y2="57.57" gradientUnits="userSpaceOnUse"><stop offset="0" stop-color="#58585b"/><stop offset="1" stop-color="#414143"/></linearGradient><linearGradient id="_ÂÁ_Ï_ÌÌ_È_ËÂÌÚ_409" x1="105.34" y1="57.57" x2="30.04" y2="57.57" gradientUnits="userSpaceOnUse"><stop offset="0" stop-color="#555557"/><stop offset="1" stop-color="#3d3d3f"/></linearGradient><linearGradient id="_ÂÁ_Ï_ÌÌ_È_ËÂÌÚ_408" x1="105.1" y1="57.57" x2="30.29" y2="57.57" gradientUnits="userSpaceOnUse"><stop offset="0" stop-color="#515154"/><stop offset="1" stop-color="#39393b"/></linearGradient><linearGradient id="_ÂÁ_Ï_ÌÌ_È_ËÂÌÚ_407" x1="104.85" y1="57.57" x2="30.54" y2="57.57" gradientUnits="userSpaceOnUse"><stop offset="0" stop-color="#4d4d50"/><stop offset="1" stop-color="#353537"/></linearGradient><linearGradient id="_ÂÁ_Ï_ÌÌ_È_ËÂÌÚ_406" x1="104.61" y1="57.57" x2="30.8" y2="57.57" gradientUnits="userSpaceOnUse"><stop offset="0" stop-color="#49494c"/><stop offset="1" stop-color="#303032"/></linearGradient><linearGradient id="_ÂÁ_Ï_ÌÌ_È_ËÂÌÚ_405" x1="104.36" y1="57.57" x2="31.05" y2="57.57" gradientUnits="userSpaceOnUse"><stop offset="0" stop-color="#464649"/><stop offset="1" stop-color="#2c2c2e"/></linearGradient><linearGradient id="_ÂÁ_Ï_ÌÌ_È_ËÂÌÚ_1231" x1="104.11" y1="57.57" x2="31.3" y2="57.57" gradientUnits="userSpaceOnUse"><stop offset="0" stop-color="#424245"/><stop offset="1" stop-color="#28282a"/></linearGradient><linearGradient id="_ÂÁ_Ï_ÌÌ_È_ËÂÌÚ_29" x1="39.96" y1="47.16" x2="100.57" y2="47.16" gradientUnits="userSpaceOnUse"><stop offset="0" stop-color="#151517"/><stop offset="1" stop-color="#28282a"/></linearGradient><linearGradient id="_ÂÁ_Ï_ÌÌ_È_ËÂÌÚ_21" x1="22.74" y1="27.61" x2="118.09" y2="27.61" gradientUnits="userSpaceOnUse"><stop offset="0" stop-color="#363638"/><stop offset="1" stop-color="#424245"/></linearGradient><linearGradient id="_ÂÁ_Ï_ÌÌ_È_ËÂÌÚ_33" x1="43.94" y1="73.21" x2="49.55" y2="73.21" gradientUnits="userSpaceOnUse"><stop offset="0" stop-color="#bf8319"/><stop offset="1" stop-color="#e2a52e"/></linearGradient></defs><title>Asset 1</title><g class="cls-2"><g id="Layer_2" data-name="Layer 2"><g id="_0" data-name="0"><g id="_3" data-name="3"><g class="cls-2"><g class="cls-2"><path class="cls-3" d="M74.22,173.82.85,131.46A2,2,0,0,1,0,129.64L73.4,172a2,2,0,0,0,.82,1.83Z"/></g><polygon class="cls-4" points="73.4 172 0.03 129.64 0 119.75 73.37 162.1 73.4 172"/><polygon class="cls-5" points="76.19 157.19 2.83 114.84 55.71 84.3 129.08 126.65 76.19 157.19"/><g class="cls-2"><path class="cls-6" d="M73.37,162.1,0,119.74a6.21,6.21,0,0,1,2.83-4.9l73.36,42.35a6.24,6.24,0,0,0-2.82,4.91Z"/></g><path class="cls-6" d="M76.24,173.62c-1.57.9-2.84.18-2.84-1.63l0-9.89a6.24,6.24,0,0,1,2.82-4.91l52.89-30.54,0,1.18-1.54.88-3.1,7.13,3.08,5.3,1.59.94v1Z"/></g><path class="cls-5" d="M74.34,172a1.17,1.17,0,0,0,.36,1,1.21,1.21,0,0,0,1.07-.2l53.36-30.72-1.54-.89-3.48-4.5,3.45-8L76.67,158A4.88,4.88,0,0,0,75,159.77a5,5,0,0,0-.7,2.32Z"/><path class="cls-7" d="M127.56,128.71,76.67,158A4.88,4.88,0,0,0,75,159.77a5,5,0,0,0-.7,2.32l0,9.76,53.25-30.66Z"/><path class="cls-8" d="M127.56,130.5v-1.79L76.67,158A4.88,4.88,0,0,0,75,159.77a5.78,5.78,0,0,0-.54,1.3Z"/><path class="cls-9" d="M84.74,158.51c-.57.32-1.23.67-1.94,1.08l-2.23,1.27-2.23,1.31-2,1.16L74.5,164.5s.76-.4,1.89-1l2-1.08,2.23-1.27,2.23-1.31c.71-.41,1.37-.82,1.94-1.16,1.14-.69,1.9-1.17,1.9-1.17S85.88,157.88,84.74,158.51Z"/><path class="cls-9" d="M107.11,149.24c-.57.32-1.23.68-1.94,1.09l-2.23,1.26-2.23,1.31-1.95,1.16-1.89,1.17s.76-.39,1.89-1l1.95-1.08,2.23-1.27,2.23-1.3,1.94-1.17c1.14-.69,1.9-1.17,1.9-1.17Z"/><path class="cls-9" d="M119.9,138.55l-2,1.08-2.23,1.27-2.22,1.31-2,1.16c-1.14.69-1.9,1.17-1.9,1.17s.76-.39,1.9-1l2-1.08,2.22-1.27,2.23-1.31c.72-.41,1.38-.82,2-1.16,1.14-.69,1.9-1.17,1.9-1.17S121,137.92,119.9,138.55Z"/><path class="cls-10" d="M120.38,128.43c-1.71-1-1.7-2.61,0-3.6.16-.09.17-.24,0-.33L59.69,89.23a.66.66,0,0,0-.58,0,6.88,6.88,0,0,1-6.22,0,.66.66,0,0,0-.58,0L12.05,112.47c-.16.1-.16.25,0,.34,1.71,1,1.7,2.61,0,3.6-.16.1-.17.24,0,.34C58.6,143.81,49.53,138.53,72.74,152a.6.6,0,0,0,.58,0,6.88,6.88,0,0,1,6.22,0,.6.6,0,0,0,.58,0l40.26-23.24C120.54,128.68,120.54,128.53,120.38,128.43ZM79.82,151.51a8.32,8.32,0,0,0-6.77,0L12.89,116.57c1.67-1.12,1.68-2.8,0-3.92L52.61,89.73a8.32,8.32,0,0,0,6.77,0l60.16,34.94c-1.67,1.13-1.68,2.8,0,3.92Z"/></g><path class="cls-11" d="M23.42,140.87v-4.35c0-.11.06-.13.16-.07l1.79,1a2.46,2.46,0,0,1,.88.81,1.93,1.93,0,0,1,.31,1.06v2.3c0,.37-.1.6-.31.69a1.11,1.11,0,0,1-.88-.2l-1.79-1A.28.28,0,0,1,23.42,140.87Zm1-.07.79.46q.24.13.33.09c.07,0,.1-.12.1-.27v-2.21a.69.69,0,0,0-.1-.39.88.88,0,0,0-.33-.29l-.79-.45c-.05,0-.08,0-.08,0v2.91A.14.14,0,0,0,24.42,140.8Z"/><path class="cls-11" d="M30,144.8l-2.37-1.37a.26.26,0,0,1-.16-.24v-4.36c0-.1.05-.12.16-.06L30,140.13a.28.28,0,0,1,.14.24v.49c0,.1-.05.13-.14.07l-1.52-.87q-.09-.06-.09,0V141a.15.15,0,0,0,.09.13l1.24.71a.27.27,0,0,1,.15.24v.5q0,.15-.15.06L28.44,142q-.09-.06-.09,0v1a.14.14,0,0,0,.09.13L30,144a.25.25,0,0,1,.14.23v.5C30.1,144.83,30.05,144.85,30,144.8Z"/><path class="cls-11" d="M30.79,144.09v-.15q0-.15.15-.06l.62.35a.27.27,0,0,1,.15.24v.06a.79.79,0,0,0,.11.44,1.08,1.08,0,0,0,.4.33l.34.2q.28.17.39.12c.08,0,.12-.14.12-.34v-.09a.65.65,0,0,0-.18-.42,1.72,1.72,0,0,0-.42-.38,6.74,6.74,0,0,1-.55-.4c-.19-.15-.37-.31-.54-.47a2.26,2.26,0,0,1-.43-.63,2.14,2.14,0,0,1-.17-.84v-.25c0-.38.11-.61.32-.69a1.06,1.06,0,0,1,.89.2l.72.41a2.55,2.55,0,0,1,.89.83,2,2,0,0,1,.32,1.06v.14q0,.15-.15.06l-.62-.35a.27.27,0,0,1-.15-.24v0a.83.83,0,0,0-.11-.45,1.08,1.08,0,0,0-.4-.33l-.28-.17c-.2-.11-.33-.15-.4-.12s-.11.16-.11.38v.14c0,.23.2.47.6.73a7.47,7.47,0,0,1,1.09.88,2.26,2.26,0,0,1,.43.63,2.08,2.08,0,0,1,.17.82v.24c0,.38-.11.61-.32.7a1.09,1.09,0,0,1-.89-.2L32,146a2.58,2.58,0,0,1-.88-.82A2,2,0,0,1,30.79,144.09Z"/><path class="cls-11" d="M35.77,143.64V148q0,.15-.15.06l-.62-.35a.27.27,0,0,1-.15-.24v-4.36q0-.15.15-.06l.62.35A.27.27,0,0,1,35.77,143.64Z"/><path class="cls-11" d="M38.64,149.81l-.77-.44a2.59,2.59,0,0,1-.88-.82,1.88,1.88,0,0,1-.31-1.06V145.2c0-.39.1-.62.31-.7a1,1,0,0,1,.88.2l.77.45a2.56,2.56,0,0,1,.88.81,2,2,0,0,1,.31,1.06v.21c0,.11,0,.13-.15.07l-.62-.35a.27.27,0,0,1-.15-.25v-.17a.67.67,0,0,0-.1-.39.9.9,0,0,0-.32-.28l-.47-.27q-.23-.14-.33-.09c-.06,0-.09.12-.09.27V148a.78.78,0,0,0,.09.39.94.94,0,0,0,.33.28l.47.27c.15.09.26.12.32.09s.1-.12.1-.27v-.46a.14.14,0,0,0-.08-.12l-.44-.25a.27.27,0,0,1-.15-.25v-.49q0-.15.15-.06l1.27.73a.29.29,0,0,1,.17.26v1.21c0,.38-.11.61-.31.7A1.08,1.08,0,0,1,38.64,149.81Z"/><path class="cls-11" d="M41.45,151.43l-.6-.34a.27.27,0,0,1-.15-.24v-4.36c0-.1,0-.12.15-.07l.54.32a.44.44,0,0,1,.21.22l1.46,3.59,0,0v-2.7q0-.15.15-.06l.6.34a.26.26,0,0,1,.16.24v4.36c0,.1,0,.12-.16.06l-.52-.3a.55.55,0,0,1-.24-.28l-1.45-3.53,0,0v2.69Q41.6,151.52,41.45,151.43Z"/><path class="cls-12" d="M80.42,161.07l-2.33,1.37c8.16,0,8.55,6,9.63,8.2l2.43-1.33S87.69,161.22,80.42,161.07Z"/><g id="_3-2" data-name="3"><g class="cls-2"><g class="cls-2"><path class="cls-13" d="M76.18,155.15,4.77,113.93A2,2,0,0,1,4,112.15l71.41,41.23a1.92,1.92,0,0,0,.81,1.77Z"/></g><polygon class="cls-14" points="75.37 153.38 3.96 112.15 3.94 107.12 75.34 148.34 75.37 153.38"/><polygon class="cls-12" points="78.09 143.56 6.69 102.34 58.16 72.62 129.57 113.84 78.09 143.56"/><g class="cls-2"><path class="cls-15" d="M75.34,148.34,3.94,107.12a6.06,6.06,0,0,1,2.75-4.78l71.4,41.22a6.13,6.13,0,0,0-2.75,4.78Z"/></g><path class="cls-15" d="M78.14,155c-1.53.88-2.76.18-2.77-1.57l0-5a6.13,6.13,0,0,1,2.75-4.78l51.48-29.72,0,1.15-1.5.85-3,6.94,3,.56,1.54.92v1Z"/></g><path class="cls-12" d="M76.29,153.37c0,.49.13.86.35,1a1.13,1.13,0,0,0,1-.19l51.93-29.9-1.49-.87-3.39.22,3.36-7.77L78.55,144.36a4.83,4.83,0,0,0-1.6,1.71,4.77,4.77,0,0,0-.69,2.27Z"/><path class="cls-16" d="M128.09,115.84,78.55,144.36a4.83,4.83,0,0,0-1.6,1.71,4.77,4.77,0,0,0-.69,2.27l0,4.9,51.83-29.85Z"/><path class="cls-8" d="M128.09,117.59v-1.75L78.55,144.36a4.83,4.83,0,0,0-1.6,1.71,5.28,5.28,0,0,0-.53,1.27Z"/></g><path class="cls-9" d="M92,141.08c-.57.32-1.23.67-1.94,1.08l-2.23,1.27-2.23,1.3-1.95,1.17c-1.14.69-1.9,1.17-1.9,1.17l1.9-1L85.6,145l2.23-1.27,2.23-1.31c.71-.41,1.37-.82,1.94-1.16,1.14-.69,1.9-1.17,1.9-1.17S93.14,140.45,92,141.08Z"/><path class="cls-17" d="M9.22,114.53l-.15-.09a.09.09,0,0,1-.05-.09v-3.18s0,0,.05,0l1.18.68a1.5,1.5,0,0,1,.53.5,1.21,1.21,0,0,1,.2.65v.6c0,.23-.07.37-.2.42a.6.6,0,0,1-.53-.11l-.93-.53s-.05,0-.05,0v1.14S9.25,114.55,9.22,114.53Zm.1-1.42.91.52c.16.09.28.12.36.08s.12-.14.12-.3v-.58a.84.84,0,0,0-.12-.45.91.91,0,0,0-.36-.34l-.91-.52s-.05,0-.05,0V113S9.29,113.09,9.32,113.11Z"/><path class="cls-17" d="M11.91,116.09l-.15-.09a.11.11,0,0,1,0-.09v-3.19s0,0,0,0l.15.09a.1.1,0,0,1,.06.09v1.41s0,0,0,.07l1.44.83s0,0,0,0v-1.41s0-.05.05,0l.15.09a.1.1,0,0,1,.06.09v3.19s0,.05-.06,0l-.15-.09a.11.11,0,0,1-.05-.09v-1.46s0,0,0-.07L12,114.58s0,0,0,0v1.46S12,116.11,11.91,116.09Z"/><path class="cls-17" d="M15.55,118.19l-.15-.09a.1.1,0,0,1-.06-.1v-1.18l-1-2.58s0-.06,0,0l.19.11a.2.2,0,0,1,.07.1l.82,2.16,0,0,.82-1.21s0,0,.07,0l.19.11s.05,0,0,.08l-1,1.42v1.18S15.58,118.21,15.55,118.19Z"/><path class="cls-17" d="M17.16,118.38v-.18s0,0,.06,0l.14.08a.1.1,0,0,1,.06.09v.17a.89.89,0,0,0,.5.8l.54.31c.33.19.49.12.49-.23v-.22a.77.77,0,0,0-.18-.46,2.69,2.69,0,0,0-.45-.44l-.53-.42a3,3,0,0,1-.45-.49,1,1,0,0,1-.18-.55v-.28c0-.23.06-.37.19-.42a.6.6,0,0,1,.53.11l.6.34a1.59,1.59,0,0,1,.53.5,1.21,1.21,0,0,1,.2.65v.14s0,0-.06,0L19,117.8a.1.1,0,0,1-.06-.09v-.13a.88.88,0,0,0-.49-.8l-.53-.3c-.33-.19-.5-.11-.5.24V117c0,.24.21.52.63.85.18.13.35.27.53.42a2.13,2.13,0,0,1,.45.5,1,1,0,0,1,.19.58v.25c0,.23-.07.37-.2.42a.6.6,0,0,1-.53-.11l-.61-.35a1.41,1.41,0,0,1-.53-.5A1.17,1.17,0,0,1,17.16,118.38Z"/><path class="cls-17" d="M20.35,117.71v3.19s0,0-.05,0l-.15-.09a.09.09,0,0,1,0-.09v-3.19s0,0,0,0l.15.09A.11.11,0,0,1,20.35,117.71Z"/><path class="cls-17" d="M22.57,122.24l-.65-.37a1.47,1.47,0,0,1-.52-.5,1.21,1.21,0,0,1-.2-.65v-1.85c0-.22.07-.37.2-.42s.3,0,.52.11l.65.37a1.59,1.59,0,0,1,.53.5,1.2,1.2,0,0,1,.19.65v.25s0,0-.06,0l-.14-.08a.12.12,0,0,1-.06-.1v-.24a.87.87,0,0,0-.12-.45,1,1,0,0,0-.37-.34l-.6-.35a.4.4,0,0,0-.36-.07q-.12.06-.12.3v1.83a.83.83,0,0,0,.12.44,1.2,1.2,0,0,0,.36.35l.6.34c.16.09.28.12.37.08s.12-.14.12-.3v-.25s0,0,.06,0l.14.08a.1.1,0,0,1,.06.09v.25c0,.23-.06.37-.19.43A.63.63,0,0,1,22.57,122.24Z"/><path class="cls-17" d="M24,122.35v-.19s0,0,.06,0l.15.08s.05,0,.05.09v.17a.88.88,0,0,0,.5.8l.54.31c.33.2.5.12.5-.23v-.21a.81.81,0,0,0-.19-.47,2.69,2.69,0,0,0-.45-.44l-.52-.42a2.3,2.3,0,0,1-.45-.49.92.92,0,0,1-.19-.55v-.28c0-.23.07-.37.2-.42s.3,0,.53.11l.59.34a1.5,1.5,0,0,1,.53.5,1.23,1.23,0,0,1,.2.65v.15s0,0-.06,0l-.15-.09a.11.11,0,0,1-.05-.09v-.12a.91.91,0,0,0-.5-.81l-.53-.3c-.33-.19-.5-.11-.5.24v.25c0,.24.21.52.64.85.17.13.35.27.52.42a2.13,2.13,0,0,1,.45.5,1,1,0,0,1,.19.58v.25c0,.23-.07.37-.2.43a.68.68,0,0,1-.53-.11l-.6-.35a1.44,1.44,0,0,1-.53-.51A1.18,1.18,0,0,1,24,122.35Z"/><g id="_3-3" data-name="3"><g class="cls-2"><g class="cls-2"><path class="cls-18" d="M73,141.32,1.54,100.09a1.93,1.93,0,0,1-.8-1.77l71.4,41.22a2,2,0,0,0,.81,1.78Z"/></g><polygon class="cls-19" points="72.14 139.54 0.74 98.32 0.71 93.29 72.12 134.51 72.14 139.54"/><polygon class="cls-20" points="74.87 129.73 3.46 88.51 54.94 58.79 126.34 100.01 74.87 129.73"/><g class="cls-2"><path class="cls-21" d="M72.12,134.51.71,93.29a6,6,0,0,1,2.75-4.78l71.41,41.22a6.06,6.06,0,0,0-2.75,4.78Z"/></g><path class="cls-21" d="M74.91,141.12c-1.52.88-2.76.18-2.77-1.58l0-5a6.06,6.06,0,0,1,2.75-4.78L126.34,100l0,1.14-1.5.86-3,6.94,3,.56,1.55.91v1Z"/></g><path class="cls-20" d="M73.06,139.54a.81.81,0,0,0,1.39.79l51.94-29.9-1.5-.87-3.39.22,3.36-7.77L75.33,130.53a4.68,4.68,0,0,0-1.61,1.71,4.61,4.61,0,0,0-.68,2.27Z"/><path class="cls-22" d="M124.86,102,75.33,130.53a4.68,4.68,0,0,0-1.61,1.71,4.61,4.61,0,0,0-.68,2.27l0,4.89,51.83-29.84Z"/><path class="cls-8" d="M124.86,103.75V102L75.33,130.53a4.68,4.68,0,0,0-1.61,1.71,5.72,5.72,0,0,0-.53,1.27Z"/><path class="cls-23" d="M117.87,101.75c-1.66-1-1.65-2.54,0-3.5.16-.1.16-.24,0-.33L58.8,63.59a.62.62,0,0,0-.56,0,6.68,6.68,0,0,1-6.05,0,.64.64,0,0,0-.57,0L12.44,86.22c-.16.09-.16.23,0,.32,1.66,1,1.65,2.54,0,3.51a.18.18,0,0,0,0,.33c45.33,26.34,36.51,21.2,59.09,34.32a.64.64,0,0,0,.57,0,6.65,6.65,0,0,1,6.05,0,.64.64,0,0,0,.57,0l39.18-22.62A.17.17,0,0,0,117.87,101.75ZM78.4,124.21a8.13,8.13,0,0,0-6.59,0C65.3,120.43,19.75,94,13.26,90.2c1.62-1.09,1.63-2.72,0-3.81L51.92,64.08a8.05,8.05,0,0,0,6.59,0l58.55,34c-1.63,1.1-1.64,2.72,0,3.82C113.34,104,83.77,121.11,78.4,124.21Z"/></g><path class="cls-9" d="M88.77,127.25c-.57.31-1.23.67-1.94,1.08L84.6,129.6l-2.23,1.3-2,1.17-1.89,1.17s.76-.4,1.89-1l2-1.08,2.23-1.27,2.23-1.31c.71-.41,1.37-.82,1.94-1.16,1.14-.69,1.9-1.17,1.9-1.17S89.91,126.62,88.77,127.25Z"/><path class="cls-24" d="M30.23,114.65l-.59-.34a1.59,1.59,0,0,1-.53-.5,1.17,1.17,0,0,1-.19-.65v-1.7c0-.23.06-.37.19-.42a.63.63,0,0,1,.53.11l.59.34a1.5,1.5,0,0,1,.53.5,1.21,1.21,0,0,1,.2.65v.24c0,.05,0,.06-.07,0l-.22-.13a.11.11,0,0,1-.07-.11v-.22a.75.75,0,0,0-.41-.67l-.51-.29c-.27-.16-.41-.09-.41.19v1.68a.74.74,0,0,0,.41.66l.51.29c.27.16.41.1.41-.19v-.22c0-.05,0-.06.07,0l.22.12a.15.15,0,0,1,.07.11v.24c0,.23-.07.37-.2.43A.65.65,0,0,1,30.23,114.65Z"/><path class="cls-24" d="M31.91,115.62l-.22-.13a.12.12,0,0,1-.07-.11v-3s0,0,.07,0l.22.12a.15.15,0,0,1,.07.11v1.29a.06.06,0,0,0,.05.07l1.21.71s0,0,0,0v-1.29s0,0,.07,0l.22.13a.12.12,0,0,1,.07.11v3s0,0-.07,0l-.22-.12a.15.15,0,0,1-.07-.11V115s0,0,0-.07l-1.21-.7s-.05,0-.05,0v1.33S32,115.64,31.91,115.62Z"/><path class="cls-24" d="M36,118l-1.55-.89a.13.13,0,0,1-.06-.11v-3s0-.06.06,0l1.55.89a.11.11,0,0,1,.06.1v.18q0,.08-.06,0l-1.21-.69s0,0,0,0v1a.1.1,0,0,0,0,.08l1.05.6a.12.12,0,0,1,.07.11v.18s0,0-.07,0l-1.05-.61s0,0,0,0v1s0,0,0,.07l1.21.7a.11.11,0,0,1,.06.11V118S36.08,118,36,118Z"/><path class="cls-24" d="M39,116.56l.4.23a.12.12,0,0,1,.07.1v3s0,.06-.07,0l-.22-.12a.15.15,0,0,1-.07-.11V117.1h0l-.76,1.49s0,0-.09,0l-.23-.14a.2.2,0,0,1-.09-.11L37.15,116h0v2.61s0,.06-.06,0l-.22-.13a.12.12,0,0,1-.07-.11v-3s0,0,.07,0l.4.23a.11.11,0,0,1,.06.07l.8,2.49,0,0,.8-1.57S39,116.54,39,116.56Z"/><path class="cls-24" d="M40.62,117.56v3s0,.06-.07,0l-.22-.13a.11.11,0,0,1-.06-.11v-3s0-.06.06,0l.22.12A.13.13,0,0,1,40.62,117.56Z"/><path class="cls-24" d="M41.39,120.37v-.16s0-.06.07,0l.22.13a.12.12,0,0,1,.07.1v.13a.77.77,0,0,0,.43.7l.44.25c.29.16.43.1.43-.2v-.17c0-.24-.19-.5-.58-.8a6,6,0,0,1-.49-.39,2,2,0,0,1-.42-.46,1.08,1.08,0,0,1-.17-.57v-.24c0-.22.06-.36.19-.42a.67.67,0,0,1,.54.12l.54.31a1.59,1.59,0,0,1,.53.5,1.18,1.18,0,0,1,.2.65v.12s0,.06-.07,0l-.22-.13a.11.11,0,0,1-.07-.11v-.08a.77.77,0,0,0-.43-.7l-.42-.24c-.29-.17-.44-.1-.44.21v.2a.77.77,0,0,0,.33.53l.32.26a4.57,4.57,0,0,1,.36.29c.12.1.23.21.33.31a1.28,1.28,0,0,1,.23.37.94.94,0,0,1,.1.43v.22c0,.23-.07.37-.2.42a.67.67,0,0,1-.53-.11l-.56-.33a1.42,1.42,0,0,1-.53-.5A1.1,1.1,0,0,1,41.39,120.37Z"/><path class="cls-24" d="M44.92,123.13,44.7,123a.12.12,0,0,1-.07-.11v-2.73s0,0-.05-.07l-.67-.38a.13.13,0,0,1-.07-.11v-.18s0-.06.07,0l1.79,1a.12.12,0,0,1,.08.11v.17c0,.05,0,.06-.08,0l-.67-.38s0,0,0,0v2.73C45,123.15,45,123.15,44.92,123.13Z"/><path class="cls-24" d="M46.53,124.06l-.22-.13a.11.11,0,0,1-.07-.11v-3s0-.06.07,0l1.13.65a1.59,1.59,0,0,1,.53.5,1.21,1.21,0,0,1,.2.65V123a.45.45,0,0,1-.13.38.39.39,0,0,1-.37,0v0l.57,1.52c0,.07,0,.08-.05,0l-.22-.13a.24.24,0,0,1-.12-.14l-.55-1.5-.65-.38s0,0,0,0V124S46.58,124.09,46.53,124.06Zm.12-1.49.74.43q.42.24.42-.18v-.43a.76.76,0,0,0-.42-.68l-.74-.42s0,0,0,0v1.2S46.62,122.55,46.65,122.57Z"/><path class="cls-24" d="M49.82,126l-.22-.13a.12.12,0,0,1-.07-.1v-1.12l-.93-2.44a0,0,0,0,1,0,0s0,0,0,0l.27.15a.21.21,0,0,1,.08.12l.71,1.89,0,0,.7-1.09s0,0,.08,0l.28.16c.05,0,.07.07,0,.1l-.94,1.36v1.11S49.87,126,49.82,126Z"/><g class="cls-2"><g class="cls-2"><path class="cls-25" d="M77.69,124.8,11.05,86.34a1.81,1.81,0,0,1-.75-1.66l66.64,38.47a1.78,1.78,0,0,0,.75,1.65Z"/></g><polygon class="cls-26" points="76.94 123.15 10.3 84.68 10.27 75.69 76.91 114.16 76.94 123.15"/><polygon class="cls-27" points="79.48 109.7 12.84 71.23 60.88 43.5 127.51 81.97 79.48 109.7"/><g class="cls-2"><path class="cls-28" d="M76.91,114.16,10.27,75.69a5.7,5.7,0,0,1,2.57-4.46L79.48,109.7a5.67,5.67,0,0,0-2.57,4.46Z"/></g><path class="cls-28" d="M79.52,124.62c-1.43.82-2.58.17-2.58-1.47l0-9a5.67,5.67,0,0,1,2.57-4.46l48-27.73,0,1.06-1.4.8-2.81,6.48,2.79,4.81,1.44.85v.92Z"/></g><path class="cls-29" d="M77.79,123.15a1,1,0,0,0,.33.91,1.08,1.08,0,0,0,1-.18L127.55,96l-1.39-.81L123,91.08l3.14-7.25L79.91,110.45a4.32,4.32,0,0,0-1.5,1.6,4.38,4.38,0,0,0-.64,2.11Z"/><path class="cls-30" d="M126.13,83.83,79.91,110.45a4.32,4.32,0,0,0-1.5,1.6,4.38,4.38,0,0,0-.64,2.11l0,8.86,48.37-27.85Z"/><path class="cls-8" d="M126.13,85.46V83.83L79.91,110.45a4.32,4.32,0,0,0-1.5,1.6,4.74,4.74,0,0,0-.5,1.17Z"/><path class="cls-9" d="M87.24,110.9c-.52.29-1.12.61-1.77,1l-2,1.16-2,1.18-1.76,1.06-1.73,1.06,1.73-.92,1.76-1,2-1.15,2-1.19c.65-.37,1.25-.74,1.77-1,1-.63,1.72-1.07,1.72-1.07S88.27,110.33,87.24,110.9Z"/><path class="cls-31" d="M84,112.79l-2.51,1.47c8.76,0,14.2,9.88,16.63,12.45l2.61-1.43S93.1,113.36,84,112.79Z"/><path class="cls-32" d="M119.61,83.58c-1.55-.9-1.54-2.37,0-3.27.15-.08.16-.22,0-.3L64.49,48A.55.55,0,0,0,64,48a6.25,6.25,0,0,1-5.65,0,.55.55,0,0,0-.53,0L21.22,69.09c-.15.08-.15.22,0,.3,1.55.9,1.54,2.37,0,3.27-.15.09-.15.23,0,.31,42.3,24.58,34.07,19.78,55.15,32a.58.58,0,0,0,.53,0,6.25,6.25,0,0,1,5.65,0,.56.56,0,0,0,.52,0l36.57-21.11C119.76,83.81,119.76,83.67,119.61,83.58Zm-36.84,21a7.53,7.53,0,0,0-6.15,0L22,72.81c1.51-1,1.53-2.54,0-3.56L58.06,48.43a7.57,7.57,0,0,0,6.15,0l54.64,31.74c-1.52,1-1.53,2.54,0,3.56Z"/><g class="cls-33"><path class="cls-34" d="M26.48,91.55l-.4-.23a.17.17,0,0,1-.1-.16V88.32c0-.07,0-.08.1,0l1.15.66a1.68,1.68,0,0,1,.58.54,1.28,1.28,0,0,1,.2.68v.46c0,.24-.07.4-.2.45s-.33,0-.58-.13l-.59-.34s-.06,0-.06,0v.89C26.58,91.58,26.55,91.59,26.48,91.55Zm.15-1.48.5.29c.1.06.18.08.22.06s.06-.08.06-.18v-.4a.49.49,0,0,0-.06-.25.71.71,0,0,0-.22-.18l-.5-.29s-.05,0-.05,0V90A.1.1,0,0,0,26.63,90.07Z"/><path class="cls-34" d="M29,93l-.4-.23a.17.17,0,0,1-.1-.16V89.77c0-.07,0-.08.1,0l1.12.65a1.66,1.66,0,0,1,.58.53,1.27,1.27,0,0,1,.21.7V92c0,.35-.14.51-.42.46v0l.51,1.35c0,.09,0,.12-.08.07l-.39-.22L30,93.57a.23.23,0,0,1-.06-.12l-.48-1.3L29.15,92s-.06,0-.06,0v1C29.09,93,29.06,93,29,93Zm.15-1.51.47.26a.34.34,0,0,0,.22.07c.05,0,.07-.07.07-.17v-.37a.43.43,0,0,0-.07-.25.72.72,0,0,0-.22-.2l-.47-.26s-.05,0-.05,0v.81A.11.11,0,0,0,29.14,91.49Z"/><path class="cls-34" d="M32.34,94.94l-.53-.31a1.54,1.54,0,0,1-.57-.53,1.22,1.22,0,0,1-.21-.69v-1.5c0-.25.07-.4.21-.46a.7.7,0,0,1,.57.14l.53.3a1.69,1.69,0,0,1,.58.54,1.22,1.22,0,0,1,.21.69v1.5q0,.38-.21.45C32.79,95.13,32.59,95.08,32.34,94.94Zm-.43-.77.33.19c.11.06.18.08.22.06s.06-.08.06-.18V92.8a.46.46,0,0,0-.06-.25.53.53,0,0,0-.22-.19l-.33-.2a.38.38,0,0,0-.22-.06s-.06.08-.06.18v1.45a.49.49,0,0,0,.06.25A.7.7,0,0,0,31.91,94.17Z"/><path class="cls-34" d="M34.93,96.43l-.5-.29a1.66,1.66,0,0,1-.58-.53,1.21,1.21,0,0,1-.2-.69v-1.5c0-.25.06-.4.2-.46a.71.71,0,0,1,.58.14l.5.29a1.54,1.54,0,0,1,.57.53,1.22,1.22,0,0,1,.21.69v.14c0,.07,0,.09-.1,0l-.41-.24a.17.17,0,0,1-.09-.16v-.11A.46.46,0,0,0,35,94a.56.56,0,0,0-.21-.19l-.31-.18c-.1,0-.17-.07-.21,0s-.06.07-.06.17v1.45a.49.49,0,0,0,.06.25.56.56,0,0,0,.21.19l.31.17q.15.09.21.06s.07-.08.07-.18v-.29a.1.1,0,0,0-.06-.09l-.28-.16a.17.17,0,0,1-.1-.16v-.32c0-.07,0-.08.1,0l.83.48a.2.2,0,0,1,.11.17v.79q0,.38-.21.45C35.37,96.62,35.18,96.58,34.93,96.43Z"/><path class="cls-34" d="M36.78,97.5l-.41-.23a.18.18,0,0,1-.09-.16V94.26c0-.06,0-.08.09,0l1.13.65a1.59,1.59,0,0,1,.58.54,1.27,1.27,0,0,1,.21.69v.37c0,.36-.14.52-.42.47v0l.5,1.35c0,.09,0,.11-.08.06l-.38-.22a.31.31,0,0,1-.12-.09.23.23,0,0,1-.07-.11l-.47-1.3-.32-.18s0,0,0,0v1C36.88,97.52,36.84,97.54,36.78,97.5ZM36.93,96l.46.27a.29.29,0,0,0,.23.06s.07-.07.07-.16v-.37a.49.49,0,0,0-.07-.25.65.65,0,0,0-.23-.2l-.46-.27s0,0,0,0v.82A.08.08,0,0,0,36.93,96Z"/><path class="cls-34" d="M39.18,98.89l-.45-.26c-.06,0-.08-.08-.06-.14l.75-2.41s.07-.06.14,0l.63.37a.23.23,0,0,1,.14.18l.75,3.28c0,.07,0,.1,0,.06l-.46-.26a.22.22,0,0,1-.07-.06.62.62,0,0,1,0-.1l-.13-.59-.92-.54-.14.45a.06.06,0,0,1,0,.06Zm.69-2.08L39.53,98l.7.41-.34-1.57Z"/><path class="cls-34" d="M43.53,98.35l.7.41a.16.16,0,0,1,.1.15v2.85c0,.07,0,.08-.1,0l-.39-.22a.17.17,0,0,1-.1-.16V99.18l0,0-.48,1.31s-.06.06-.12,0l-.4-.23a.28.28,0,0,1-.12-.16l-.49-1.88h0v2.25s0,.06,0,.07l-.08,0-.39-.22a.19.19,0,0,1-.1-.16V97.28c0-.06,0-.08.1,0l.71.41a.19.19,0,0,1,.09.12l.5,2h0l.51-1.37S43.48,98.32,43.53,98.35Z"/><path class="cls-34" d="M47,100.34l.7.4a.19.19,0,0,1,.1.16v2.85c0,.06,0,.08-.1,0l-.39-.23a.17.17,0,0,1-.1-.15v-2.25h0l-.48,1.31c0,.05-.06.06-.12,0l-.4-.23a.23.23,0,0,1-.12-.16l-.49-1.87,0,0v2.25s0,.06,0,.07,0,0-.08,0l-.39-.23a.19.19,0,0,1-.1-.15V99.27c0-.07,0-.08.1,0l.71.4a.27.27,0,0,1,.09.12l.5,2,0,0,.51-1.38S46.92,100.31,47,100.34Z"/><path class="cls-34" d="M49,101.61v2.85c0,.07,0,.08-.1,0l-.4-.23a.17.17,0,0,1-.1-.16v-2.84c0-.07,0-.08.1,0l.4.23A.17.17,0,0,1,49,101.61Z"/><path class="cls-34" d="M50.14,105.21l-.39-.22a.17.17,0,0,1-.1-.16V102c0-.06,0-.08.1,0l.35.21a.32.32,0,0,1,.14.14l.95,2.35h0v-1.76c0-.07,0-.08.1,0l.39.23a.17.17,0,0,1,.1.16v2.85c0,.06,0,.08-.1,0l-.34-.2a.34.34,0,0,1-.15-.18l-1-2.31h0v1.75C50.24,105.24,50.21,105.25,50.14,105.21Z"/><path class="cls-34" d="M53.66,107.24l-.51-.29a1.54,1.54,0,0,1-.57-.53,1.22,1.22,0,0,1-.21-.69v-1.5c0-.25.07-.4.21-.46a.7.7,0,0,1,.57.14l.51.29a1.71,1.71,0,0,1,.57.53,1.29,1.29,0,0,1,.2.69v.14c0,.07,0,.09-.1,0l-.4-.23a.19.19,0,0,1-.1-.17v-.11a.49.49,0,0,0-.06-.25.56.56,0,0,0-.21-.19l-.31-.18c-.1,0-.17-.07-.21,0s-.07.07-.07.17v1.45a.39.39,0,0,0,.07.25.56.56,0,0,0,.21.19l.31.18c.1,0,.17.07.21,0s.06-.07.06-.18v-.29a.11.11,0,0,0,0-.09l-.29-.16a.19.19,0,0,1-.1-.16v-.32c0-.07,0-.08.1,0l.83.48a.18.18,0,0,1,.11.17v.79c0,.25-.07.4-.2.45A.64.64,0,0,1,53.66,107.24Z"/></g><g class="cls-2"><g class="cls-2"><path class="cls-35" d="M71.31,109.52,3,70.1a1.87,1.87,0,0,1-.77-1.7l68.31,39.43a1.84,1.84,0,0,0,.76,1.69Z"/></g><polygon class="cls-36" points="70.55 107.83 2.24 68.4 2.22 64.44 70.52 103.86 70.55 107.83"/><polygon class="cls-37" points="73.15 99.3 4.85 59.87 54.08 31.44 122.39 70.87 73.15 99.3"/><g class="cls-2"><path class="cls-38" d="M70.52,103.86,2.22,64.44a5.79,5.79,0,0,1,2.63-4.57L73.15,99.3a5.79,5.79,0,0,0-2.63,4.56Z"/></g><path class="cls-38" d="M73.19,109.34c-1.46.84-2.64.17-2.64-1.51l0-4a5.79,5.79,0,0,1,2.63-4.56l49.24-28.43V72l-1.43.82-2.88,6.64L121,79.1l1.48.88v.93Z"/></g><path class="cls-37" d="M71.42,107.83c0,.47.13.82.34.93s.58.06,1-.18L122.43,80,121,79.15l-3.24,1.06L121,72.78,73.59,100.06a4.54,4.54,0,0,0-1.54,1.64,4.49,4.49,0,0,0-.65,2.16Z"/><path class="cls-39" d="M121,72.78,73.59,100.06a4.54,4.54,0,0,0-1.54,1.64,4.49,4.49,0,0,0-.65,2.16l0,3.84L121,79.15Z"/><path class="cls-8" d="M121,74.45V72.78L73.59,100.06a4.54,4.54,0,0,0-1.54,1.64,4.93,4.93,0,0,0-.5,1.2Z"/><path class="cls-9" d="M81.11,100.52c-.53.3-1.15.63-1.81,1l-2.08,1.18-2.07,1.22L73.34,105c-1.06.64-1.77,1.09-1.77,1.09s.71-.37,1.77-.95l1.81-1L77.22,103l2.08-1.21,1.81-1.09c1.06-.64,1.76-1.09,1.76-1.09Z"/><path class="cls-40" d="M114.29,72.52c-1.59-.92-1.59-2.43,0-3.35.15-.09.16-.22,0-.31L57.79,36a.59.59,0,0,0-.55,0,6.4,6.4,0,0,1-5.78,0,.59.59,0,0,0-.55,0L13.43,57.66c-.15.09-.14.23,0,.32,1.59.92,1.58,2.43,0,3.35-.15.09-.16.23,0,.32C56.77,86.84,48.33,81.92,69.93,94.48a.63.63,0,0,0,.55,0,6.4,6.4,0,0,1,5.78,0,.63.63,0,0,0,.55,0c17.28-10,19.64-11.35,37.48-21.64A.17.17,0,0,0,114.29,72.52ZM76.53,94a7.75,7.75,0,0,0-6.31,0l-56-32.53c1.55-1,1.56-2.6,0-3.65l37-21.34a7.69,7.69,0,0,0,6.3,0l56,32.53c-1.56,1-1.57,2.61,0,3.65Z"/><g class="cls-33"><path class="cls-41" d="M12.53,71.1l.34.19a.12.12,0,0,1,.06.1v2.54s0,0-.06,0l-.18-.11a.1.1,0,0,1-.06-.09v-2.2h0L12,72.8s0,0-.07,0l-.2-.12a.13.13,0,0,1-.07-.09l-.66-2h0v2.2s0,0-.06,0l-.18-.1a.12.12,0,0,1-.06-.1V70.08s0,0,.06,0l.34.2a.1.1,0,0,1,0,.06l.68,2.11h0l.67-1.32S12.51,71.09,12.53,71.1Z"/><path class="cls-41" d="M13.61,74.39l-.2-.12a.06.06,0,0,1,0-.08l.77-2.1s0,0,.08,0l.3.17a.16.16,0,0,1,.08.1l.77,3s0,.06,0,0l-.22-.12a.13.13,0,0,1,0-.09l-.2-.72-1-.58-.19.49S13.64,74.4,13.61,74.39Zm.75-1.92-.42,1.18.87.51-.43-1.68Z"/><path class="cls-41" d="M16.47,76l-.19-.11a.1.1,0,0,1-.06-.09v-2.3a.07.07,0,0,0,0-.06l-.56-.32a.12.12,0,0,1-.06-.1V72.9s0,0,.06,0l1.51.87a.12.12,0,0,1,.06.1V74s0,0-.06,0l-.57-.33s0,0,0,0V76S16.5,76.05,16.47,76Z"/><path class="cls-41" d="M17.83,76.82l-.19-.11a.1.1,0,0,1-.06-.09V74.07s0,0,.06,0l.19.11a.1.1,0,0,1,.06.09v1.09a.07.07,0,0,0,0,.06L19,76s0,0,0,0V74.89s0,0,.06,0l.19.11a.1.1,0,0,1,.06.09v2.55s0,0-.06,0l-.19-.1a.12.12,0,0,1-.06-.1V76.32a.05.05,0,0,0,0-.06l-1-.6s0,0,0,0v1.11S17.87,76.84,17.83,76.82Z"/><path class="cls-41" d="M21.31,78.83,20,78.08A.12.12,0,0,1,20,78V75.44s0,0,.06,0l1.3.75a.1.1,0,0,1,.06.09v.15s0,0-.06,0l-1-.58s0,0,0,0v.84s0,0,0,.06l.89.51a.1.1,0,0,1,.06.09v.15s0,0-.06,0L20.29,77s0,0,0,0v.89s0,0,0,.06l1,.58a.12.12,0,0,1,.06.09v.15S21.35,78.85,21.31,78.83Z"/><path class="cls-41" d="M23.81,77.61l.33.19a.12.12,0,0,1,.06.09v2.55s0,0-.06,0l-.18-.1a.1.1,0,0,1-.06-.09v-2.2h0l-.65,1.25s0,0-.07,0l-.2-.11a.15.15,0,0,1-.07-.1l-.65-2h0v2.2s0,0-.05,0L22,79.22a.11.11,0,0,1,0-.09V76.59s0,0,0,0l.34.2a.1.1,0,0,1,.05.06l.68,2.1,0,0,.68-1.33S23.78,77.59,23.81,77.61Z"/><path class="cls-41" d="M24.89,80.89l-.21-.12s-.05,0,0-.07l.78-2.1s0,0,.08,0l.29.18a.14.14,0,0,1,.08.1l.78,3c0,.05,0,.06,0,0l-.21-.12a.15.15,0,0,1-.06-.09L26.15,81l-1-.58-.19.49S24.92,80.91,24.89,80.89ZM25.64,79l-.43,1.18.87.5L25.65,79Z"/><path class="cls-41" d="M27.74,82.54l-.19-.11a.1.1,0,0,1-.06-.09V80a.07.07,0,0,0,0-.06l-.56-.33a.1.1,0,0,1-.06-.09v-.15s0,0,.06,0l1.51.87a.12.12,0,0,1,.06.1v.14s0,0-.06,0l-.56-.33s0,0,0,0v2.3S27.78,82.56,27.74,82.54Z"/><path class="cls-41" d="M29.18,80.77v2.54s0,0-.06,0l-.19-.11a.11.11,0,0,1-.05-.09V80.59s0,0,.05,0l.19.11A.1.1,0,0,1,29.18,80.77Z"/><path class="cls-41" d="M30.92,84.38l-.5-.29a1.19,1.19,0,0,1-.44-.42,1,1,0,0,1-.17-.55V81.69c0-.19.06-.31.17-.36a.54.54,0,0,1,.44.1l.5.29a1.3,1.3,0,0,1,.45.42,1,1,0,0,1,.16.54v.21s0,0-.05,0l-.19-.11a.1.1,0,0,1-.06-.09v-.19a.6.6,0,0,0-.35-.56l-.42-.25c-.23-.13-.35-.07-.35.17v1.41a.63.63,0,0,0,.35.56l.42.24c.24.14.35.08.35-.16v-.19s0,0,.06,0l.19.1a.14.14,0,0,1,.05.1v.2c0,.19-.05.31-.16.36A.56.56,0,0,1,30.92,84.38Z"/><path class="cls-41" d="M32.06,84.42v-.13s0,0,.06,0l.19.11a.09.09,0,0,1,0,.09v.1a.67.67,0,0,0,.37.59l.37.21c.24.14.37.09.37-.17v-.14c0-.2-.17-.42-.5-.67l-.41-.33a1.44,1.44,0,0,1-.35-.39.85.85,0,0,1-.15-.48V83c0-.19.06-.31.17-.36a.56.56,0,0,1,.45.1l.45.26a1.24,1.24,0,0,1,.45.43,1,1,0,0,1,.17.54v.1s0,.06-.06,0L33.5,84a.14.14,0,0,1,0-.1v-.07a.65.65,0,0,0-.37-.59l-.35-.2c-.25-.15-.37-.09-.37.18v.16a.63.63,0,0,0,.28.45l.27.22c.1.07.2.16.3.24l.28.27a1.1,1.1,0,0,1,.2.31.92.92,0,0,1,.07.36v.19c0,.19,0,.3-.16.35a.54.54,0,0,1-.45-.09l-.47-.28a1.3,1.3,0,0,1-.45-.42A1,1,0,0,1,32.06,84.42Z"/></g><g class="cls-2"><g class="cls-2"><path class="cls-42" d="M75,97.41,11.17,60.56A1.74,1.74,0,0,1,10.45,59L74.29,95.83A1.71,1.71,0,0,0,75,97.41Z"/></g><polygon class="cls-43" points="74.29 95.83 10.45 58.98 10.43 55.27 74.27 92.12 74.29 95.83"/><polygon class="cls-44" points="76.73 87.85 12.88 51 58.91 24.43 122.75 61.28 76.73 87.85"/><g class="cls-2"><path class="cls-45" d="M74.27,92.12,10.43,55.27A5.42,5.42,0,0,1,12.88,51L76.73,87.85a5.4,5.4,0,0,0-2.46,4.27Z"/></g><path class="cls-45" d="M76.77,97.24c-1.37.79-2.47.16-2.48-1.41l0-3.71a5.4,5.4,0,0,1,2.46-4.27l46-26.57v1l-1.34.77-2.69,6.2L121.4,69l1.39.81v.88Z"/></g><path class="cls-44" d="M75.11,95.83c0,.43.12.76.32.87s.54,0,.93-.17L122.79,69.8,121.45,69l-3,1,3-6.94L77.14,88.56A4.31,4.31,0,0,0,75.7,90.1a4.22,4.22,0,0,0-.61,2Z"/><path class="cls-46" d="M121.42,63.07,77.14,88.56A4.31,4.31,0,0,0,75.7,90.1a4.22,4.22,0,0,0-.61,2l0,3.58L121.45,69Z"/><path class="cls-8" d="M121.43,64.63V63.07L77.14,88.56A4.31,4.31,0,0,0,75.7,90.1a4.69,4.69,0,0,0-.47,1.12Z"/><path class="cls-9" d="M89.92,85.24c-.5.27-1.08.58-1.7.94l-1.94,1.1-1.94,1.14-1.69,1c-1,.6-1.65,1-1.65,1s.66-.34,1.65-.89l1.69-.94,1.94-1.1,1.94-1.14,1.7-1c1-.6,1.65-1,1.65-1S90.91,84.69,89.92,85.24Z"/><path class="cls-32" d="M115.18,62.83c-1.49-.87-1.48-2.27,0-3.13.14-.09.15-.22,0-.3L62.37,28.71a.57.57,0,0,0-.51,0,6,6,0,0,1-5.41,0,.57.57,0,0,0-.51,0l-35,20.23a.15.15,0,0,0,0,.29c1.49.87,1.48,2.27,0,3.14-.15.08-.15.21,0,.29,40.52,23.55,32.64,19,52.83,30.69a.57.57,0,0,0,.51,0,5.93,5.93,0,0,1,5.41,0,.55.55,0,0,0,.5,0l35-20.23A.15.15,0,0,0,115.18,62.83ZM79.88,82.91a7.24,7.24,0,0,0-5.89,0L21.64,52.51a1.89,1.89,0,0,0,0-3.42L56.21,29.15a7.2,7.2,0,0,0,5.89,0l52.35,30.41c-1.45,1-1.46,2.43,0,3.41Z"/><path class="cls-47" d="M86.06,87.57l-1.8,1.06c6.3,0,7.38,6.86,8.27,9.2l1.88-1S92.63,88,86.06,87.57Z"/><g class="cls-33"><path class="cls-34" d="M20.53,64.35l-1.31-.76a.07.07,0,0,1,0-.07V61s0-.05,0,0l.12.07a.08.08,0,0,1,0,.08v2.38s0,0,0,.06l1.11.64s0,0,0,.07v.1S20.57,64.37,20.53,64.35Z"/><path class="cls-34" d="M21.27,62.17v2.56s0,0-.05,0l-.12-.07a.1.1,0,0,1,0-.07V62.05s0,0,0,0l.12.07A.09.09,0,0,1,21.27,62.17Z"/><path class="cls-34" d="M22.57,65.53l-.12-.07a.08.08,0,0,1,0-.08V63a.1.1,0,0,0,0-.07l-.6-.34a.08.08,0,0,1-.05-.08v-.09s0,0,.05,0l1.49.86a.1.1,0,0,1,0,.08v.09s0,0,0,0l-.6-.35s-.05,0-.05,0V65.5S22.6,65.54,22.57,65.53Z"/><path class="cls-34" d="M25.05,67l-1.28-.74a.08.08,0,0,1,0-.07V63.59s0,0,0,0l1.28.74s.05,0,.05.07v.1s0,0-.05,0L24,63.87s0,0,0,0v.95a.05.05,0,0,0,0,.06l1,.55a.09.09,0,0,1,0,.08v.09s0,0,0,0l-1-.55s0,0,0,0v1a.08.08,0,0,0,0,.07l1.07.61a.1.1,0,0,1,.05.08v.09S25.08,67,25.05,67Z"/><path class="cls-34" d="M25.88,67.44l-.12-.07a.08.08,0,0,1,0-.07V64.74s0,0,0,0l.95.54a1.18,1.18,0,0,1,.42.41.91.91,0,0,1,.16.52v.39a.37.37,0,0,1-.12.32.35.35,0,0,1-.32,0v0l.49,1.32s0,.06,0,0l-.13-.08a.18.18,0,0,1-.08-.09l-.49-1.32L26,66.4s0,0,0,0v1S25.91,67.46,25.88,67.44ZM26,66.22l.72.41a.32.32,0,0,0,.29.07c.07,0,.1-.11.1-.24v-.39a.65.65,0,0,0-.1-.36.78.78,0,0,0-.29-.28L26,65s0,0,0,0v1.13A.07.07,0,0,0,26,66.22Z"/><path class="cls-34" d="M27.86,68.58l-.13-.07s0,0,0-.07l.83-2.08s0,0,.06,0l.19.11a.16.16,0,0,1,.06.08l.82,3s0,.05,0,0l-.13-.08a.09.09,0,0,1-.05-.08l-.23-.79L28.14,68l-.22.53S27.89,68.6,27.86,68.58Zm.81-2-.47,1.26,1,.56-.48-1.81Z"/><path class="cls-34" d="M30.72,70.23l-.12-.07s-.05,0-.05-.07V67.7a.05.05,0,0,0,0-.06l-.6-.35s-.05,0-.05-.07v-.1s0,0,.05,0L31.4,68a.1.1,0,0,1,.05.08v.09s0,0-.05,0l-.6-.35s0,0,0,0v2.39S30.74,70.25,30.72,70.23Z"/><path class="cls-34" d="M33.32,69.07l.11.07a.08.08,0,0,1,0,.07v2c0,.18,0,.29-.16.34a.52.52,0,0,1-.42-.09l-.47-.27a1.16,1.16,0,0,1-.42-.4,1,1,0,0,1-.16-.52v-2s0,0,0,0l.12.07a.08.08,0,0,1,0,.08v2a.65.65,0,0,0,.1.36.87.87,0,0,0,.29.28l.43.24c.12.08.22.1.29.06s.1-.11.1-.24v-2S33.29,69.05,33.32,69.07Z"/><path class="cls-34" d="M34.32,72.31l-.12-.07a.07.07,0,0,1,0-.07V69.61s0,0,0,0l.94.55a1.11,1.11,0,0,1,.43.4.93.93,0,0,1,.16.52v.39a.37.37,0,0,1-.12.32.36.36,0,0,1-.32,0v0l.49,1.33s0,0,0,0l-.13-.08a.16.16,0,0,1-.07-.09l-.49-1.32-.65-.38s0,0,0,0v1S34.35,72.33,34.32,72.31Zm.09-1.22.71.42a.37.37,0,0,0,.3.06c.07,0,.1-.11.1-.24v-.39a.65.65,0,0,0-.1-.36.81.81,0,0,0-.3-.28l-.71-.41s0,0,0,0V71A.05.05,0,0,0,34.41,71.09Z"/><path class="cls-34" d="M37.69,74.26l-1.28-.74a.08.08,0,0,1,0-.07V70.88s0,0,0,0l1.28.74s.05,0,.05.07v.1s0,0-.05,0l-1.07-.62s0,0,0,0v.95a.07.07,0,0,0,0,.06l1,.55s0,0,0,.07v.1s0,0,0,0l-1-.55s0,0,0,0v1a.05.05,0,0,0,0,.06l1.07.62s.05,0,.05.07v.1S37.72,74.28,37.69,74.26Z"/></g><g class="cls-48"><g class="cls-49"><path class="cls-50" d="M115.29,60.66,75.9,83.54a15.07,15.07,0,0,1-15.13,0L21.07,60.64a3.56,3.56,0,0,1,0-6.16L60.44,31.6a15.09,15.09,0,0,1,15.13,0L115.28,54.5A3.56,3.56,0,0,1,115.29,60.66Z"/><path class="cls-51" d="M115.05,60.64,75.86,83.41a15,15,0,0,1-15,0L21.3,60.63a3.54,3.54,0,0,1,0-6.13L60.48,31.73a15,15,0,0,1,15.06,0L115,54.51A3.54,3.54,0,0,1,115.05,60.64Z"/><path class="cls-52" d="M114.81,60.63l-39,22.65a15,15,0,0,1-15,0L21.54,60.61a3.52,3.52,0,0,1,0-6.1l39-22.65a14.94,14.94,0,0,1,15,0l39.3,22.69A3.53,3.53,0,0,1,114.81,60.63Z"/><path class="cls-53" d="M114.57,60.61,75.79,83.15a14.9,14.9,0,0,1-14.91,0L21.78,60.6a3.51,3.51,0,0,1,0-6.07L60.56,32a14.86,14.86,0,0,1,14.9,0l39.1,22.57A3.51,3.51,0,0,1,114.57,60.61Z"/><path class="cls-54" d="M114.33,60.59,75.75,83a14.8,14.8,0,0,1-14.83,0L22,60.58a3.49,3.49,0,0,1,0-6L60.6,32.12a14.78,14.78,0,0,1,14.82,0l38.9,22.46A3.48,3.48,0,0,1,114.33,60.59Z"/><path class="cls-55" d="M114.09,60.58,75.71,82.88a14.73,14.73,0,0,1-14.75,0L22.26,60.56a3.47,3.47,0,0,1,0-6L60.64,32.25a14.75,14.75,0,0,1,14.75,0l38.69,22.34A3.47,3.47,0,0,1,114.09,60.58Z"/><path class="cls-56" d="M113.85,60.56,75.67,82.75a14.62,14.62,0,0,1-14.68,0L22.5,60.55a3.45,3.45,0,0,1,0-6L60.68,32.39a14.6,14.6,0,0,1,14.67,0l38.49,22.22A3.45,3.45,0,0,1,113.85,60.56Z"/><path class="cls-57" d="M113.61,60.55l-38,22.07a14.57,14.57,0,0,1-14.6,0L22.74,60.53a3.43,3.43,0,0,1,0-5.94l38-22.07a14.57,14.57,0,0,1,14.6,0L113.6,54.61A3.43,3.43,0,0,1,113.61,60.55Z"/><path class="cls-58" d="M113.37,60.53l-37.78,22a14.49,14.49,0,0,1-14.52,0L23,60.52a3.42,3.42,0,0,1,0-5.91l37.78-22a14.47,14.47,0,0,1,14.52,0l38.1,22A3.42,3.42,0,0,1,113.37,60.53Z"/><path class="cls-59" d="M113.14,60.52,75.55,82.36a14.41,14.41,0,0,1-14.44,0L23.22,60.5a3.4,3.4,0,0,1,0-5.88L60.79,32.78a14.43,14.43,0,0,1,14.45,0l37.89,21.88A3.4,3.4,0,0,1,113.14,60.52Z"/><path class="cls-60" d="M112.9,60.5,75.51,82.23a14.36,14.36,0,0,1-14.37,0L23.46,60.49a3.38,3.38,0,0,1,0-5.85L60.83,32.91a14.36,14.36,0,0,1,14.37,0l37.69,21.76A3.38,3.38,0,0,1,112.9,60.5Z"/><path class="cls-61" d="M112.66,60.48,75.47,82.09a14.23,14.23,0,0,1-14.29,0L23.69,60.47a3.36,3.36,0,0,1,0-5.82l37.18-21.6a14.23,14.23,0,0,1,14.29,0l37.49,21.64A3.36,3.36,0,0,1,112.66,60.48Z"/><path class="cls-62" d="M112.42,60.47,75.43,82a14.18,14.18,0,0,1-14.21,0L23.93,60.45a3.34,3.34,0,0,1,0-5.78l37-21.49a14.15,14.15,0,0,1,14.21,0l37.29,21.52A3.35,3.35,0,0,1,112.42,60.47Z"/><path class="cls-63" d="M112.18,60.45,75.39,81.83a14.08,14.08,0,0,1-14.13,0L24.17,60.44a3.33,3.33,0,0,1,0-5.75L61,33.31a14.1,14.1,0,0,1,14.14,0L112.17,54.7A3.32,3.32,0,0,1,112.18,60.45Z"/><path class="cls-64" d="M111.94,60.44,75.35,81.7a14,14,0,0,1-14,0L24.41,60.42a3.31,3.31,0,0,1,0-5.72L61,33.44a14,14,0,0,1,14.06,0l36.88,21.3A3.3,3.3,0,0,1,111.94,60.44Z"/><path class="cls-65" d="M111.7,60.42,75.32,81.57a14,14,0,0,1-14,0L24.65,60.41a3.29,3.29,0,0,1,0-5.69L61,33.57a13.94,13.94,0,0,1,14,0l36.68,21.18A3.29,3.29,0,0,1,111.7,60.42Z"/><path class="cls-66" d="M111.46,60.41l-36.18,21a13.86,13.86,0,0,1-13.91,0L24.89,60.39a3.27,3.27,0,0,1,0-5.66l36.19-21a13.89,13.89,0,0,1,13.9,0l36.48,21.07A3.27,3.27,0,0,1,111.46,60.41Z"/><path class="cls-67" d="M111.22,60.39l-36,20.91a13.78,13.78,0,0,1-13.83,0L25.13,60.38a3.25,3.25,0,0,1,0-5.63l36-20.91a13.78,13.78,0,0,1,13.83,0l36.27,20.94A3.25,3.25,0,0,1,111.22,60.39Z"/><path class="cls-68" d="M111,60.37,75.2,81.17a13.71,13.71,0,0,1-13.75,0L25.37,60.36a3.24,3.24,0,0,1,0-5.6L61.15,34A13.71,13.71,0,0,1,74.9,34L111,54.78A3.23,3.23,0,0,1,111,60.37Z"/><path class="cls-69" d="M110.74,60.36,75.16,81a13.65,13.65,0,0,1-13.68,0L25.61,60.35a3.22,3.22,0,0,1,0-5.57L61.19,34.1a13.63,13.63,0,0,1,13.67,0l35.88,20.71A3.22,3.22,0,0,1,110.74,60.36Z"/><path class="cls-70" d="M110.51,60.34,75.12,80.91a13.57,13.57,0,0,1-13.6,0L25.85,60.33a3.19,3.19,0,0,1,0-5.53L61.22,34.23a13.57,13.57,0,0,1,13.6,0l35.68,20.6A3.2,3.2,0,0,1,110.51,60.34Z"/><path class="cls-71" d="M110.27,60.33,75.08,80.78a13.5,13.5,0,0,1-13.52,0L26.09,60.31a3.17,3.17,0,0,1,0-5.5L61.26,34.36a13.52,13.52,0,0,1,13.53,0l35.47,20.48A3.19,3.19,0,0,1,110.27,60.33Z"/><path class="cls-72" d="M110,60.31,75,80.64a13.37,13.37,0,0,1-13.44,0L26.32,60.3a3.16,3.16,0,0,1,0-5.47l35-20.33a13.39,13.39,0,0,1,13.45,0L110,54.84A3.16,3.16,0,0,1,110,60.31Z"/><path class="cls-73" d="M109.79,60.3,75,80.51a13.34,13.34,0,0,1-13.37,0L26.56,60.28a3.14,3.14,0,0,1,0-5.44L61.34,34.63a13.34,13.34,0,0,1,13.37,0l35.07,20.25A3.14,3.14,0,0,1,109.79,60.3Z"/><path class="cls-74" d="M109.55,60.28,75,80.38a13.26,13.26,0,0,1-13.29,0L26.8,60.27a3.13,3.13,0,0,1,0-5.41l34.59-20.1a13.24,13.24,0,0,1,13.29,0l34.87,20.13A3.13,3.13,0,0,1,109.55,60.28Z"/><path class="cls-75" d="M109.31,60.26l-34.39,20a13.18,13.18,0,0,1-13.21,0L27,60.25a3.11,3.11,0,0,1,0-5.38l34.39-20a13.2,13.2,0,0,1,13.22,0l34.66,20A3.1,3.1,0,0,1,109.31,60.26Z"/><path class="cls-76" d="M109.07,60.25,74.88,80.12a13.11,13.11,0,0,1-13.13,0L27.28,60.24a3.09,3.09,0,0,1,0-5.35L61.46,35A13.13,13.13,0,0,1,74.6,35l34.46,19.9A3.09,3.09,0,0,1,109.07,60.25Z"/><path class="cls-77" d="M108.83,60.23,74.84,80a13,13,0,0,1-13.06,0L27.52,60.22a3.06,3.06,0,0,1,0-5.31l34-19.76a13,13,0,0,1,13.06,0l34.26,19.78A3.06,3.06,0,0,1,108.83,60.23Z"/><path class="cls-78" d="M108.59,60.22,74.81,79.85a13,13,0,0,1-13,0L27.76,60.21a3.06,3.06,0,0,1,0-5.29L61.54,35.29a12.93,12.93,0,0,1,13,0l34.07,19.66A3.06,3.06,0,0,1,108.59,60.22Z"/><path class="cls-79" d="M108.35,60.2,74.77,79.72a12.87,12.87,0,0,1-12.91,0L28,60.19a3,3,0,0,1,0-5.25L61.58,35.42a12.87,12.87,0,0,1,12.91,0L108.35,55A3,3,0,0,1,108.35,60.2Z"/><path class="cls-80" d="M108.11,60.19,74.73,79.59a12.81,12.81,0,0,1-12.83,0L28.24,60.17a3,3,0,0,1,0-5.22l33.39-19.4a12.81,12.81,0,0,1,12.83,0L108.11,55A3,3,0,0,1,108.11,60.19Z"/><path class="cls-81" d="M107.88,60.17,74.69,79.46a12.73,12.73,0,0,1-12.76,0L28.48,60.16a3,3,0,0,1,0-5.19L61.66,35.68a12.71,12.71,0,0,1,12.75,0L107.87,55A3,3,0,0,1,107.88,60.17Z"/><path class="cls-82" d="M107.64,60.16l-33,19.17a12.66,12.66,0,0,1-12.68,0L28.71,60.14a3,3,0,0,1,0-5.16l33-19.17a12.64,12.64,0,0,1,12.67,0L107.63,55A3,3,0,0,1,107.64,60.16Z"/><path class="cls-83" d="M107.4,60.14l-32.79,19a12.56,12.56,0,0,1-12.6,0L29,60.13A3,3,0,0,1,29,55L61.73,35.94a12.6,12.6,0,0,1,12.61,0L107.39,55A3,3,0,0,1,107.4,60.14Z"/><path class="cls-84" d="M107.16,60.12,74.57,79.06a12.48,12.48,0,0,1-12.52,0l-32.86-19a3,3,0,0,1,0-5.1L61.77,36.08a12.5,12.5,0,0,1,12.53,0l32.85,19A2.94,2.94,0,0,1,107.16,60.12Z"/><path class="cls-85" d="M106.92,60.11,74.53,78.93a12.42,12.42,0,0,1-12.45,0L29.43,60.1a2.93,2.93,0,0,1,0-5.07L61.81,36.21a12.42,12.42,0,0,1,12.45,0L106.91,55A2.93,2.93,0,0,1,106.92,60.11Z"/><path class="cls-86" d="M106.68,60.09,74.49,78.8a12.34,12.34,0,0,1-12.37,0L29.67,60.08a2.9,2.9,0,0,1,0-5L61.85,36.34a12.34,12.34,0,0,1,12.37,0l32.45,18.74A2.9,2.9,0,0,1,106.68,60.09Z"/><path class="cls-87" d="M106.44,60.08l-32,18.59a12.27,12.27,0,0,1-12.29,0L29.91,60.07a2.9,2.9,0,0,1,0-5l32-18.59a12.27,12.27,0,0,1,12.29,0l32.25,18.62A2.9,2.9,0,0,1,106.44,60.08Z"/><path class="cls-88" d="M106.2,60.06,74.41,78.54a12.17,12.17,0,0,1-12.21,0L30.15,60.05a2.87,2.87,0,0,1,0-5L61.93,36.6a12.19,12.19,0,0,1,12.22,0l32.05,18.5A2.87,2.87,0,0,1,106.2,60.06Z"/><path class="cls-89" d="M106,60.05,74.37,78.4a12.11,12.11,0,0,1-12.14,0L30.39,60a2.85,2.85,0,0,1,0-4.94L62,36.74a12.11,12.11,0,0,1,12.14,0L106,55.1A2.86,2.86,0,0,1,106,60.05Z"/><path class="cls-90" d="M105.72,60,74.33,78.27a12,12,0,0,1-12.06,0L30.63,60a2.83,2.83,0,0,1,0-4.91L62,36.87a12,12,0,0,1,12.06,0l31.65,18.27A2.83,2.83,0,0,1,105.72,60Z"/><path class="cls-91" d="M105.49,60,74.3,78.14a12,12,0,0,1-12,0L30.87,60a2.82,2.82,0,0,1,0-4.88L62.05,37a12,12,0,0,1,12,0l31.45,18.16A2.82,2.82,0,0,1,105.49,60Z"/><path class="cls-92" d="M105.25,60l-31,18a11.87,11.87,0,0,1-11.91,0L31.1,60a2.81,2.81,0,0,1,0-4.85l31-18a11.9,11.9,0,0,1,11.91,0l31.24,18A2.81,2.81,0,0,1,105.25,60Z"/><path class="cls-93" d="M105,60,74.22,77.88a11.82,11.82,0,0,1-11.84,0L31.34,60a2.78,2.78,0,0,1,0-4.81l30.79-17.9a11.8,11.8,0,0,1,11.83,0l31,17.92A2.78,2.78,0,0,1,105,60Z"/><path class="cls-94" d="M104.77,60,74.18,77.74a11.72,11.72,0,0,1-11.76,0L31.58,60a2.77,2.77,0,0,1,0-4.79L62.17,37.39a11.72,11.72,0,0,1,11.75,0l30.84,17.8A2.77,2.77,0,0,1,104.77,60Z"/><path class="cls-95" d="M104.53,60,74.14,77.61a11.64,11.64,0,0,1-11.68,0L31.82,59.94a2.74,2.74,0,0,1,0-4.75l30.4-17.66a11.62,11.62,0,0,1,11.67,0L104.52,55.2A2.74,2.74,0,0,1,104.53,60Z"/><path class="cls-96" d="M104.29,59.94,74.1,77.48a11.59,11.59,0,0,1-11.6,0L32.06,59.92a2.73,2.73,0,0,1,0-4.72L62.24,37.66a11.58,11.58,0,0,1,11.61,0l30.43,17.57A2.74,2.74,0,0,1,104.29,59.94Z"/><path class="cls-97" d="M104.05,59.92l-30,17.43a11.5,11.5,0,0,1-11.53,0L32.3,59.91a2.71,2.71,0,0,1,0-4.69l30-17.43a11.5,11.5,0,0,1,11.53,0L104,55.23A2.71,2.71,0,0,1,104.05,59.92Z"/><path class="cls-98" d="M103.81,59.9,74,77.22a11.43,11.43,0,0,1-11.45,0l-30-17.34a2.69,2.69,0,0,1,0-4.66L62.32,37.92a11.43,11.43,0,0,1,11.45,0l30,17.34A2.68,2.68,0,0,1,103.81,59.9Z"/><path class="cls-99" d="M103.57,59.89,74,77.09a11.35,11.35,0,0,1-11.37,0L32.78,59.88a2.67,2.67,0,0,1,0-4.63l29.59-17.2a11.35,11.35,0,0,1,11.37,0l29.84,17.22A2.67,2.67,0,0,1,103.57,59.89Z"/><path class="cls-100" d="M103.33,59.87,73.94,77a11.25,11.25,0,0,1-11.29,0L33,59.86a2.65,2.65,0,0,1,0-4.59L62.4,38.19a11.27,11.27,0,0,1,11.3,0l29.63,17.11A2.65,2.65,0,0,1,103.33,59.87Z"/><path class="cls-101" d="M103.09,59.86l-29.19,17a11.19,11.19,0,0,1-11.22,0l-29.42-17a2.64,2.64,0,0,1,0-4.57l29.19-17a11.19,11.19,0,0,1,11.22,0l29.43,17A2.64,2.64,0,0,1,103.09,59.86Z"/></g></g><g id="_9" data-name="9"><path class="cls-102" d="M91.07,36c-12,6.92-31.41,6.92-43.39,0-5.92-3.42-8.92-7.88-9-12.36V53.47c.07,4.48,3.07,9,9,12.36,12,6.92,31.41,6.92,43.39,0,6.06-3.5,9.06-8.1,9-12.69V23.29C100.13,27.88,97.13,32.48,91.07,36Z"/><g class="cls-2"><polygon class="cls-28" points="118.09 27.61 118.08 29.96 70.56 57.57 70.57 55.23 118.09 27.61"/><polygon class="cls-26" points="70.57 55.23 70.56 57.57 22.74 29.96 22.75 27.61 70.57 55.23"/><polygon class="cls-103" points="118.09 27.61 70.57 55.23 22.75 27.61 70.26 0 118.09 27.61"/></g><path class="cls-104" d="M46.25,74.51A.54.54,0,0,1,45.7,74V42a1.88,1.88,0,0,1,.93-1.62L69.9,27a.55.55,0,0,1,.75.2.56.56,0,0,1-.2.76L47.18,41.38a.77.77,0,0,0-.38.66V74A.55.55,0,0,1,46.25,74.51Z"/><path class="cls-105" d="M46.25,69.13c-.75-.24-2.5,3.21-2.5,6.56a.39.39,0,0,0,.5.37c0,.31,0,.6.41.6a.34.34,0,0,0,.14,0,.39.39,0,0,0,.69.27.39.39,0,0,0,.78.09.39.39,0,0,0,.77-.08.32.32,0,0,0,.35-.1.39.39,0,0,0,.66-.25c0-.13,0-.25,0-.38C49.59,76.71,47.51,68.79,46.25,69.13Z"/><path class="cls-106" d="M45.85,41.35a1.82,1.82,0,0,0-.15.69V69.56c0,.45,1.1.42,1.1,0V42a.78.78,0,0,1,0-.14A2.6,2.6,0,0,1,45.85,41.35Z"/><path class="cls-104" d="M70,28.55c1.35.21,2.74-.25,3.1-1S72.7,26,71.35,25.74s-2.73.25-3.09,1S68.7,28.35,70,28.55Z"/></g></g></g></g></svg>