<svg xmlns="http://www.w3.org/2000/svg" viewBox="0 0 126.7 161.07"><defs><style>.cls-1{fill:#00a79d;}.cls-2{fill:#00bbad;}.cls-3{fill:#007d76;}.cls-4{fill:#2e6768;}.cls-5{fill:#e0e0e0;}.cls-6{fill:#ebebeb;}.cls-7{fill:#bdbcc3;}.cls-8{fill:#af3346;}.cls-9{fill:#55556c;}.cls-10{fill:#66667b;}.cls-11{fill:#fff;}.cls-12{fill:#d5d5d5;}.cls-13{fill:#db3346;}.cls-14{fill:#efefef;}.cls-15{fill:#799ba9;}.cls-16{fill:#a8662b;}.cls-17{fill:#845511;}.cls-18{fill:#9f5916;}.cls-19{fill:#c3c3c3;}.cls-20{fill:#e7b881;}.cls-21{fill:#db9948;}.cls-22{fill:#6b717e;}.cls-23{fill:#c18648;}.cls-24{fill:#e5bf26;}.cls-25{fill:#ffac00;}.cls-26{fill:#ff7200;}.cls-27{fill:#ffcb00;}.cls-28{fill:#ff4000;}.cls-29{fill:#ffa200;}.cls-30{fill:#47c5ff;}.cls-31{fill:#00a8ff;}.cls-32{fill:#0080d0;}.cls-33{fill:#ffd759;}.cls-34{fill:#98d5ff;}.cls-35{fill:#ffbe00;}.cls-36{fill:#e9a200;}.cls-37{fill:#f60;}.cls-38{fill:#bae200;}.cls-39{fill:#7ecb0e;}.cls-40{fill:#ffd;}.cls-41{fill:#7e9f0e;}.cls-42{fill:#ff9898;}.cls-43{fill:#ff8383;}.cls-44{fill:#ffb3b3;}.cls-45{fill:#4d6c7e;}.cls-46{fill:#925679;}.cls-47{fill:#b46693;}.cls-48{fill:#ff6371;}</style></defs><title>Asset 1</title><g id="Layer_2" data-name="Layer 2"><g id="ëÎÓÈ_1" data-name="ëÎÓÈ 1"><polygon class="cls-1" points="63.35 154 126.69 117.43 63.35 80.85 0 117.43 63.35 154"/><polygon class="cls-2" points="47.52 140.83 56.98 135.37 47.52 129.9 38.05 135.37 47.52 140.83"/><polygon class="cls-2" points="41.69 129.7 46.09 127.16 41.69 124.62 37.28 127.16 41.69 129.7"/><polygon class="cls-2" points="18.77 123.68 25.2 119.97 18.77 116.26 12.34 119.97 18.77 123.68"/><polygon class="cls-2" points="110.82 121.95 117.25 118.24 110.82 114.53 104.39 118.24 110.82 121.95"/><polygon class="cls-3" points="63.35 153.97 0 117.39 0 124.5 63.35 161.07 63.35 153.97"/><polygon class="cls-4" points="63.35 153.97 126.69 117.39 126.69 124.5 63.35 161.07 63.35 153.97"/><polygon class="cls-5" points="29.99 60.68 63.05 41.56 63.05 44.48 29.99 63.59 29.99 60.68"/><polygon class="cls-6" points="72.88 12.15 91.44 1.43 88.97 0 70.41 10.72 72.88 12.15"/><polygon class="cls-7" points="72.87 12.14 88.46 3.12 88.46 5.76 72.53 14.97 72.87 12.14"/><polygon class="cls-8" points="110.6 11.14 111.73 10.49 111.73 15.78 110.6 16.44 110.6 11.14"/><polygon class="cls-8" points="106.43 17.48 110.82 14.94 110.82 16.24 106.43 18.77 106.43 17.48"/><path class="cls-9" d="M38.77,107.66c0,2.79-2.27,6.37-5.07,8s-5.06.66-5.06-2.14,2.27-6.37,5.06-8S38.77,104.86,38.77,107.66Z"/><polygon class="cls-9" points="42.03 107.65 37.48 105.03 29.88 116.1 34.16 118.56 42.03 107.65"/><path class="cls-10" d="M43.11,110.15c0,2.8-2.26,6.38-5.06,8S33,118.8,33,116s2.26-6.37,5.06-8S43.11,107.36,43.11,110.15Z"/><path class="cls-11" d="M40.47,111.68a5,5,0,0,1-2.42,3.81c-1.34.77-2.42.32-2.42-1a5,5,0,0,1,2.42-3.81C39.38,109.89,40.47,110.35,40.47,111.68Z"/><path class="cls-9" d="M57.72,96.74c0,2.8-2.27,6.37-5.06,8s-5.07.66-5.07-2.14,2.27-6.37,5.07-8S57.72,94,57.72,96.74Z"/><polygon class="cls-9" points="60.98 96.73 56.43 94.11 48.84 105.18 53.11 107.65 60.98 96.73"/><path class="cls-10" d="M62.07,99.24c0,2.79-2.27,6.37-5.07,8s-5.06.65-5.06-2.14,2.27-6.38,5.06-8S62.07,96.44,62.07,99.24Z"/><path class="cls-11" d="M59.42,100.77A5,5,0,0,1,57,104.58c-1.33.77-2.41.31-2.41-1A5,5,0,0,1,57,99.74C58.34,99,59.42,99.43,59.42,100.77Z"/><polygon class="cls-6" points="115.84 18.89 118.82 17.17 91.44 1.42 88.45 3.15 115.84 18.89"/><polygon class="cls-12" points="113.33 17.46 88.45 3.11 88.45 5.77 113.34 20.12 113.33 17.46"/><polygon class="cls-13" points="106.45 13.54 100.66 9.09 92.95 5.74 92.95 10.93 106.45 18.76 106.45 13.54"/><polygon class="cls-7" points="72.32 13.15 75.58 11.61 68.98 80.11 64.71 82.57 72.32 13.15"/><polygon class="cls-12" points="91.44 57.9 64.74 42.48 64.74 47.38 91.44 62.8 91.44 57.9"/><polygon class="cls-12" points="70.41 10.72 72.88 12.15 69.26 41.04 66.4 39.38 70.41 10.72"/><polygon class="cls-6" points="99.01 28.63 116.55 18.5 115.77 17.3 114.08 17.07 96.54 27.2 99.01 28.63"/><polygon class="cls-6" points="74.96 89.24 37.68 110.82 42.93 110.92 74.96 92.49 74.96 89.24"/><polygon class="cls-14" points="23.71 61.06 23.74 61.08 30.04 60.66 63.09 41.53 89.62 56.85 95.93 56.43 63.78 37.87 23.71 61.06"/><polygon class="cls-15" points="63.23 105.74 90.13 90.14 62.23 73.9 35.32 89.51 63.23 105.74"/><polygon class="cls-7" points="70.71 129.84 90.42 118.46 89.79 124.84 70.71 135.86 70.71 129.84"/><polygon class="cls-7" points="40.2 112.5 59.91 101.12 59.38 107.44 40.3 118.46 40.2 112.5"/><polygon class="cls-12" points="93.09 58.09 97.36 55.63 90.42 120.33 86.55 117.45 93.09 58.09"/><polygon class="cls-12" points="96.54 27.2 99.03 28.55 95.95 56.44 92.94 54.7 96.54 27.2"/><polygon class="cls-7" points="95.95 56.44 100.21 53.98 92.58 123.23 88.31 125.69 95.95 56.44"/><polygon class="cls-7" points="99 28.56 103.26 26.17 95.66 95.51 91.39 97.97 99 28.56"/><polygon class="cls-7" points="62.47 43.23 66.74 40.76 59.42 106.93 55.15 109.39 62.47 43.23"/><polygon class="cls-16" points="52.48 90.35 69.02 80.8 52.48 71.25 35.94 80.8 52.48 90.35"/><polygon class="cls-17" points="52.48 90.34 35.94 80.79 35.94 87.54 52.48 97.09 52.48 90.34"/><polygon class="cls-18" points="52.48 90.34 69.02 80.79 69.02 87.54 52.48 97.09 52.48 90.34"/><polygon class="cls-19" points="58.1 102.16 59.63 101.27 37.38 88.31 35.84 89.21 58.1 102.16"/><polygon class="cls-20" points="87.19 71.08 92.33 68.08 75.8 58.53 70.65 61.53 87.19 71.08"/><polygon class="cls-21" points="87.19 71.06 70.65 61.51 70.65 82.1 87.19 91.65 87.19 71.06"/><polygon class="cls-22" points="83.15 71.75 74.68 66.86 74.68 78.76 83.15 83.65 83.15 71.75"/><polygon class="cls-23" points="87.19 71.06 92.32 68.05 92.32 88.64 87.19 91.65 87.19 71.06"/><path class="cls-24" d="M76.34,79.94A4.34,4.34,0,1,1,72,75.6,4.34,4.34,0,0,1,76.34,79.94Z"/><path class="cls-25" d="M89.41,87.72a4.34,4.34,0,1,1-4.34-4.33A4.34,4.34,0,0,1,89.41,87.72Z"/><path class="cls-26" d="M72,82.59a4.34,4.34,0,1,1-4.34-4.33A4.34,4.34,0,0,1,72,82.59Z"/><path class="cls-27" d="M83.64,85.57a5.16,5.16,0,1,1-5.15-5.15A5.16,5.16,0,0,1,83.64,85.57Z"/><path class="cls-28" d="M76.29,88a4.69,4.69,0,1,1-4.69-4.69A4.69,4.69,0,0,1,76.29,88Z"/><path class="cls-29" d="M76.62,93.29a4.35,4.35,0,1,1-4.35-4.35A4.34,4.34,0,0,1,76.62,93.29Z"/><path class="cls-27" d="M69.33,97.5a4.41,4.41,0,1,1-4.41-4.41A4.41,4.41,0,0,1,69.33,97.5Z"/><polygon class="cls-30" points="60.42 47.02 64.07 41.35 55.01 36.12 51.37 41.79 60.42 47.02"/><polygon class="cls-31" points="60.42 47.02 51.37 41.79 51.37 79.01 60.42 73.77 60.42 47.02"/><polygon class="cls-11" points="58.39 52.6 53.4 49.72 53.4 59.48 58.39 62.36 58.39 52.6"/><polygon class="cls-32" points="60.42 47.02 64 41.34 66.86 39.64 69.47 41.16 69.47 68.53 60.42 73.76 60.42 47.02"/><polygon class="cls-33" points="64.02 34.47 66.86 32.82 57.88 27.6 55.03 29.25 64.02 34.47"/><polygon class="cls-34" points="67.92 65.07 62.94 67.95 62.94 55.72 67.92 52.84 67.92 65.07"/><polygon class="cls-35" points="64.02 34.47 64 41.34 55.01 36.12 55.03 29.25 64.02 34.47"/><polygon class="cls-36" points="64 41.34 66.86 39.68 66.86 32.82 64.02 34.47 64 41.34"/><path class="cls-37" d="M48.28,76.3a6.15,6.15,0,1,1-6.15-6.14A6.15,6.15,0,0,1,48.28,76.3Z"/><polygon class="cls-38" points="45.35 56.9 47.95 52.87 41.51 49.15 38.91 53.18 45.35 56.9"/><polygon class="cls-39" points="45.35 56.9 38.91 53.18 38.91 65.78 45.35 69.5 45.35 56.9"/><polygon class="cls-40" points="43.91 59.82 40.36 57.77 40.36 64.23 43.91 66.28 43.91 59.82"/><polygon class="cls-41" points="45.35 56.9 47.9 52.86 49.93 51.68 51.79 53.18 51.79 73.28 45.35 69.51 45.35 56.9"/><polygon class="cls-33" points="47.91 49.97 49.93 48.8 43.54 45.09 41.52 46.26 47.91 49.97"/><polygon class="cls-35" points="47.91 49.98 47.9 52.86 41.51 49.15 41.52 46.27 47.91 49.98"/><polygon class="cls-36" points="47.9 52.86 49.93 51.68 49.93 48.81 47.91 49.98 47.9 52.86"/><polygon class="cls-14" points="67.3 103.09 65.85 102.25 88.11 89.29 89.56 90.14 67.3 103.09"/><polygon class="cls-5" points="41.69 75.27 43.13 74.44 49.58 95.42 48.13 96.26 41.69 75.27"/><polygon class="cls-12" points="76.71 73.28 74.97 72.3 74.96 96.94 76.7 97.91 76.71 73.28"/><polygon class="cls-12" points="92.19 64.03 90.75 63.2 88.11 89.31 89.56 90.14 92.19 64.03"/><polygon class="cls-5" points="29.45 68.18 30.9 67.35 37.34 88.33 35.9 89.17 29.45 68.18"/><polygon class="cls-42" points="60.42 73.75 56.57 88.57 47.49 86.11 47.49 61.59 60.42 61.59 60.42 73.75"/><polygon class="cls-43" points="55.91 75.58 56.57 75.98 60.42 73.75 60.42 61.59 55.91 61.59 55.91 75.58"/><path class="cls-44" d="M60.42,61.59c0,1.94-2.89,3.51-6.47,3.51s-6.46-1.57-6.46-3.51,2.89-3.52,6.46-3.52S60.42,59.65,60.42,61.59Z"/><path class="cls-42" d="M60.42,86.11c0,1.94-2.89,3.51-6.47,3.51s-6.46-1.57-6.46-3.51,2.89-3.52,6.46-3.52S60.42,84.17,60.42,86.11Z"/><path class="cls-45" d="M55.91,70.9a12.25,12.25,0,0,1-2,.16c-3.27,0-6-1.32-6.4-3h-.06V81.17l8.42-5.57Z"/><ellipse class="cls-46" cx="53.95" cy="60.34" rx="3.47" ry="1.88"/><rect class="cls-46" x="50.48" y="55.81" width="6.94" height="4.53"/><ellipse class="cls-47" cx="53.95" cy="55.81" rx="3.47" ry="1.88"/><path class="cls-45" d="M60.42,81.17c0,1.94-2.89,3.51-6.47,3.51s-6.46-1.57-6.46-3.51,2.89-3.51,6.46-3.51S60.42,79.23,60.42,81.17Z"/><path class="cls-12" d="M55.87,79.64,23.72,61.08l8.87,29.14,32.15,18.57Zm-19.93,9.6L29.45,68.12l9.42,5.48,6.48,21.12Zm5.75-14,9.41,5.48,6.49,21.12-9.42-5.48Z"/><path class="cls-7" d="M55.88,79.66l8.83,29.09L92.16,92.91,96,56.43Zm20.83,18L67.37,103l-6.54-20.4,15.88-9.31Zm12.85-7.5-9.9,5.71V71.22L92.2,64Z"/><polygon class="cls-14" points="56.57 75.98 30.04 60.66 23.74 61.08 55.88 79.64 95.95 56.45 95.93 56.43 89.62 56.85 56.57 75.98"/><polygon class="cls-12" points="70.71 129.86 37.68 110.82 37.68 116.83 70.71 135.86 70.71 129.86"/><polygon class="cls-6" points="70.45 126.78 42.8 110.84 37.67 110.84 70.71 129.89 89.02 119.26 86.55 117.45 70.45 126.78"/><polygon class="cls-7" points="99.06 28.59 118.82 17.17 118.82 20.65 99.06 32.07 99.06 28.59"/><path class="cls-9" d="M77.72,130.08c0,2.8-2.27,6.38-5.06,8s-5.07.66-5.07-2.14,2.27-6.37,5.07-8S77.72,127.29,77.72,130.08Z"/><polygon class="cls-9" points="80.98 130.08 76.43 127.45 68.84 138.53 73.11 140.99 80.98 130.08"/><path class="cls-10" d="M82.07,132.58c0,2.8-2.27,6.37-5.07,8s-5.06.65-5.06-2.14,2.27-6.37,5.06-8S82.07,129.78,82.07,132.58Z"/><path class="cls-11" d="M79.42,134.11A5,5,0,0,1,77,137.92c-1.33.77-2.41.31-2.41-1A5,5,0,0,1,77,133.09C78.34,132.32,79.42,132.77,79.42,134.11Z"/><path class="cls-9" d="M96.67,119.17c0,2.8-2.26,6.37-5.06,8s-5.06.65-5.06-2.14,2.26-6.38,5.06-8S96.67,116.37,96.67,119.17Z"/><polygon class="cls-9" points="99.93 119.16 95.38 116.54 87.79 127.61 92.06 130.07 99.93 119.16"/><path class="cls-10" d="M101,121.67c0,2.79-2.27,6.37-5.06,8s-5.07.66-5.07-2.14,2.27-6.37,5.07-8S101,118.87,101,121.67Z"/><path class="cls-11" d="M98.37,123.19A5,5,0,0,1,96,127c-1.34.77-2.42.31-2.42-1A5,5,0,0,1,96,122.17C97.29,121.4,98.37,121.86,98.37,123.19Z"/><polygon class="cls-8" points="106.45 13.54 107.59 12.88 107.59 18.11 106.45 18.76 106.45 13.54"/><polygon class="cls-8" points="106.43 13.55 110.82 11.02 110.82 12.32 106.43 14.85 106.43 13.55"/><polygon class="cls-48" points="106.45 13.53 111.74 10.49 98.21 2.7 92.94 5.74 106.45 13.53"/></g></g></svg>