<svg xmlns="http://www.w3.org/2000/svg" viewBox="0 0 1451.81 979.78"><defs><style>.cls-1{fill:#7ca065;}.cls-2{fill:#a3d884;}.cls-3{fill:#fce5c0;}.cls-4{fill:#f9eddc;}.cls-5{fill:#444;opacity:0.2;}</style></defs><title>Asset 1</title><g id="Layer_2" data-name="Layer 2"><g id="money"><rect class="cls-1" x="26.29" y="675.74" width="678.19" height="9.77"/><rect class="cls-2" x="26.29" y="587.42" width="678.19" height="88.32"/><rect class="cls-3" x="271.54" y="587.42" width="187.67" height="98.09"/><rect class="cls-4" x="306.16" y="587.42" width="118.44" height="98.09"/><rect class="cls-5" x="271.54" y="675.74" width="187.67" height="9.77"/><rect class="cls-1" x="26.29" y="578.78" width="678.19" height="9.77"/><rect class="cls-2" x="26.29" y="490.46" width="678.19" height="88.32"/><rect class="cls-3" x="271.54" y="490.46" width="187.67" height="98.09"/><rect class="cls-4" x="306.16" y="490.46" width="118.44" height="98.09"/><rect class="cls-5" x="271.54" y="578.78" width="187.67" height="9.77"/><rect class="cls-1" x="9.23" y="480.69" width="678.19" height="9.77"/><rect class="cls-2" x="9.23" y="392.37" width="678.19" height="88.32"/><rect class="cls-3" x="254.49" y="392.37" width="187.67" height="98.09"/><rect class="cls-4" x="289.1" y="392.37" width="118.44" height="98.09"/><rect class="cls-5" x="254.49" y="480.69" width="187.67" height="9.77"/><rect class="cls-1" x="0.01" y="382.6" width="678.19" height="9.77"/><rect class="cls-2" x="0.01" y="294.27" width="678.19" height="88.32"/><rect class="cls-3" x="245.26" y="294.27" width="187.67" height="98.09"/><rect class="cls-4" x="279.88" y="294.27" width="118.44" height="98.09"/><rect class="cls-5" x="245.26" y="382.6" width="187.67" height="9.77"/><rect class="cls-1" y="773.83" width="678.19" height="9.77"/><rect class="cls-2" y="685.51" width="678.19" height="88.32"/><rect class="cls-3" x="245.26" y="685.51" width="187.67" height="98.09"/><rect class="cls-4" x="279.87" y="685.51" width="118.44" height="98.09"/><rect class="cls-5" x="245.26" y="773.83" width="187.67" height="9.77"/><rect class="cls-1" x="42.06" y="871.92" width="678.19" height="9.77"/><rect class="cls-2" x="42.06" y="783.6" width="678.19" height="88.32"/><rect class="cls-3" x="287.31" y="783.6" width="187.67" height="98.09"/><rect class="cls-4" x="321.93" y="783.6" width="118.44" height="98.09"/><rect class="cls-5" x="287.31" y="871.92" width="187.67" height="9.77"/><rect class="cls-1" x="15.77" y="970.01" width="678.19" height="9.77"/><rect class="cls-2" x="15.77" y="881.69" width="678.19" height="88.32"/><rect class="cls-3" x="261.03" y="881.69" width="187.67" height="98.09"/><rect class="cls-4" x="295.64" y="881.69" width="118.44" height="98.09"/><rect class="cls-5" x="261.03" y="970.01" width="187.67" height="9.77"/><rect class="cls-1" x="757.85" y="675.74" width="678.19" height="9.77"/><rect class="cls-2" x="757.85" y="587.42" width="678.19" height="88.32"/><rect class="cls-3" x="1003.11" y="587.42" width="187.67" height="98.09"/><rect class="cls-4" x="1037.73" y="587.42" width="118.44" height="98.09"/><rect class="cls-5" x="1003.11" y="675.74" width="187.67" height="9.77"/><rect class="cls-1" x="757.85" y="578.78" width="678.19" height="9.77"/><rect class="cls-2" x="757.85" y="490.46" width="678.19" height="88.32"/><rect class="cls-3" x="1003.11" y="490.46" width="187.67" height="98.09"/><rect class="cls-4" x="1037.73" y="490.46" width="118.44" height="98.09"/><rect class="cls-5" x="1003.11" y="578.78" width="187.67" height="9.77"/><rect class="cls-1" x="740.8" y="480.69" width="678.19" height="9.77"/><rect class="cls-2" x="740.8" y="392.37" width="678.19" height="88.32"/><rect class="cls-3" x="986.05" y="392.37" width="187.67" height="98.09"/><rect class="cls-4" x="1020.67" y="392.37" width="118.44" height="98.09"/><rect class="cls-5" x="986.05" y="480.69" width="187.67" height="9.77"/><rect class="cls-1" x="740.8" y="382.6" width="678.19" height="9.77"/><rect class="cls-2" x="740.8" y="294.27" width="678.19" height="88.32"/><rect class="cls-3" x="986.05" y="294.27" width="187.67" height="98.09"/><rect class="cls-4" x="1020.67" y="294.27" width="118.44" height="98.09"/><rect class="cls-5" x="986.05" y="382.6" width="187.67" height="9.77"/><rect class="cls-1" x="722.35" y="284.5" width="678.19" height="9.77"/><rect class="cls-2" x="722.35" y="196.18" width="678.19" height="88.32"/><rect class="cls-3" x="967.61" y="196.18" width="187.67" height="98.09"/><rect class="cls-4" x="1002.22" y="196.18" width="118.44" height="98.09"/><rect class="cls-5" x="967.61" y="284.5" width="187.67" height="9.77"/><rect class="cls-1" x="740.8" y="186.41" width="678.19" height="9.77"/><rect class="cls-2" x="740.8" y="98.09" width="678.19" height="88.32"/><rect class="cls-3" x="986.05" y="98.09" width="187.67" height="98.09"/><rect class="cls-4" x="1020.67" y="98.09" width="118.44" height="98.09"/><rect class="cls-5" x="986.05" y="186.41" width="187.67" height="9.77"/><rect class="cls-1" x="731.57" y="88.32" width="678.19" height="9.77"/><rect class="cls-2" x="731.57" width="678.19" height="88.32"/><rect class="cls-3" x="976.83" width="187.67" height="98.09"/><rect class="cls-4" x="1011.45" width="118.44" height="98.09"/><rect class="cls-5" x="976.83" y="88.32" width="187.67" height="9.77"/><rect class="cls-1" x="731.57" y="773.83" width="678.19" height="9.77"/><rect class="cls-2" x="731.57" y="685.51" width="678.19" height="88.32"/><rect class="cls-3" x="976.82" y="685.51" width="187.67" height="98.09"/><rect class="cls-4" x="1011.44" y="685.51" width="118.44" height="98.09"/><rect class="cls-5" x="976.82" y="773.83" width="187.67" height="9.77"/><rect class="cls-1" x="773.62" y="871.92" width="678.19" height="9.77"/><rect class="cls-2" x="773.62" y="783.6" width="678.19" height="88.32"/><rect class="cls-3" x="1018.88" y="783.6" width="187.67" height="98.09"/><rect class="cls-4" x="1053.5" y="783.6" width="118.44" height="98.09"/><rect class="cls-5" x="1018.88" y="871.92" width="187.67" height="9.77"/><rect class="cls-1" x="747.34" y="970.01" width="678.19" height="9.77"/><rect class="cls-2" x="747.34" y="881.69" width="678.19" height="88.32"/><rect class="cls-3" x="992.59" y="881.69" width="187.67" height="98.09"/><rect class="cls-4" x="1027.21" y="881.69" width="118.44" height="98.09"/><rect class="cls-5" x="992.59" y="970.01" width="187.67" height="9.77"/></g></g></svg>