<svg xmlns="http://www.w3.org/2000/svg" viewBox="0 0 680.98 622.91"><defs><style>.cls-1{isolation:isolate;}.cls-2,.cls-7{fill:#9fa1b2;}.cls-3{fill:#6dc0f7;}.cls-4{fill:#4095e2;}.cls-5{fill:#236799;}.cls-6{fill:#1e1e23;}.cls-7{opacity:0.44;}.cls-46,.cls-8{fill:#cde0df;}.cls-9{fill:#ba6450;}.cls-10{fill:#934637;}.cls-11,.cls-73,.cls-76{fill:#631d14;}.cls-12{fill:#32a6ce;}.cls-13{fill:#fffefd;}.cls-14{fill:#ffdc31;}.cls-15,.cls-21,.cls-25{fill:#640917;}.cls-15{opacity:0.39;}.cls-15,.cls-28,.cls-43,.cls-46,.cls-70{mix-blend-mode:multiply;}.cls-16,.cls-36,.cls-43,.cls-56,.cls-61,.cls-63,.cls-66,.cls-67,.cls-71,.cls-72,.cls-74,.cls-75,.cls-77{fill:none;}.cls-16,.cls-63,.cls-72,.cls-75{stroke:#d7dce2;}.cls-16,.cls-36,.cls-56,.cls-67,.cls-71,.cls-72,.cls-74,.cls-75{stroke-linecap:round;}.cls-16,.cls-36,.cls-61,.cls-63,.cls-66,.cls-67,.cls-71,.cls-72,.cls-74,.cls-75{stroke-miterlimit:10;}.cls-16{stroke-width:3.35px;}.cls-17{mix-blend-mode:darken;}.cls-18{fill:#f2a755;}.cls-19{fill:#9f544d;}.cls-20{fill:#89433f;}.cls-22{fill:#f7d66f;}.cls-23{fill:#fff;}.cls-24,.cls-35{fill:#52718c;}.cls-24{opacity:0.63;}.cls-25{opacity:0.2;}.cls-26{fill:#dd4757;}.cls-27{fill:#81aa27;}.cls-28{fill:#4e893f;opacity:0.55;}.cls-29{fill:#5a5a68;}.cls-30{fill:#addb2e;}.cls-31{fill:#3ec8ed;}.cls-32{fill:#4b4b56;}.cls-33{fill:#2d2d3a;}.cls-34{fill:#909bab;}.cls-36,.cls-61{stroke:#fff;stroke-width:2.23px;}.cls-37{fill:#ffd150;}.cls-38{fill:#e5893c;}.cls-39{fill:#ef3a54;}.cls-40{fill:#ad1e40;}.cls-41{fill:#7ce6f7;}.cls-42{fill:#c68671;}.cls-43,.cls-77{stroke:#934637;}.cls-43,.cls-56,.cls-77{stroke-linejoin:round;}.cls-43,.cls-74,.cls-75,.cls-77{stroke-width:4.46px;}.cls-43{opacity:0.35;}.cls-44{fill:#3d3d47;}.cls-45{fill:#2f2f38;}.cls-47{fill:#ffc024;}.cls-48{fill:#c5ccd3;}.cls-49{fill:#ee6b45;}.cls-50{fill:#93e1e5;}.cls-51{fill:#393942;}.cls-52{fill:#ff9f36;}.cls-53{fill:#9bcc42;}.cls-54{fill:#db8758;}.cls-55{fill:#94c4d7;}.cls-56{stroke:#640917;stroke-width:6.85px;}.cls-57{fill:#c4273a;}.cls-58,.cls-59{fill:#7f182c;}.cls-59{opacity:0.53;}.cls-60{fill:#fc3030;}.cls-62{fill:#c26e67;}.cls-63,.cls-66{stroke-width:2.18px;}.cls-64{fill:#e2b024;}.cls-65{fill:#ffe36e;}.cls-66{stroke:#fffefd;}.cls-67{stroke:#e84b42;stroke-width:3.78px;}.cls-68{fill:#7f3a30;}.cls-69{fill:#a04a3f;}.cls-70{fill:#828897;}.cls-71,.cls-74{stroke:#abb9c6;}.cls-71,.cls-72{stroke-width:4.84px;}.cls-73{opacity:0.5;}.cls-76{opacity:0.73;}</style></defs><title>Asset 1</title><g class="cls-1"><g id="Layer_2" data-name="Layer 2"><g id="Layer_1-2" data-name="Layer 1"><polygon class="cls-2" points="547.75 25.38 547.75 14.5 494.01 14.5 494.01 25.38 497.5 25.38 497.5 52 550.07 52 550.07 25.38 547.75 25.38"/><polygon class="cls-3" points="634.52 10.88 514.97 10.88 511.48 0 634.52 0 634.52 10.88"/><rect class="cls-3" x="514.97" y="10.88" width="116.23" height="26.62"/><rect class="cls-4" x="511.48" width="53.74" height="10.88"/><rect class="cls-4" x="514.97" y="10.88" width="52.57" height="26.62"/><rect class="cls-5" x="514.97" y="10.88" width="116.23" height="4.71"/><rect class="cls-6" x="589.6" y="16.93" width="20.83" height="5.45" rx="2.44"/><polygon class="cls-7" points="0 622.9 161.27 622.9 161.27 36.95 31.82 36.95 31.82 613.17 0 613.17 0 622.9"/><path class="cls-8" d="M531.51,561.29H489.59a6.63,6.63,0,0,1-6.63-6.64V513.24a6.63,6.63,0,0,1,6.63-6.64h41.92A18.42,18.42,0,0,0,513.09,525v17.85A18.42,18.42,0,0,0,531.51,561.29Z"/><rect class="cls-9" x="536.25" y="36.95" width="132.28" height="585.96"/><rect class="cls-10" x="519.82" y="36.95" width="132.28" height="585.96"/><rect class="cls-11" x="530.81" y="514.67" width="125.64" height="104.45"/><rect class="cls-12" x="526.91" y="537.9" width="57.99" height="29.55"/><rect class="cls-13" x="532.48" y="560.76" width="57.99" height="29.55"/><rect class="cls-14" x="533.04" y="580.27" width="57.99" height="29.55"/><polygon class="cls-15" points="560.92 567.45 568.73 555.46 568.73 611.22 528.21 611.22 536.39 567.45 560.92 567.45"/><line class="cls-16" x1="533.78" y1="575.26" x2="565.38" y2="538.83"/><rect class="cls-10" x="348.12" y="36.95" width="188.13" height="585.96"/><polygon class="cls-11" points="436.93 183.47 486.48 126.13 473.19 108.01 438.25 129.2 406.89 133.4 436.93 183.47"/><polygon class="cls-11" points="427.44 499.41 506.28 457.61 459.62 459.01 397.4 434.36 427.44 499.41"/><polygon class="cls-11" points="435.96 600.58 396.51 600.58 396.51 56.87 519.14 56.87 435.96 94.31 435.96 600.58"/><path class="cls-8" d="M438.88,155.93a3.42,3.42,0,0,1-3.42-3.42V135.12c0-4.79,3.56-8.69,7.94-8.69.45,0,1.1-.72,1.1-1.84v-5.27c0-3.92-2.52-7.11-5.62-7.11s-5.62,3.19-5.62,7.11a3.43,3.43,0,0,1-6.85,0c0-7.69,5.6-13.95,12.47-13.95s12.47,6.26,12.47,13.95v5.27c0,4.79-3.57,8.68-8,8.68-.45,0-1.1.72-1.1,1.85v17.39A3.42,3.42,0,0,1,438.88,155.93Z"/><path class="cls-14" d="M507.44,461.5H369.34V186.26a40,40,0,0,1,39.94-39.95H467.5a40,40,0,0,1,39.94,39.95Z"/><g class="cls-17"><path class="cls-18" d="M491.7,461.5H353.59V190.86a44.55,44.55,0,0,1,44.54-44.55h13a44.55,44.55,0,0,1,44.54,44.55l36,72.53,11.24,80.66-11.24,15.61Z"/></g><rect class="cls-19" x="420.27" y="146.31" width="37.22" height="315.19"/><rect class="cls-20" x="444.8" y="146.31" width="12.69" height="315.19"/><rect class="cls-8" x="420.27" y="147.39" width="37.22" height="6.44"/><rect class="cls-21" x="420.27" y="158.19" width="37.22" height="4.37"/><polyline class="cls-22" points="402.15 192.78 402.15 344.14 369.34 344.14 369.34 192.78"/><polyline class="cls-14" points="507.44 192.78 507.44 344.14 474.63 344.14 474.63 192.78"/><polygon class="cls-23" points="420.27 146.31 411.12 146.31 420.27 165.66 420.27 146.31"/><polygon class="cls-23" points="457.49 146.31 466.64 146.31 457.49 165.66 457.49 146.31"/><rect class="cls-23" x="420.27" y="164.09" width="37.22" height="170.75"/><path class="cls-23" d="M457.49,169.79h0a33.82,33.82,0,0,1-37.22,0h0v-11.6h0a33.82,33.82,0,0,0,37.22,0h0Z"/><path class="cls-24" d="M438.92,112.21c-3.1,0-5.62,3.19-5.62,7.12a3.42,3.42,0,0,1-6.84,0,14.61,14.61,0,0,1,5-11.18C432.8,110.89,436.17,112.21,438.92,112.21Z"/><path class="cls-8" d="M428.16,119.33v5.26c0,4.78-3.57,8.68-7.94,8.68-.46,0-1.1.72-1.1,1.85v17.39a3.43,3.43,0,1,1-6.85,0V135.12c0-4.8,3.57-8.69,8-8.69.45,0,1.09-.71,1.09-1.84v-5.26c0-3.49-2-6.4-4.61-7a2.67,2.67,0,0,0-.48-.08,3.08,3.08,0,0,0-.53,0c-3.1,0-5.62,3.19-5.62,7.12a3.42,3.42,0,0,1-6.84,0,14.61,14.61,0,0,1,5-11.18,11.59,11.59,0,0,1,7.46-2.77C422.56,105.38,428.16,111.63,428.16,119.33Z"/><path class="cls-12" d="M464.83,349.84H365.58a19.43,19.43,0,0,1-19.43-19.43v-143a41.11,41.11,0,0,1,41.1-41.11h55.9a41.12,41.12,0,0,1,41.11,41.11v143A19.43,19.43,0,0,1,464.83,349.84Z"/><rect class="cls-8" x="397.08" y="146.47" width="37.22" height="6.44"/><rect class="cls-21" x="397.08" y="158.19" width="37.22" height="4.37"/><path class="cls-12" d="M379,192.78V344.14c0,10.55-7.34,19.1-16.4,19.1h0c-9.06,0-16.41-8.55-16.41-19.1V192.78"/><path class="cls-12" d="M484.26,199.62V351c0,10.54-7.35,19.09-16.41,19.09h0c-9.06,0-16.41-8.55-16.41-19.09V199.62"/><rect class="cls-23" x="378.96" y="337.44" width="72.48" height="17.53"/><rect class="cls-25" x="396.02" y="337.44" width="37.22" height="17.53"/><line class="cls-26" x1="397.08" y1="337.44" x2="397.08" y2="354.97"/><line class="cls-26" x1="434.3" y1="337.44" x2="434.3" y2="354.97"/><rect class="cls-23" x="350.51" y="357.33" width="24.09" height="9.61"/><polygon class="cls-23" points="397.08 146.31 387.93 146.31 397.08 165.66 397.08 146.31"/><polygon class="cls-4" points="434.3 146.31 443.46 146.31 434.3 165.66 434.3 146.31"/><path class="cls-24" d="M415.69,112.21c-3.1,0-5.62,3.19-5.62,7.12a3.42,3.42,0,0,1-6.84,0,14.61,14.61,0,0,1,5-11.18C409.57,110.89,412.94,112.21,415.69,112.21Z"/><path class="cls-8" d="M392.41,155.93a3.42,3.42,0,0,1-3.42-3.42V135.12c0-4.79,3.56-8.69,7.94-8.69.45,0,1.1-.72,1.1-1.84v-5.27c0-3.92-2.52-7.11-5.62-7.11s-5.63,3.19-5.63,7.11a3.42,3.42,0,1,1-6.84,0c0-7.69,5.59-13.95,12.47-13.95s12.46,6.26,12.46,13.95v5.27c0,4.79-3.56,8.68-7.94,8.68-.45,0-1.1.72-1.1,1.85v17.39A3.42,3.42,0,0,1,392.41,155.93Z"/><path class="cls-27" d="M461,192.24V338.15H322.87V192.24a45.93,45.93,0,0,1,45.92-45.93h46.26A45.94,45.94,0,0,1,461,192.24Z"/><polygon class="cls-28" points="442.35 209.12 437.56 338.15 399.97 338.15 399.97 266.36 418.18 201.96 420.13 226.77 428.22 205.39 442.35 209.12"/><rect class="cls-29" x="373.8" y="146.31" width="37.22" height="191.84"/><rect class="cls-8" x="373.8" y="147.39" width="37.22" height="6.44"/><rect class="cls-21" x="373.8" y="158.19" width="37.22" height="4.37"/><path class="cls-27" d="M355.68,192.78V344.14c0,10.55-32.82,10.55-32.82,0V192.78"/><path class="cls-27" d="M461,192.78V344.14c0,10.55-32.81,10.55-32.81,0V192.78Z"/><rect class="cls-23" x="321.62" y="338.15" width="35.31" height="16.82"/><path class="cls-30" d="M452,191.49V344.32c0,6.49-2.7-.78-7.15,3.07,1.84.9-.65,1.36,1.34,1.36,8.33,0,15.12,7.37,15.12-4.43V191.49a44.77,44.77,0,0,0-44.72-44.71H416C434.38,153.34,452,170.91,452,191.49Z"/><path class="cls-31" d="M474.92,191V348.88c0,6.49-2.69,15.32-7.15,19.17,1.84.9-.64,1.37,1.34,1.37,8.34,0,15.12-8.73,15.12-20.54V191a44.77,44.77,0,0,0-44.71-44.72h-.58C457.29,152.82,474.92,170.38,474.92,191Z"/><rect class="cls-23" x="426.91" y="339.52" width="35.31" height="16.82"/><path class="cls-23" d="M411,240.54v1.69l12.4-52.71L420,178.43l6.33-5-6.18-27.16H411Z"/><path class="cls-23" d="M373.8,240.54v1.69l-12.41-52.71,3.43-11.09-6.34-5,6.18-27.16h9.14Z"/><rect class="cls-23" x="456" y="362.81" width="24.09" height="9.61"/><circle class="cls-32" cx="481.42" cy="117.14" r="10.51"/><path class="cls-33" d="M488.87,117.14a10.51,10.51,0,1,1-10.51-10.51A10.52,10.52,0,0,1,488.87,117.14Z"/><rect class="cls-34" x="371.13" y="501.54" width="106.05" height="8.98" transform="translate(848.31 1012.06) rotate(180)"/><rect class="cls-34" x="373.81" y="510.52" width="101.85" height="19.14" transform="translate(849.48 1040.18) rotate(180)"/><rect class="cls-13" x="428.24" y="501.54" width="74.07" height="8.98" transform="translate(930.56 1012.06) rotate(180)"/><rect class="cls-13" x="425.42" y="510.52" width="73.81" height="19.14" transform="translate(924.65 1040.18) rotate(180)"/><rect class="cls-25" x="373.81" y="510.52" width="125.42" height="3.89" transform="translate(873.05 1024.93) rotate(180)"/><rect class="cls-21" x="385.93" y="514.41" width="24.44" height="4.5" rx="2.02" transform="translate(796.29 1033.32) rotate(180)"/><path class="cls-8" d="M445.47,122.07H428.16l-.05-1.34a26.51,26.51,0,0,0-1.32-7.38l-.38-1.14H439a6.52,6.52,0,0,1,6.51,6.52Z"/><path class="cls-8" d="M448.61,112.21h29.07a4.42,4.42,0,0,1,4.42,4.42v1a4.42,4.42,0,0,1-4.42,4.42H448.61a0,0,0,0,1,0,0v-9.85A0,0,0,0,1,448.61,112.21Z"/><path class="cls-35" d="M421.34,122.07H406l0-1.34a26.53,26.53,0,0,0-1.33-7.38l-.37-1.14h11.22c3.59,0,5.87,2.92,5.87,6.52Z"/><path class="cls-8" d="M413.9,122.07H396.43v-9.86h14.3c3.59,0,6.51,1.31,6.51,4.91v1.61A3.35,3.35,0,0,1,413.9,122.07Z"/><path class="cls-35" d="M444.53,122.07H429.19l-.05-1.34a26.51,26.51,0,0,0-1.32-7.38l-.38-1.14h11.22c3.6,0,5.87,2.92,5.87,6.52Z"/><path class="cls-8" d="M437.09,122.07h-8.32l0-1.34a26.53,26.53,0,0,0-1.33-7.38l-.37-1.14h6.89c3.6,0,6.51,1.31,6.51,4.91v1.61A3.34,3.34,0,0,1,437.09,122.07Z"/><line class="cls-36" x1="412.23" y1="115.26" x2="405.73" y2="115.26"/><line class="cls-36" x1="437.88" y1="115.26" x2="430.26" y2="115.26"/><line class="cls-36" x1="454.24" y1="115.26" x2="452.75" y2="115.26"/><line class="cls-36" x1="473.75" y1="115.26" x2="460.93" y2="115.26"/><rect class="cls-37" x="355.9" y="557.1" width="158.57" height="15.01"/><rect class="cls-37" x="358.43" y="572.11" width="151.55" height="31.98"/><rect class="cls-38" x="339.99" y="557.1" width="79.04" height="15.01"/><rect class="cls-38" x="345.14" y="572.11" width="78.62" height="31.98"/><rect class="cls-25" x="345.14" y="572.11" width="164.84" height="6.5"/><rect class="cls-21" x="448.9" y="578.61" width="40.84" height="7.52" rx="3.37"/><rect class="cls-39" x="391.8" y="528.67" width="100.47" height="8.98"/><rect class="cls-39" x="393.31" y="537.66" width="96.28" height="19.14"/><rect class="cls-40" x="382.28" y="528.67" width="47.3" height="8.98"/><rect class="cls-40" x="385.36" y="537.66" width="47.05" height="19.14"/><rect class="cls-25" x="385.36" y="537.66" width="104.23" height="3.89"/><rect class="cls-21" x="449.69" y="541.55" width="24.44" height="4.5" rx="2.02"/><rect class="cls-9" x="190.49" y="36.95" width="189.84" height="585.96"/><rect class="cls-10" x="216.14" y="56.79" width="140.24" height="545.59"/><rect class="cls-41" x="216.14" y="61.25" width="135.78" height="541.13"/><path class="cls-9" d="M380.33,37v586H536.25V37ZM520.24,604.08H396.33V56.79H520.24Z"/><rect class="cls-42" x="72.19" y="36.95" width="118.3" height="585.96"/><rect class="cls-10" x="72.18" y="36.94" width="118.31" height="585.97"/><line class="cls-43" x1="177" y1="36.95" x2="177" y2="622.91"/><polygon class="cls-11" points="190.49 347.82 190.49 408.17 72.18 437.98 72.18 348.23 190.49 347.82"/><polygon class="cls-11" points="585.29 221.06 536.25 221.06 536.25 134.79 652.22 134.79 585.29 173.34 585.29 221.06"/><rect class="cls-29" x="536.09" y="160.15" width="89.08" height="9.15"/><rect class="cls-29" x="536.09" y="169.3" width="86.34" height="19.49"/><rect class="cls-44" x="536.09" y="160.15" width="30.9" height="9.15"/><rect class="cls-44" x="536.09" y="169.3" width="33.78" height="19.49"/><rect class="cls-45" x="536.09" y="169.3" width="86.34" height="3.96"/><rect class="cls-6" x="585.2" y="173.26" width="24.9" height="4.58" rx="2.05"/><polygon class="cls-11" points="585.29 318.04 536.25 318.04 536.25 231.77 652.22 231.77 585.29 270.32 585.29 318.04"/><polygon class="cls-11" points="585.29 413.95 536.25 413.95 536.25 327.67 652.22 327.67 585.29 366.22 585.29 413.95"/><polygon class="cls-11" points="585.29 509.48 536.25 509.48 536.25 423.2 652.22 423.2 585.29 461.75 585.29 509.48"/><rect class="cls-38" x="593.72" y="470.06" width="19.95" height="39.19"/><path class="cls-8" d="M593.72,459.74v11.94h19.95V459.74a2.84,2.84,0,0,0-2.84-2.84H596.56A2.84,2.84,0,0,0,593.72,459.74Z"/><path class="cls-46" d="M602.69,456.89a2.85,2.85,0,0,0-2.84,2.85v49.51h-6.13V459.74a2.85,2.85,0,0,1,2.84-2.85Z"/><rect class="cls-23" x="536.09" y="188.3" width="103.26" height="10.61"/><rect class="cls-47" x="536.09" y="198.9" width="100.09" height="22.6"/><rect class="cls-48" x="536.09" y="188.3" width="35.82" height="10.61"/><rect class="cls-49" x="536.09" y="198.9" width="39.16" height="22.6"/><rect class="cls-25" x="536.09" y="198.9" width="100.09" height="4.59"/><rect class="cls-6" x="593.02" y="203.5" width="28.86" height="5.31" rx="2.38"/><rect class="cls-50" x="604.38" y="481.53" width="22.8" height="27.72"/><path class="cls-51" d="M614.6,464.43H617a10.22,10.22,0,0,1,10.22,10.22v6.88a0,0,0,0,1,0,0h-22.8a0,0,0,0,1,0,0v-6.88a10.22,10.22,0,0,1,10.22-10.22Z"/><rect class="cls-13" x="615.78" y="488.09" width="11.4" height="12.83"/><path class="cls-23" d="M599.92,451.32v57.93H580V451.32a9.82,9.82,0,0,1,.91-4.17A10,10,0,0,1,597,444.26a10,10,0,0,1,2.93,7.06Z"/><path class="cls-8" d="M599.92,451.32v5.73H580v-5.73a9.82,9.82,0,0,1,.91-4.17H599A9.83,9.83,0,0,1,599.92,451.32Z"/><path class="cls-23" d="M586.87,441.34H593a6.9,6.9,0,0,1,6.9,6.9v6.92a0,0,0,0,1,0,0H580a0,0,0,0,1,0,0v-6.92A6.9,6.9,0,0,1,586.87,441.34Z"/><circle class="cls-52" cx="586.85" cy="384.56" r="13.25" transform="translate(-109.68 300.17) rotate(-26.33)"/><circle class="cls-26" cx="603.21" cy="379.58" r="13.25"/><circle class="cls-14" cx="621.48" cy="381.12" r="13.25" transform="translate(-70.94 152.98) rotate(-13.28)"/><path class="cls-39" d="M589.49,464.86h4a3.82,3.82,0,0,1,3.82,3.82v23.12a0,0,0,0,1,0,0H585.67a0,0,0,0,1,0,0V468.68A3.82,3.82,0,0,1,589.49,464.86Z"/><path class="cls-39" d="M589.49,495.38h4a3.82,3.82,0,0,1,3.82,3.82v4.3a0,0,0,0,1,0,0H585.67a0,0,0,0,1,0,0v-4.3a3.82,3.82,0,0,1,3.82-3.82Z" transform="matrix(-1, 0, 0, -1, 1183.01, 998.9)"/><rect class="cls-53" x="553.57" y="470.06" width="19.95" height="39.19"/><path class="cls-54" d="M553.57,459.74v11.94h20V459.74a2.85,2.85,0,0,0-2.85-2.84H556.42A2.85,2.85,0,0,0,553.57,459.74Z"/><path class="cls-8" d="M640.74,382.77c0,.79,0,1.57-.08,2.35a37.37,37.37,0,0,1-17.14,29.2H582.89a37.41,37.41,0,0,1-17.13-29.2c-.06-.78-.08-1.56-.08-2.35Z"/><path class="cls-55" d="M589.08,382.77c0,13.24,3.39,24.88,8.53,31.55H587.35a37.46,37.46,0,0,1-17.21-31.55Z"/><path class="cls-13" d="M629.69,382.77c0,13.24-5.31,24.88-13.34,31.55h-7.54c3.62-6.67,6-18.31,6-31.55Z"/><polygon class="cls-23" points="313.12 602.38 301.24 602.38 217.66 63.03 229.53 63.03 313.12 602.38"/><polygon class="cls-23" points="350.92 567.81 272.65 62.84 272.63 62.71 240.39 62.71 240.41 62.84 324.15 602.38 349.76 602.38 350.92 567.81"/><line class="cls-56" x1="138.13" y1="115.08" x2="138.13" y2="161.05"/><circle class="cls-23" cx="497.05" cy="333.28" r="4.27"/><path class="cls-57" d="M197.77,220.67v136a21.67,21.67,0,0,1-21.67,21.67H81.33A21.67,21.67,0,0,1,59.66,356.7v-136a45.85,45.85,0,0,1,31.41-43.51A43.45,43.45,0,0,1,95.48,176a45.32,45.32,0,0,1,10-1.11h46.43A45.84,45.84,0,0,1,197.77,220.67Z"/><rect class="cls-58" x="110.59" y="174.84" width="37.22" height="203.53"/><path class="cls-23" d="M149.71,177.57l-35.41,1c-.28.41-5.44,0-5.44,0l1.74-6.34,11.93-2.51,1.4-.29a26.57,26.57,0,0,1,11.14,0l13,2.78Z"/><path class="cls-2" d="M129.29,168.82l-.12,8-3.38-1.32-3.26-5.77,1.4-.29A26.82,26.82,0,0,1,129.29,168.82Z"/><rect class="cls-8" x="110.6" y="174.92" width="37.21" height="6.45"/><polygon class="cls-23" points="190.71 365.96 190.71 383.5 65.47 383.5 61.29 365.96 190.71 365.96"/><rect class="cls-8" x="110.6" y="186.72" width="37.21" height="4.37"/><path class="cls-59" d="M98.05,372.67a21.26,21.26,0,0,1-2.89,10.83h-27a21.17,21.17,0,0,1-2.9-10.83V221.3l27.32,7.51L97.8,366Z"/><path class="cls-2" d="M147.81,174.92v6.44h-5.28c-.56-2.52-1.05-4.78-1.42-6.44Z"/><path class="cls-2" d="M143.67,186.72h4.14v4.37h-3.2C144.31,189.67,144,188.19,143.67,186.72Z"/><path class="cls-57" d="M92.47,221.3V372.66c0,10.55-7.34,19.1-16.4,19.1h0c-9.06,0-16.41-8.55-16.41-19.1V221.3"/><path class="cls-59" d="M188.1,221.3V372.67a21.17,21.17,0,0,1-2.9,10.83h-27a21.07,21.07,0,0,1-2.9-10.83l.55-6.7,11.8-143.85Z"/><path class="cls-57" d="M197.77,221.3V372.66c0,10.55-7.35,19.1-16.41,19.1h0c-9.06,0-16.4-8.55-16.4-19.1V221.3"/><path class="cls-60" d="M188.46,219.74V372.57A21.84,21.84,0,0,1,181.31,389c1.84.9-.64,1.37,1.34,1.37,8.34,0,15.12-6,15.12-17.82V219.74A44.76,44.76,0,0,0,153.06,175h-.58C170.83,181.6,188.46,199.16,188.46,219.74Z"/><rect class="cls-25" x="110.59" y="365.96" width="37.22" height="17.53"/><line class="cls-61" x1="110.59" y1="383.49" x2="110.59" y2="365.96"/><path class="cls-59" d="M110.6,174.84v81.23L95.48,176a45.32,45.32,0,0,1,10-1.11Z"/><line class="cls-26" x1="147.81" y1="365.96" x2="147.81" y2="383.49"/><rect class="cls-23" x="64.02" y="385.85" width="24.09" height="9.61"/><polygon class="cls-23" points="110.59 172.19 101.44 173.65 110.59 248.82 110.59 172.19"/><polygon class="cls-23" points="147.85 172.19 157 173.65 147.85 248.82 147.85 172.19"/><rect class="cls-23" x="169.51" y="385.85" width="24.09" height="9.61"/><rect class="cls-9" x="531.79" y="125.57" width="130.05" height="10.66"/><rect class="cls-62" x="531.79" y="605.09" width="130.05" height="10.66"/><rect class="cls-9" x="531.79" y="509.18" width="130.05" height="10.66"/><rect class="cls-9" x="531.79" y="413.28" width="130.05" height="10.66"/><rect class="cls-9" x="531.79" y="317.38" width="130.05" height="10.66"/><rect class="cls-9" x="531.79" y="221.47" width="130.05" height="10.66"/><rect class="cls-9" x="516.18" y="603.99" width="152.35" height="18.91"/><path class="cls-8" d="M129.2,178.88a3.42,3.42,0,0,1-3.42-3.42V163.64c0-4.79,3.57-8.69,7.95-8.69.45,0,1.1-.71,1.1-1.84v-5.26c0-3.92-2.52-7.11-5.63-7.11s-5.62,3.19-5.62,7.11a3.42,3.42,0,0,1-6.84,0c0-7.7,5.59-13.95,12.46-13.95s12.47,6.25,12.47,13.95v5.26c0,4.79-3.56,8.69-7.94,8.69-.45,0-1.1.71-1.1,1.84v11.82A3.43,3.43,0,0,1,129.2,178.88Z"/><path class="cls-56" d="M105.21,89h0a24,24,0,0,0,9.18,18.91l23.74,18.67V151l-7-6.19-2.67-2.37a16,16,0,0,1-5.39-11.77h0"/><line class="cls-61" x1="110.59" y1="174.84" x2="110.59" y2="383.17"/><line class="cls-61" x1="148.14" y1="174.84" x2="148.14" y2="383.17"/><rect class="cls-23" x="564.39" y="488.35" width="7.47" height="4.18" rx="1.19"/><rect class="cls-23" x="563.43" y="482.56" width="9.39" height="4.18" rx="1.19"/><path class="cls-46" d="M562.55,456.89a2.85,2.85,0,0,0-2.85,2.85v49.51h-6.13V459.74a2.85,2.85,0,0,1,2.84-2.85Z"/><path class="cls-13" d="M640.74,382.77c0,.79,0,1.57-.08,2.35h-74.9c-.06-.78-.08-1.56-.08-2.35Z"/><rect class="cls-54" x="558.24" y="246.5" width="74.05" height="12.22"/><polygon class="cls-54" points="628.66 317.55 554.78 317.55 551.35 258.65 628.71 258.65 628.66 317.55"/><polyline class="cls-19" points="546.7 258.72 559.62 258.72 559.62 246.5 546.7 246.5 546.7 258.72"/><polyline class="cls-4" points="554.65 258.65 568.53 258.65 568.49 317.55 554.61 317.55"/><rect class="cls-19" x="544.54" y="258.72" width="84.09" height="5.29"/><path class="cls-63" d="M562.32,242.32h0a8.88,8.88,0,0,1,8.88,8.87V262a8.88,8.88,0,0,1-8.88,8.87h0a8.88,8.88,0,0,1-8.88-8.87V251.19A8.88,8.88,0,0,1,562.32,242.32Z"/><polygon class="cls-64" points="557.51 317.51 536.38 317.51 536.38 252.22 560.85 252.22 557.51 317.51"/><polyline class="cls-14" points="544.73 306.66 544.39 305.48 544.39 252.22 597.24 252.22 597.24 305.48"/><polyline class="cls-65" points="597.24 305.48 602.36 317.51 547.82 317.51 544.73 306.66"/><path class="cls-66" d="M562.92,254.89v-3.7a8.88,8.88,0,0,1,8.88-8.87h0a8.88,8.88,0,0,1,8.88,8.87v3.7"/><path class="cls-23" d="M572.33,296.85h0a9.3,9.3,0,0,0,9.3-9.3V276.32c0-10-11.36-9.3-9.3-9.3a9.29,9.29,0,0,0-9.29,9.3v11.23A9.29,9.29,0,0,0,572.33,296.85Z"/><line class="cls-67" x1="575.19" y1="287.03" x2="568.33" y2="284.22"/><line class="cls-67" x1="577.37" y1="281.37" x2="567.26" y2="277.24"/><rect class="cls-23" x="605.34" y="298.98" width="18.21" height="15.05" rx="1.9"/><polygon class="cls-4" points="351.93 61.25 351.93 602.38 348.58 602.38 348.58 64.59 216.14 64.6 216.14 61.25 351.93 61.25"/><polygon class="cls-68" points="564.34 527.26 537.69 604.1 588.61 604.07 589.13 559.72 564.34 527.26"/><polygon class="cls-54" points="675.99 527.26 564.34 527.26 568.92 532.22 588.61 604.07 645.9 604.07 680.98 532.32 675.99 527.26"/><polygon class="cls-69" points="680.8 532.13 657.09 600.63 655.9 604.07 543.97 604.07 545.16 600.63 568.87 532.13 680.8 532.13"/><path class="cls-70" d="M631.29,558.12H612.11a2.77,2.77,0,0,1-2.78-2.77h0c0-.77,1.08-5,1.58-5.46s2.49,2.68,3.26,2.68h17.12a2.77,2.77,0,0,1,2.77,2.78h0A2.77,2.77,0,0,1,631.29,558.12Z"/><line class="cls-71" x1="613.29" y1="550.61" x2="615.2" y2="553.96"/><line class="cls-71" x1="630.8" y1="550.61" x2="633.18" y2="553.96"/><line class="cls-72" x1="615.2" y1="553.96" x2="633.21" y2="553.96"/><polygon class="cls-68" points="657.09 600.63 655.9 604.07 543.97 604.07 545.16 600.63 657.09 600.63"/><path class="cls-11" d="M536.57,604.44l-10.78-37.18H536.2S537.32,605.18,536.57,604.44Z"/><rect class="cls-9" x="532.91" y="36.95" width="135.62" height="19.97"/><rect class="cls-9" x="540.29" y="60.61" width="107.43" height="60.72"/><path class="cls-10" d="M647.16,61.17v59.61H540.85V61.17H647.16m1.11-1.11H539.73v61.83H648.27V60.06Z"/><rect class="cls-73" x="583.15" y="110.83" width="26.3" height="5.07" rx="2.28"/><line class="cls-74" x1="587.75" y1="110.54" x2="592.28" y2="110.54"/><line class="cls-75" x1="592.28" y1="110.54" x2="607.8" y2="110.54"/><polygon class="cls-76" points="626.9 36.95 624.67 44.26 557.38 44.26 559.61 36.95 626.9 36.95"/><path class="cls-73" d="M348.67,317.57h35.13a2.27,2.27,0,0,1,2.27,2.27v.52a2.28,2.28,0,0,1-2.28,2.28H348.67a2.28,2.28,0,0,1-2.28-2.28v-.52a2.28,2.28,0,0,1,2.28-2.28Z" transform="translate(46.13 686.35) rotate(-90)"/><line class="cls-74" x1="367.27" y1="330.49" x2="371.72" y2="330.41"/><line class="cls-74" x1="367.27" y1="301.38" x2="371.72" y2="301.3"/><line class="cls-75" x1="371.72" y1="330.41" x2="371.72" y2="301.51"/><line class="cls-77" x1="379.22" y1="36.95" x2="379.22" y2="622.91"/></g></g></g></svg>