<svg xmlns="http://www.w3.org/2000/svg" xmlns:xlink="http://www.w3.org/1999/xlink" viewBox="0 0 717.32 592.04"><defs><style>.cls-1{fill:none;}.cls-2{opacity:0.1;}.cls-3{fill:#6480b0;}.cls-4{fill:#e54122;}.cls-5{fill:#224f6d;}.cls-6{fill:#87c6e8;}.cls-7{opacity:0.08;}.cls-8{clip-path:url(#clip-path);}.cls-10,.cls-9{fill:#fff;}.cls-9{opacity:0.4;}.cls-11{clip-path:url(#clip-path-2);}.cls-12{clip-path:url(#clip-path-3);}.cls-13{clip-path:url(#clip-path-4);}.cls-14{clip-path:url(#clip-path-5);}.cls-15{clip-path:url(#clip-path-6);}.cls-16{fill:#a56154;}.cls-17{fill:#231f20;opacity:0.15;}.cls-18{fill:#79bd8f;}.cls-19{fill:#00a388;}.cls-20{fill:#beeb9f;}</style><clipPath id="clip-path"><rect class="cls-1" x="271.69" y="458.91" width="172.67" height="81.83"/></clipPath><clipPath id="clip-path-2"><rect class="cls-1" x="255.07" y="373.49" width="205.91" height="33.08"/></clipPath><clipPath id="clip-path-3"><rect class="cls-1" x="255.07" y="302.6" width="205.91" height="33.08"/></clipPath><clipPath id="clip-path-4"><rect class="cls-1" x="255.07" y="231.71" width="205.91" height="33.08"/></clipPath><clipPath id="clip-path-5"><rect class="cls-1" x="255.07" y="160.82" width="205.91" height="33.08"/></clipPath><clipPath id="clip-path-6"><rect class="cls-1" x="255.07" y="89.92" width="205.91" height="33.08"/></clipPath></defs><title>Asset 1</title><g id="Layer_2" data-name="Layer 2"><g id="Layer_1-2" data-name="Layer 1"><path class="cls-2" d="M606.68,535.45H109.38a5.29,5.29,0,0,0-5.29,5.29h0a5.29,5.29,0,0,0,5.29,5.29h497.3a5.29,5.29,0,0,0,5.29-5.29h0A5.29,5.29,0,0,0,606.68,535.45Z"/><rect class="cls-3" x="238.09" y="47.89" width="239.88" height="492.85"/><rect class="cls-4" x="255.07" y="444.39" width="205.91" height="14.52"/><rect class="cls-5" x="267.69" width="180.68" height="47.89"/><rect class="cls-6" x="255.07" y="373.49" width="205.91" height="33.08"/><rect class="cls-6" x="255.07" y="302.6" width="205.91" height="33.08"/><rect class="cls-6" x="255.07" y="231.71" width="205.91" height="33.08"/><rect class="cls-6" x="255.07" y="160.82" width="205.91" height="33.08"/><rect class="cls-6" x="255.07" y="89.92" width="205.91" height="33.08"/><rect class="cls-7" x="358.12" y="47.89" width="119.85" height="492.85"/><g class="cls-8"><rect class="cls-6" x="271.69" y="458.91" width="172.67" height="81.83"/><rect class="cls-9" x="264.39" y="481.02" width="271.09" height="8.39" transform="translate(-225.96 424.91) rotate(-45)"/><rect class="cls-9" x="272.41" y="489.04" width="271.09" height="8.39" transform="translate(-229.28 432.93) rotate(-45)"/><rect class="cls-9" x="183.37" y="481.02" width="271.09" height="8.39" transform="translate(-249.69 367.62) rotate(-45)"/><rect class="cls-9" x="191.39" y="489.04" width="271.09" height="8.39" transform="translate(-253.01 375.64) rotate(-45)"/><rect class="cls-3" x="396.41" y="458.91" width="6.01" height="81.83"/><rect class="cls-3" x="313.62" y="458.91" width="6.01" height="81.83" transform="translate(633.26 999.65) rotate(180)"/><rect class="cls-4" x="271.69" y="505.52" width="172.67" height="4.95"/><path class="cls-10" d="M361.92,517.19h0a1.77,1.77,0,0,1-1.77-1.77v-14.5a1.77,1.77,0,0,1,1.77-1.77h0a1.77,1.77,0,0,1,1.77,1.77v14.5A1.77,1.77,0,0,1,361.92,517.19Z"/><path class="cls-10" d="M354.13,517.19h0a1.77,1.77,0,0,0,1.77-1.77v-14.5a1.77,1.77,0,0,0-1.77-1.77h0a1.76,1.76,0,0,0-1.76,1.77v14.5A1.76,1.76,0,0,0,354.13,517.19Z"/></g><g class="cls-11"><rect class="cls-9" x="269" y="276.61" width="512.37" height="8.39" transform="translate(-44.73 453.61) rotate(-45)"/><rect class="cls-9" x="277.02" y="284.63" width="512.37" height="8.39" transform="translate(-48.05 461.63) rotate(-45)"/><rect class="cls-9" x="200.78" y="262.57" width="512.37" height="8.39" transform="translate(-54.79 401.26) rotate(-45)"/><rect class="cls-9" x="208.8" y="270.59" width="512.37" height="8.39" transform="translate(-58.11 409.28) rotate(-45)"/><rect class="cls-9" x="140.59" y="256.56" width="512.37" height="8.39" transform="translate(-68.17 356.94) rotate(-45)"/></g><g class="cls-12"><rect class="cls-9" x="64.36" y="234.51" width="512.37" height="8.39" transform="translate(-74.9 296.57) rotate(-45)"/><rect class="cls-9" x="72.38" y="242.53" width="512.37" height="8.39" transform="translate(-78.23 304.59) rotate(-45)"/><rect class="cls-9" x="200.78" y="262.57" width="512.37" height="8.39" transform="translate(-54.79 401.26) rotate(-45)"/><rect class="cls-9" x="208.8" y="270.59" width="512.37" height="8.39" transform="translate(-58.11 409.28) rotate(-45)"/><rect class="cls-9" x="140.59" y="256.56" width="512.37" height="8.39" transform="translate(-68.17 356.94) rotate(-45)"/></g><g class="cls-13"><rect class="cls-9" x="4.16" y="228.5" width="512.37" height="8.39" transform="translate(-88.28 252.25) rotate(-45)"/><rect class="cls-9" x="64.36" y="234.51" width="512.37" height="8.39" transform="translate(-74.9 296.57) rotate(-45)"/><rect class="cls-9" x="72.38" y="242.53" width="512.37" height="8.39" transform="translate(-78.23 304.59) rotate(-45)"/><rect class="cls-9" x="200.78" y="262.57" width="512.37" height="8.39" transform="translate(-54.79 401.26) rotate(-45)"/><rect class="cls-9" x="140.59" y="256.56" width="512.37" height="8.39" transform="translate(-68.17 356.94) rotate(-45)"/></g><g class="cls-14"><rect class="cls-9" x="-3.86" y="220.48" width="512.37" height="8.39" transform="translate(-84.96 244.23) rotate(-45)"/><rect class="cls-9" x="4.16" y="228.5" width="512.37" height="8.39" transform="translate(-88.28 252.25) rotate(-45)"/><rect class="cls-9" x="64.36" y="234.51" width="512.37" height="8.39" transform="translate(-74.9 296.57) rotate(-45)"/><rect class="cls-9" x="72.38" y="242.53" width="512.37" height="8.39" transform="translate(-78.23 304.59) rotate(-45)"/></g><g class="cls-15"><rect class="cls-9" x="-72.07" y="206.45" width="512.37" height="8.39" transform="translate(-95.02 191.89) rotate(-45)"/><rect class="cls-9" x="-64.05" y="214.46" width="512.37" height="8.39" transform="translate(-98.34 199.91) rotate(-45)"/><rect class="cls-9" x="4.16" y="228.5" width="512.37" height="8.39" transform="translate(-88.28 252.25) rotate(-45)"/><rect class="cls-9" x="64.36" y="234.51" width="512.37" height="8.39" transform="translate(-74.9 296.57) rotate(-45)"/><rect class="cls-9" x="72.38" y="242.53" width="512.37" height="8.39" transform="translate(-78.23 304.59) rotate(-45)"/></g><polygon class="cls-2" points="460.98 444.38 460.98 458.91 376.33 458.91 255.07 458.91 336.85 540.69 396.4 540.73 396.41 540.74 477.93 540.74 477.96 461.37 460.98 444.38"/><rect class="cls-2" x="358.12" width="90.25" height="47.89"/><rect class="cls-16" x="513.85" y="454.8" width="12.98" height="86.34"/><rect class="cls-17" x="520.34" y="454.8" width="6.49" height="86.34"/><circle class="cls-18" cx="520.34" cy="430.66" r="53.02" transform="translate(-80.95 738.34) rotate(-66.71)"/><path class="cls-19" d="M550.51,387.06a53,53,0,0,1-75,71.95,53,53,0,1,0,75-71.95Z"/><path class="cls-19" d="M520.4,405a4,4,0,1,0,4.05-4.05A4,4,0,0,0,520.4,405Z"/><path class="cls-19" d="M506.7,394a2.91,2.91,0,1,0,2.91-2.9A2.91,2.91,0,0,0,506.7,394Z"/><circle class="cls-19" cx="544.6" cy="432.93" r="3.4"/><path class="cls-19" d="M495.73,459.39a3.4,3.4,0,1,0,3.4-3.4A3.4,3.4,0,0,0,495.73,459.39Z"/><path class="cls-19" d="M482,444.24a3.4,3.4,0,1,0,3.4-3.4A3.4,3.4,0,0,0,482,444.24Z"/><path class="cls-19" d="M507.05,444.24a3.4,3.4,0,1,0,3.4-3.4A3.4,3.4,0,0,0,507.05,444.24Z"/><circle class="cls-19" cx="501.4" cy="432.93" r="2.27"/><path class="cls-19" d="M517.67,456a2.27,2.27,0,1,0,2.27-2.27A2.27,2.27,0,0,0,517.67,456Z"/><path class="cls-19" d="M488.8,407.31a2.27,2.27,0,1,0,2.27-2.27A2.27,2.27,0,0,0,488.8,407.31Z"/><path class="cls-19" d="M539.85,416.33a2.27,2.27,0,1,0,2.27-2.27A2.27,2.27,0,0,0,539.85,416.33Z"/><path class="cls-19" d="M532.1,449.42a2.27,2.27,0,1,0,2.27-2.27A2.27,2.27,0,0,0,532.1,449.42Z"/><path class="cls-19" d="M517.67,435.2a2.27,2.27,0,1,0,2.27-2.27A2.27,2.27,0,0,0,517.67,435.2Z"/><path class="cls-19" d="M538.93,401.92a2.27,2.27,0,1,0,2.27-2.27A2.27,2.27,0,0,0,538.93,401.92Z"/><path class="cls-19" d="M503.65,417.68a3.4,3.4,0,1,0,3.4-3.4A3.4,3.4,0,0,0,503.65,417.68Z"/><rect class="cls-16" x="569.28" y="474.79" width="10" height="66.54"/><rect class="cls-17" x="574.28" y="474.79" width="5" height="66.54"/><circle class="cls-20" cx="574.28" cy="456.18" r="40.86" transform="translate(-88.17 141.45) rotate(-13.05)"/><path class="cls-18" d="M597.53,422.58A40.86,40.86,0,0,1,539.75,478a40.86,40.86,0,1,0,57.78-55.45Z"/><circle class="cls-18" cx="577.45" cy="436.43" r="3.12"/><path class="cls-18" d="M563.77,427.89a2.24,2.24,0,1,0,2.24-2.24A2.24,2.24,0,0,0,563.77,427.89Z"/><path class="cls-18" d="M590.36,457.93a2.62,2.62,0,1,0,2.62-2.62A2.62,2.62,0,0,0,590.36,457.93Z"/><circle class="cls-18" cx="557.94" cy="478.32" r="2.62"/><path class="cls-18" d="M544.73,466.64a2.62,2.62,0,1,0,2.62-2.62A2.62,2.62,0,0,0,544.73,466.64Z"/><path class="cls-18" d="M564,466.64a2.62,2.62,0,1,0,2.62-2.62A2.62,2.62,0,0,0,564,466.64Z"/><path class="cls-18" d="M557.94,457.93a1.75,1.75,0,1,0,1.74-1.75A1.74,1.74,0,0,0,557.94,457.93Z"/><path class="cls-18" d="M572.22,475.7A1.75,1.75,0,1,0,574,474,1.75,1.75,0,0,0,572.22,475.7Z"/><circle class="cls-18" cx="551.72" cy="438.18" r="1.75"/><path class="cls-18" d="M589.32,445.13a1.75,1.75,0,1,0,1.74-1.74A1.74,1.74,0,0,0,589.32,445.13Z"/><path class="cls-18" d="M583.35,470.64a1.75,1.75,0,1,0,1.74-1.75A1.74,1.74,0,0,0,583.35,470.64Z"/><path class="cls-18" d="M572.22,459.67a1.75,1.75,0,1,0,1.75-1.74A1.75,1.75,0,0,0,572.22,459.67Z"/><path class="cls-18" d="M588.61,434a1.75,1.75,0,1,0,1.75-1.75A1.74,1.74,0,0,0,588.61,434Z"/><circle class="cls-18" cx="564.04" cy="446.18" r="2.62"/><rect class="cls-16" x="145.73" y="443.38" width="11.17" height="98.83"/><rect class="cls-17" x="151.32" y="443.38" width="5.58" height="98.83"/><ellipse class="cls-20" cx="151.32" cy="415.74" rx="45.63" ry="60.69"/><path class="cls-18" d="M177.28,365.83a75.61,75.61,0,0,1,7.07,32.46c0,33.51-20.43,60.68-45.63,60.68-9.65,0-18.6-4-26-10.78,8.09,17,22.34,28.23,38.57,28.23,25.2,0,45.63-27.16,45.63-60.68C197,395.05,189.16,376.79,177.28,365.83Z"/><path class="cls-18" d="M151.37,386.41c0,2.56,1.56,4.63,3.48,4.63s3.48-2.07,3.48-4.63-1.56-4.63-3.48-4.63S151.37,383.86,151.37,386.41Z"/><path class="cls-18" d="M139.58,373.72c0,1.84,1.12,3.33,2.5,3.33s2.5-1.49,2.5-3.33-1.12-3.32-2.5-3.32S139.58,371.89,139.58,373.72Z"/><path class="cls-18" d="M169.27,418.34c0,2.15,1.31,3.89,2.93,3.89s2.92-1.74,2.92-3.89-1.31-3.9-2.92-3.9S169.27,416.19,169.27,418.34Z"/><ellipse class="cls-18" cx="133.06" cy="448.63" rx="2.93" ry="3.89"/><ellipse class="cls-18" cx="121.24" cy="431.28" rx="2.93" ry="3.89"/><path class="cls-18" d="M139.88,431.28c0,2.15,1.31,3.9,2.92,3.9s2.93-1.75,2.93-3.9-1.31-3.89-2.93-3.89S139.88,429.13,139.88,431.28Z"/><ellipse class="cls-18" cx="135.01" cy="418.34" rx="1.95" ry="2.6"/><path class="cls-18" d="M149,444.73c0,1.44.87,2.6,1.95,2.6s1.95-1.16,1.95-2.6-.87-2.59-1.95-2.59S149,443.3,149,444.73Z"/><path class="cls-18" d="M124.17,389c0,1.43.87,2.6,2,2.6s1.95-1.17,1.95-2.6-.87-2.6-1.95-2.6S124.17,387.58,124.17,389Z"/><path class="cls-18" d="M168.11,399.34c0,1.43.87,2.59,1.95,2.59s1.95-1.16,1.95-2.59-.87-2.6-1.95-2.6S168.11,397.9,168.11,399.34Z"/><ellipse class="cls-18" cx="163.39" cy="437.21" rx="1.95" ry="2.6"/><path class="cls-18" d="M149,420.93c0,1.44.87,2.6,1.95,2.6s1.95-1.16,1.95-2.6-.87-2.59-1.95-2.59S149,419.5,149,420.93Z"/><path class="cls-18" d="M167.32,382.84c0,1.43.87,2.6,2,2.6s1.95-1.17,1.95-2.6-.87-2.6-1.95-2.6S167.32,381.4,167.32,382.84Z"/><ellipse class="cls-18" cx="139.88" cy="400.88" rx="2.93" ry="3.89"/><rect class="cls-16" x="195.43" y="467.89" width="11.17" height="74.32"/><rect class="cls-17" x="201.02" y="467.89" width="5.58" height="74.32"/><circle class="cls-18" cx="201.02" cy="447.11" r="45.63"/><path class="cls-19" d="M227,409.58a45.63,45.63,0,0,1-64.52,61.93A45.63,45.63,0,1,0,227,409.58Z"/><path class="cls-19" d="M201.07,425.05a3.49,3.49,0,1,0,3.48-3.48A3.48,3.48,0,0,0,201.07,425.05Z"/><path class="cls-19" d="M189.28,415.51a2.5,2.5,0,1,0,2.5-2.5A2.5,2.5,0,0,0,189.28,415.51Z"/><path class="cls-19" d="M219,449.06a2.93,2.93,0,1,0,2.93-2.93A2.93,2.93,0,0,0,219,449.06Z"/><path class="cls-19" d="M179.84,471.84a2.93,2.93,0,1,0,2.92-2.93A2.92,2.92,0,0,0,179.84,471.84Z"/><path class="cls-19" d="M168,458.8a2.93,2.93,0,1,0,2.92-2.93A2.92,2.92,0,0,0,168,458.8Z"/><path class="cls-19" d="M189.58,458.8a2.93,2.93,0,1,0,2.93-2.93A2.93,2.93,0,0,0,189.58,458.8Z"/><path class="cls-19" d="M182.76,449.06a2,2,0,1,0,2-1.95A2,2,0,0,0,182.76,449.06Z"/><circle class="cls-19" cx="200.67" cy="468.91" r="1.95"/><circle class="cls-19" cx="175.82" cy="427.01" r="1.95"/><path class="cls-19" d="M217.81,434.77a1.95,1.95,0,1,0,1.95-1.95A1.95,1.95,0,0,0,217.81,434.77Z"/><circle class="cls-19" cx="213.1" cy="463.25" r="1.95"/><circle class="cls-19" cx="200.67" cy="451.01" r="1.95"/><circle class="cls-19" cx="218.97" cy="422.37" r="1.95"/><circle class="cls-19" cx="189.58" cy="435.94" r="2.93"/></g></g></svg>