<?xml version="1.0" encoding="UTF-8"?>
<svg width="919px" height="493px" viewBox="0 0 919 493" version="1.1" xmlns="http://www.w3.org/2000/svg" xmlns:xlink="http://www.w3.org/1999/xlink">
    <!-- Generator: Sketch 55.2 (78181) - https://sketchapp.com -->
    <title>Group 3</title>
    <desc>Created with Sketch.</desc>
    <g id="Page-1" stroke="none" stroke-width="1" fill="none" fill-rule="evenodd">
        <g id="Group-3" transform="translate(10.000000, 0.000000)">
            <path d="M732.00005,91.408 C732.000017,91.4386628 732,91.4693295 732,91.5 C732,98.7009266 732.91152,105.688956 734.62547,112.355 L253.437,112.355 C248.995,112.355 244.805,113.369 240.995,115.078 L508.005,336.456 L746.579265,138.654069 C750.567001,144.471384 755.272107,149.758315 760.567063,154.387337 L613.687,276.175 L790.561,452.985 C791.986,449.513 792.809,445.746 792.809,441.777 L792.809,171.879941 C799.56768,173.784061 806.673961,174.858692 814.011,174.986991 L814.011,441.779 C814.011,455.172 808.639,467.287 800.038,476.373 C799.869,476.553 799.817,476.785 799.637,476.954 C799.574,477.007 799.5,477.027 799.437,477.081 C790.087,486.621 777.043,492.604 762.574,492.604 L253.438,492.604 C238.969,492.604 225.936,486.631 216.575,477.09 C216.511,477.026 216.437,477.016 216.374,476.953 C216.184,476.773 216.131,476.54 215.962,476.351 C207.372,467.264 202,455.16 202,441.778 L202,142.232 C202,129.167 207.161,117.358 215.382,108.346 C215.519,108.166 215.55,107.945 215.698,107.776 C215.835,107.607 216.036,107.543 216.173,107.396 C225.555,97.602 238.747,91.408 253.437,91.408 L732.00005,91.408 Z M225.45,452.976 L402.324,276.176 L225.956,129.938 C224.226,133.694 223.202,137.842 223.202,142.232 L223.202,441.768 C223.202,445.737 224.025,449.515 225.45,452.976 Z M253.437,471.645 L762.572,471.645 C767.47,471.645 772.028,470.379 776.123,468.332 L597.392,289.674 L514.812,358.145 C512.849,359.781 510.422,360.604 508.005,360.604 C505.588,360.604 503.161,359.781 501.198,358.145 L418.618,289.674 L239.887,468.332 C243.981,470.378 248.541,471.645 253.437,471.645 Z" id="Combined-Shape" fill="#590048" fill-rule="nonzero"></path>
            <g id="Group-2" transform="translate(0.000000, 211.000000)" stroke="#590048" stroke-linecap="square" stroke-width="20">
                <path d="M80,0.5 L165,0.5" id="Line"></path>
                <path d="M40,90.5 L165,90.5" id="Line-Copy"></path>
                <path d="M0,180.5 L165,180.5" id="Line-Copy-2"></path>
            </g>
            <circle id="Oval-Copy" fill="#590048" cx="825.5" cy="83.5" r="83.5"></circle>
            <text id="1" font-family="Roboto-Bold, Roboto" font-size="122" font-weight="bold" letter-spacing="5.30434783" fill="#871B97">
                <tspan x="788" y="125">1</tspan>
            </text>
        </g>
    </g>
</svg>